<svg version="1.2" xmlns="http://www.w3.org/2000/svg" viewBox="0 0 240 240" width="240" height="240">
	<title>Assets Mapping</title>
	<defs>
		<filter x="-50%" y="-50%" width="200%" height="200%" id="f1" ><feDropShadow dx="-7.794228634059948" dy="4.499999999999999" stdDeviation="1.6666666666666667" flood-color="#000000" flood-opacity=".6"/></filter>
	</defs>
	<style>
		tspan { white-space:pre } 
		.s0 { fill: #018944 } 
		.s1 { filter: url(#f1);fill: #ffffff } 
		.s2 { fill: #78ebff } 
		.s3 { fill: #bed65e } 
		.s4 { fill: #fbffcc } 
		.s5 { fill: #ecffa1 } 
		.s6 { fill: #82e0ff } 
		.s7 { fill: #bcd173 } 
		.s8 { fill: #96ab41 } 
		.s9 { fill: #11b6d1 } 
		.s10 { fill: #4dc7e8 } 
		.s11 { fill: #2da3cc } 
		.s12 { fill: #ababab } 
		.s13 { fill: #ffffff } 
		.s14 { fill: #adadad } 
		.s15 { fill: #e29733 } 
		.s16 { fill: #e10000 } 
	</style>
	<g id="Assets Mapping">
		<path id="Layer 32 copy 6" class="s0" d="m120 240c-66.4 0-120-53.6-120-120 0-66.4 53.6-120 120-120 66.4 0 120 53.6 120 120 0 66.4-53.6 120-120 120z"/>
		<g id="Folder 2">
			<g id="Folder 21">
				<path id="Shape 38" class="s1" d="m83.7 81l18.9 6.3 18-6.3 18.8 6.3 18.9-6.3 18.8 6.3 44.9 56.5-35-10.7-33.2 10.7-32.4-10.7-34.1 10.7-32.3-10.7-35 10.7 44.9-56.5z"/>
				<g id="&lt;Group&gt;">
					<path id="&lt;Path&gt;" class="s2" d="m110.6 119.1c-5.8 2.6-11.9 2.9-17.8 5.9l3.3-12.1c4-0.7 7.9-2.3 10.7-4.4 2.4-1.3 4.7-0.4 6.6 1.3 2.3 3.4 0.4 7.2-2.8 9.3z"/>
					<path id="&lt;Path&gt;" class="s3" d="m90.1 134.9l2.7-9.9c5.9-3 12-3.3 17.8-5.9 3.2-2.1 5.1-5.9 2.8-9.3-1.9-1.7-4.2-2.6-6.6-1.3-2.8 2.1-6.7 3.7-10.7 4.4l1-3.7c2.9-1.1 5.8-2.7 8.3-4.1 4.2-2.5 9.3 1.7 11.2 5.5 1.4 2.6 0.5 5.1-2.8 7.2 0 0-0.9 1.3-0.4 2.1 0.4 0.5 1.8 0 2.7 0-0.4 6.8-10.2 6-14.8 9.4-1.4 1.2-0.5 3.4-1 3.8 0.6 4.2-7 2.2-10.2 1.8z"/>
					<path id="&lt;Path&gt;" class="s4" d="m101.8 98.9c1.6-3.2 2.8-6.7 2.8-10.3l2-0.7c0 2.8 0.1 5.6-0.2 8.3 0 1.3-0.5 3.6-2.3 4.5-1.4 0.5-2.7-1.3-2.3-1.8z"/>
					<path id="&lt;Path&gt;" class="s5" d="m121 103.6v27.1l-32.8 11.1 1.9-6.9c3.2 0.4 10.2 1.4 10.2-1.8 0.5-0.4-0.4-2.6 1-3.8 4.2-3.2 12.9-2.7 14.6-7.9 0.2-0.7-0.5-1.4-1.2-1.3-0.6 0.1-1.1 0.1-1.3-0.2-0.5-0.8 0.4-2.1 0.4-2.1 3.3-2.1 4.2-4.6 2.8-7.2-1.9-3.8-7-8-11.2-5.5-2.5 1.4-5.4 3-8.3 4.1l5.4-19.8 2.1-0.8c0 3.6-1.2 7.1-2.8 10.3-0.4 0.5 0.9 2.3 2.3 1.8 1.8-0.9 2.3-3.2 2.3-4.5 0.3-2.7 0.2-5.5 0.2-8.3l2.2-0.8c-0.6 3.1-0.8 6.1 1.3 8.7 0.9 1.3 6 0.4 7.4 3 0.5 0.8-1.8 1.2-3.2 1.2-2.3 0.5 2.4 0.5 1.6 1.5-0.2 0.4 0.8 0.6 1.3 0.6 1.5 0.1 2.7 0.7 3.8 1.5z"/>
					<path id="&lt;Path&gt;" class="s5" d="m121 82.8v13c-3.4-1.5-8.4 0.5-10.4-2.6-1.6-2.3-1.6-4.4-0.8-6.4z"/>
					<path id="&lt;Path&gt;" class="s6" d="m121 98.7c-0.5 0.6-0.8 1.2-0.2 1.7q0.1 0.1 0.2 0.2v3c-1.2-0.9-2.5-1.5-4.1-1.5-0.4 0-1-0.1-0.9-0.5 0.3-1.1-4.7-1-1.7-1.6 1.4 0 3.7-0.4 3.2-1.2-1.4-2.6-6.5-1.7-7.4-3-2.1-2.6-1.9-5.6-1.3-8.7l1-0.3c-0.8 2-0.8 4.1 0.8 6.4 2 3.1 7 1.1 10.4 2.6z"/>
					<path id="&lt;Path&gt;" class="s7" d="m121 98.7v1.9q-0.1-0.1-0.2-0.2c-0.6-0.5-0.3-1.1 0.2-1.7z"/>
					<path id="&lt;Path&gt;" class="s8" d="m97.1 109.2l-1 3.7c-6.5 1.2-13.4 0-16.2-5.2-2.4-4.3 4.6-5.1 7.4-8.1 4.2-5.1-2.3-9.3-7.4-7.6q-0.9 0.3-1.7 0.7l0.8-1.4c8.6-2.6 12.2 0.4 12.5 7.5 0.5 4.2-7.5 6.7-4.7 9.7 2.7 2.4 6.5 2.1 10.3 0.7z"/>
					<path id="&lt;Path&gt;" class="s7" d="m102.5 89.4l-5.4 19.8c-3.8 1.4-7.6 1.7-10.3-0.7-2.8-3 5.2-5.5 4.7-9.7-0.3-7.1-4.4-9.5-12.5-7.5l5.1-8.5z"/>
					<path id="&lt;Path&gt;" class="s8" d="m67.5 110.6l3.6-6.2c0.4 0.7 0.4 2.5 0.4 3.7 2.8 0.4 6.5 3.8 4.2 5.5-1.4 0.8-2.8-1.7-4.2-3.4-1.4-1-2.8-0.3-4 0.4z"/>
					<path id="&lt;Path&gt;" class="s9" d="m87.7 119.9c0.4 0.9 0.4 2.3-1.4 2.7-4.1 1.9-6.8-1.3-9.6-3.6-0.9-0.9-2.7 0-4.1-0.5-1.5-0.7-0.9-1.8-0.4-2.3 2.3-1.3 5.5 1 6.8-1.3 1.8-3.1-2.1-4.1-2.7-6.7 0.2 0.3-0.3 0.7-0.1 0.9-0.2-0.2 0.1 0.2 0 0 0-0.1 0.4-0.1 0.4-0.2 0 0.1-1.8-1.1-1.7-1-0.5-0.7-1.1-2.5-0.8-3.2 0.6-1.4 2.9 0 3.4 0.5 3.4 3.9 3.8 7.8 2.4 13.8-0.4 1.3 5.5-1.8 7.8 0.9z"/>
					<path id="&lt;Compound Path&gt;" fill-rule="evenodd" class="s10" d="m96.1 112.9l-3.3 12.1q-1.1 0.6-2.2 1.3c-5.6 3.8-12.1-0.4-16.8-4.7-3.1-2.8-6.3-4.6-9.6-5.5l3.3-5.5c1.2-0.7 2.6-1.4 4-0.4 1.4 1.7 2.8 4.2 4.2 3.4 2.3-1.7-1.4-5.1-4.2-5.5 0-1.2 0-3-0.4-3.7l7.1-11.7q0.8-0.4 1.7-0.7c5.1-1.7 11.6 2.5 7.4 7.6-2.8 3-9.8 3.8-7.4 8.1 2.8 5.2 9.7 6.4 16.2 5.2zm-8.4 7c-2.3-2.7-8.9 2.2-7.9-2.1 1.4-5.9 0.2-6.1-1.6-11.1-0.5-0.4-3.4-2.7-3.6-0.8-0.4 0.7 1.3 1.7 1.7 2.3 0.6 2.6 4.5 3.6 2.7 6.7-1.3 2.3-4.5 0-6.8 1.3-0.5 0.5 0 1.9 0.4 2.3 1.4 0.5 3.2-0.4 4.1 0.5 2.8 2.3 5.5 5.5 9.6 3.6 1.8-0.4 1.8-1.8 1.4-2.7z"/>
					<path id="&lt;Path&gt;" class="s7" d="m63.1 119.9c8.8 4.5 17.1 13.9 27 15l-1.9 6.9-32.7-11.1 6.7-11.2q0.4 0.2 0.9 0.4z"/>
					<path id="&lt;Path&gt;" class="s8" d="m92.8 125l-2.7 9.9c-9.9-1.1-18.2-10.5-27-15q-0.5-0.2-0.9-0.4l2-3.4c3.3 0.9 6.5 2.7 9.6 5.5 4.7 4.3 11.2 8.5 16.8 4.7q1.1-0.7 2.2-1.3z"/>
					<path id="&lt;Path&gt;" class="s3" d="m79 91.3l-0.8 1.4c-7.6 3.6-13.9 9.9-22.5 10.7q-0.8 0.1-1.6 0.1l10.7-13.1q1.8 0.9 3.9 1.2c3 0.3 6.7-0.1 10.3-0.3z"/>
					<path id="&lt;Path&gt;" class="s5" d="m84.1 82.8l-5.1 8.5c-3.6 0.2-7.3 0.6-10.3 0.3q-2.1-0.3-3.9-1.2l0.8-1z"/>
					<path id="&lt;Path&gt;" class="s2" d="m67.5 110.6l-3.3 5.5c-9-2.6-18.4 1.1-26.2 7l9.9-12.1c5.3-1.4 12 0.2 17.5 0.5 0.4 0.1 1.2-0.4 2.1-0.9z"/>
					<path id="&lt;Path&gt;" class="s2" d="m54.3 106.8q-1.3-0.3-2.6-0.4l2.4-2.9q0.8 0 1.6-0.1c8.6-0.8 14.9-7.1 22.5-10.7l-7.1 11.7q0-0.1-0.1-0.1c-5.6-2.2-11.1 3.8-16.7 2.5z"/>
					<path id="&lt;Path&gt;" class="s3" d="m71.1 104.4l-3.6 6.2c-0.9 0.5-1.7 1-2.1 0.9-5.5-0.3-12.2-1.9-17.5-0.5l3.8-4.6q1.3 0.1 2.6 0.4c5.6 1.3 11.1-4.7 16.7-2.5q0.1 0 0.1 0.1z"/>
					<path id="&lt;Path&gt;" class="s5" d="m55.5 130.7l-9.7 3.3c1.6-1.7 3.6-3 5.4-4.5 2.3-2.3-1.8-4.1-4.1-3.7-3.7 1.4-6.9 8.7-11.4 4.6-0.5-0.5 1.8-1.8 1.8-1.8-1.3-0.6-2.5-0.6-3.7-0.3l1.4-1.7q0.2-0.1 0.5-0.3c4.2-2.1 7.9-3.4 11.6-5.1 4.4-2 10-4 14.9-1.7z"/>
					<path id="&lt;Path&gt;" class="s4" d="m51.2 129.5c-1.8 1.5-3.8 2.8-5.4 4.5l-23.1 7.8 11.1-13.5c1.2-0.3 5.4-2.2 3.7 0.3 0 0-2.3 1.3-1.8 1.8 4.5 4.1 7.7-3.2 11.4-4.6 2.3-0.4 6.4 1.4 4.1 3.7z"/>
					<path id="&lt;Path&gt;" class="s3" d="m64.2 116.1l-2 3.4c-4.9-2.3-10.5-0.3-14.9 1.7-3.7 1.7-7.4 3-11.6 5.1q-0.3 0.2-0.5 0.3l2.8-3.5c7.8-5.9 17.2-9.6 26.2-7z"/>
					<path id="&lt;Path&gt;" class="s8" d="m199.4 123.8c-5.6-2.2-13.9 0.4-16.3-6.4 1.9 0 2.4 1.7 4.2 1.7v-0.4c0.9-0.5 1.9 0.8 2.3 0.4 0.5-0.9-1.4-1.5 0-2.1 3.3-2.1 4.2 0.8 7 0.8 0.7 0 1.1-0.9 1.4-1.9l2 2.3q-0.3 0.2-0.6 0.5c-1.4 1.2-3.7-0.9-5.6-1.7-2.3-0.9-2.3 2.9-1.4 2.9 3.9 0.4 9 0.8 9.3 4.9 0.1 0.6 0.6 1.1 1.2 1 1-0.1 1.9-0.4 2.8-0.6l2.2 2.7c-2.2-0.4-4.6-0.6-7.1-0.8-1.9 0 0-2.9-1.4-3.3z"/>
					<path id="&lt;Path&gt;" class="s7" d="m193.8 117c1.9 0.8 4.2 2.9 5.6 1.7q0.3-0.3 0.6-0.5l5.7 7c-1.1 0.3-1.5 1.1-3.1 0.9-0.5-0.1-0.8-0.5-0.8-1-0.2-4.4-5.4-4.8-9.4-5.2-0.9 0-0.9-3.8 1.4-2.9z"/>
					<path id="&lt;Path&gt;" class="s8" d="m159 84.6l-1.1-1.8 2.1 0.8q-0.3 0.1-0.6 0.3c-0.2 0.1-0.3 0.4-0.4 0.7z"/>
					<path id="&lt;Path&gt;" class="s8" d="m161.7 86.9c-0.3 0-0.6 0.3-1 0.6l-1.7-2.9c0.1-0.3 0.2-0.6 0.4-0.7q0.3-0.2 0.6-0.3l10.3 3.6q-0.5 0.5-1.1 1c-2.4 1.7-4.7-1.3-7.5-1.3z"/>
					<path id="&lt;Path&gt;" class="s8" d="m181.7 116.1c0.9 1.6-0.2 2.7-1.8 3.4l-0.8-1.2c0.9-0.3 1.7-0.9 2.2-1.7-1-1.7-2.8 0-3.3-0.5q-0.3-0.4-0.7-0.9l-4.6-7.7c3.1 2.7 7.1 5 9 8.6z"/>
					<path id="&lt;Path&gt;" class="s8" d="m219.3 141.8l-22.1-7.5c3.4-0.3 7.3 0.3 10.1 0 1.7-0.1 3.2-0.7 4.6-1.5z"/>
					<path id="&lt;Path&gt;" class="s9" d="m194.1 111.1q0 0 0 0l2 2.4q0 0 0 0c-2.6 1.2-5.9 1.6-8.9 1.4q0 0 0 0c0-0.5 0.9-1.4 0.4-1.9-0.9-1.3-2.7 1-3.7 0-2.3-2.5-1.3-1.9 0.7-1.3 3.2 0.1 6.9 0.7 9.5-0.6z"/>
					<path id="&lt;Path&gt;" class="s9" d="m198.1 131.3c-1.9 0.9-4.2 0.4-5.5 1.4q-0.1 0-0.1 0l-4.3-1.5q-0.1 0-0.1 0 0.4-0.7 0.9-1.3c1.8-3.2 5.9-2.3 8.6-0.4q0 0 0 0c0.5 0.4 1 1.3 0.5 1.8q0 0 0 0z"/>
					<path id="&lt;Path&gt;" class="s10" d="m211.9 132.7q0 0.1 0 0.1c-1.4 0.8-2.9 1.4-4.6 1.5-2.8 0.3-6.7-0.3-10.1 0q0 0 0 0l-4.7-1.6q0.1 0 0.1 0c1.4-0.9 3.7-0.5 5.5-1.4q0 0 0 0c0.5-0.5 0-1.4-0.5-1.8q0 0 0 0c-2.7-1.9-6.8-2.8-8.6 0.4q-0.5 0.6-0.9 1.3 0 0 0 0l-1.6-0.5q0 0 0 0l-6.6-11.2q0 0 0 0c1.6-0.7 2.7-1.8 1.8-3.4-1.9-3.6-5.9-5.9-9-8.6q0 0 0 0l-4-6.6q0 0 0 0c3.3 1.6 7.1 2.6 10.7 3.8q0 0 0 0c1.4 0.8 2.3 2.5 4.2 3.4q0 0 0 0c3 0.8 6 1.2 8.9 1q0 0 0.1 0c0 0.1 1.4 1.8 1.5 2q0 0 0 0c-2.8 1.4-7 0.5-10.3 0.6-0.1 0.1-0.2 0.1-0.3 0.3 0.6 3.1 3-0.6 4.1 1 0.2 0.3 0.1 0.6 0 0.9-0.2 0.5 0.1 1 0.6 1 2.8 0.1 5.6-0.3 7.9-1.4q0 0 0 0l1.9 2.4q0 0 0 0c-0.4 1-0.7 1.9-1.4 1.9-2.8 0-3.7-2.9-7-0.8-0.9 0.9 0.5 1.2 0 2.1q0 0 0 0c-0.4 0.4-1.4-0.9-2.3-0.4v0.4c-1.7 0-2.2-1.5-3.8-1.7-0.2 0-0.3 0.2-0.2 0.3 2.4 6.4 10.6 4 16.1 6.1 1.4 0.4-0.5 3.3 1.4 3.3 2.5 0.2 4.9 0.4 7.1 0.8q0 0 0 0z"/>
					<path id="&lt;Path&gt;" class="s10" d="m164.7 94.2l-4-6.7c0.4-0.3 0.7-0.6 1-0.6 2.8 0 5.1 3 7.5 1.3q0.6-0.5 1.1-1l6.1 2.2 3.1 3.8c-3.6 2.1-8.6 2.2-13.1 0.5-0.7-0.3-1.3 0-1.7 0.5z"/>
					<path id="&lt;Path&gt;" class="s8" d="m179.4 104.7c-3.6-1.2-7.5-2.2-10.7-3.9l-4-6.6c0.4-0.5 1-0.8 1.7-0.5 4.5 1.7 9.5 1.6 13.1-0.5l13.1 15.9c-3 0.2-6-0.2-9-1-1.9-0.9-2.8-2.6-4.2-3.4z"/>
					<path id="&lt;Path&gt;" class="s8" d="m179.1 118.3l-1.8-3.1q0.4 0.5 0.7 0.9c0.5 0.5 2.3-1.2 3.3 0.5-0.5 0.8-1.3 1.4-2.2 1.7z"/>
					<path id="&lt;Path&gt;" class="s7" d="m138.9 120.8c1.4 1.7 1.9 4.6 0.5 5.5-2.3 1.3-4.7 2.5-5.6 4.7q-0.5 2-0.3 3.9l-12.5-4.2v-27.1c0.9 0.6 1.7 1.3 2.6 1.9 3.5 2.7 1 5.1-0.4 8-0.8 1.6 0.8 3.5 2.8 3.2 5-0.8 9.9-0.1 12.9 4.1z"/>
					<path id="&lt;Path&gt;" class="s11" d="m121 98.7v-2.9q0.6 0.3 1.2 0.8c0.5 0.5-0.5 1.3-1.2 2.1z"/>
					<path id="&lt;Path&gt;" class="s7" d="m146.4 114.8l7.4 27-19.1-6.5c-0.2-1.4 0.1-2.9 1-4.3 1.8-2.6 6.5-3.4 6-6.8 0-3.4 1-6.4-0.9-8.1-4.2-3.4-11.2-0.4-16.8-0.4 3.3-5.4 2.4-10.9-3-15.1v-1.9c0.7-0.8 1.7-1.6 1.2-2.1q-0.6-0.5-1.2-0.8v-13l8.4 3c-0.8 1.9-1.3 3.7-0.2 4.9 5.5 6.4 4.2 11.4 4.2 18.6 0 0.9 0.9 2.6 1.8 3 3.7 1.1 7.8 1.3 11.2 2.5z"/>
					<path id="&lt;Path&gt;" class="s8" d="m145.5 111.6l0.9 3.2c-3.4-1.2-7.5-1.4-11.2-2.5-0.9-0.4-1.8-2.1-1.8-3 0-7.2 1.3-12.2-4.2-18.6-1.1-1.2-0.6-3 0.2-4.9l2.4 0.9q-0.2 2-0.8 4c0 0.9 0.5 2.1 1.4 3 1.4 2.1 5.6 3.8 5.1 5.5-1.4 5.1-4.1 10.6 1.9 12.7 1.9 0.5 4.1 0.3 6.1-0.3z"/>
					<path id="&lt;Path&gt;" class="s11" d="m141.7 124.2c0.5 3.4-4.2 4.2-6 6.8-0.9 1.4-1.2 2.9-1 4.3l-1.2-0.4q-0.2-1.9 0.3-3.9c0.9-2.2 3.3-3.4 5.6-4.7 1.4-0.9 0.9-3.8-0.5-5.5-3.1-4.3-8.1-5-13.2-4.1-1.9 0.3-3.4-1.3-2.7-2.8 1.4-3 4.3-5.6 0.6-8.4-0.9-0.6-1.7-1.3-2.6-1.9v-3c7.9 4.8 6.1 8.7 3.8 13.6-0.3 0.7 0.3 1.5 1.1 1.4 5.2-0.5 11.2-2.5 14.9 0.5 1.9 1.7 0.9 4.7 0.9 8.1z"/>
					<path id="&lt;Path&gt;" class="s7" d="m131 90.7q0.6-2 0.8-4l7.6 2.7 6.1 22.2c-2 0.6-4.2 0.8-6.1 0.3-6-2.1-3.3-7.6-1.9-12.7 0.5-1.7-3.7-3.4-5.1-5.5-0.9-0.9-1.4-2.1-1.4-3z"/>
					<path id="&lt;Path&gt;" class="s3" d="m172.7 107.5l4.6 7.7c-6-7.4-14.5-10.7-23-14.3-2.8-1.3-8.4-2.1-6.1-5.5 2.4-3.4 7.9-2.6 10.3-6.4 0.7-1.3 0.3-3.3 0.5-4.4l1.7 2.9c-0.2 0.1-0.5 0.2-0.8 0.2 1.4 5.1-6.1 5.5-6.5 7.7-0.5 5.9 13 5.9 17.6 10.6q0.8 0.7 1.7 1.5z"/>
					<path id="&lt;Path&gt;" class="s2" d="m165 98.3c1.1 1 2.3 1.8 3.7 2.5l4 6.7q-0.9-0.8-1.7-1.5c-4.6-4.7-18.1-4.7-17.6-10.6 0.4-2.2 7.9-2.6 6.5-7.7 0.3 0 0.6-0.1 0.8-0.2l4 6.7c-1 1.1-1 3.5 0.3 4.1z"/>
					<path id="&lt;Path&gt;" class="s3" d="m164.7 94.2l4 6.6c-1.4-0.7-2.6-1.5-3.7-2.5-1.3-0.6-1.3-3-0.3-4.1z"/>
					<path id="&lt;Path&gt;" class="s5" d="m177.1 117.8q0 0 0 0c-4.7-4.2-10.3-7.2-15.8-6.3-4.2 0.8-8.4-2.6-11.7-1.3-1.1 0.5-2.6 1.1-4.1 1.4l-6.1-22.2 2.2-0.8c0.2 1.8 0.7 3.5 2.7 3.5 0-1.4 0.9-2.8 1.3-3.7 3.2-3.2 8.7 2.3 11-2.3 0.4-1 0.6-2 0.5-3l0.8-0.3 1.1 1.8c-0.2 1.1 0.2 3.1-0.5 4.4-2.4 3.8-7.9 3-10.3 6.4-2.3 3.4 3.3 4.2 6.1 5.5 8.5 3.6 17 6.9 23 14.3l1.1 1.9c0.5 0.7-0.8 1.5-1.3 0.7z"/>
					<path id="&lt;Path&gt;" class="s4" d="m141.6 88.6l15.5-5.5c0.1 1-0.1 2-0.5 3-2.3 4.6-7.8-0.9-11 2.3-0.4 0.9-1.3 2.3-1.3 3.7-2 0-2.5-1.7-2.7-3.5z"/>
					<path id="&lt;Path&gt;" class="s4" d="m176.7 132.7q0.3 0.5 0.6 1.1l-21.8 7.4q-0.2-1.9 0.2-4c0.4-2.7 1.3-8.2 5.4-6.4 1 0.5 0 4.6 1.9 3.2 4.1-2.7 10-5.9 13.7-1.3z"/>
					<path id="&lt;Path&gt;" class="s5" d="m182.2 132.2l-4.9 1.6q-0.3-0.6-0.6-1.1c-3.7-4.6-9.6-1.4-13.7 1.3-1.9 1.4-0.9-2.7-1.9-3.2-4.1-1.8-5 3.7-5.4 6.4q-0.4 2.1-0.2 4l-1.7 0.6-7.4-27c1.8 0.7 3.4 1.6 4.6 3 2.8 3 1 11 7 9.3 4.2-0.9 5.1-1.5 9.5-1.4 4.8 0.3 10.3 0.6 12 2.1q1 1 1.8 2.3 0.5 1 0.9 2.1z"/>
					<path id="&lt;Path&gt;" class="s3" d="m156.6 123.8c4.8 0.1 19.5-0.6 24.3 3.1-4.4 0-18.7-0.7-22.9 0.2-6 1.7-4.2-6.3-7-9.3-1.2-1.4-2.8-2.3-4.6-3l-0.9-3.2c1.5-0.3 3-0.9 4.1-1.4 3.3-1.3 7.5 2.1 11.7 1.3 5.5-0.9 11.1 2.1 15.8 6.3 0.4 0.6 1.8 0.1 1.3-0.7l1.5 2.4c-2 0.9-4.8 0.9-6.1 0-6-4.6-13.5-9.3-20-4.2-2.8 2.1-1.4 8 2.8 8.5z"/>
					<path id="&lt;Path&gt;" class="s3" d="m183.7 131.7l-1.5 0.5q-0.4-1.1-0.9-2.1c-0.6-0.9-2-2.7-5.3-3.3 4.7-1.5 6.5 3.3 7.7 4.9z"/>
					<path id="&lt;Path&gt;" class="s2" d="m186.5 130.7l-2.8 1c-1.2-1.6-2.6-3.6-4.2-4.6-2.6-1.4-4.9-1.7-8-2.1-4.8-1-10.1-1.1-14.9-1.2-4.2-0.5-5.6-6.4-2.8-8.5 6.5-5.1 14-0.4 20 4.2 1.3 0.9 4.1 0.9 6.1 0z"/>
				</g>
				<g id="&lt;Group&gt;" style="mix-blend-mode: multiply">
					<path id="&lt;Path&gt;" class="s12" d="m96.7 95l-2.3-0.5 0.4-1.4 2.3 0.5z"/>
					<path id="&lt;Path&gt;" class="s12" d="m96.7 95l-2.3-0.5 0.4-1.4 2.3 0.5z"/>
					<path id="&lt;Path&gt;" class="s12" d="m98.4 93.3l-1.6-0.4 0.3-1 1.6 0.4z"/>
					<path id="&lt;Path&gt;" class="s12" d="m95.6 92.9l-2.2-0.5 0.4-1.5 2.2 0.6z"/>
					<path id="&lt;Path&gt;" class="s12" d="m93.6 93.5l-1.1-0.2 0.2-0.7 1.2 0.2z"/>
					<path id="&lt;Path&gt;" class="s12" d="m94.5 90.7l-2.3-0.5 0.5-1.4 2.2 0.5z"/>
					<path id="&lt;Path&gt;" class="s12" d="m90.1 90.7l-1.1-0.3 0.2-0.7 1.1 0.3z"/>
					<path id="&lt;Path&gt;" class="s12" d="m91.6 93.6l-1.6-0.4 0.3-1 1.6 0.4z"/>
					<path id="&lt;Path&gt;" class="s12" d="m92.8 92.2l-2.2-0.5 0.4-1.4 2.3 0.5z"/>
					<path id="&lt;Path&gt;" class="s12" d="m100.2 93l-1.1-0.2 0.2-0.8 1.1 0.3z"/>
				</g>
				<g id="&lt;Group&gt;">
					<path id="&lt;Path&gt;" class="s13" d="m96.6 94.6l-2.2-0.5 0.4-1.5 2.2 0.5z"/>
					<path id="&lt;Path&gt;" class="s13" d="m96.6 94.6l-2.2-0.5 0.4-1.5 2.2 0.5z"/>
					<path id="&lt;Path&gt;" class="s13" d="m98.4 92.9l-1.7-0.4 0.4-1 1.6 0.4z"/>
					<path id="&lt;Path&gt;" class="s13" d="m95.5 92.5l-2.2-0.6 0.4-1.4 2.3 0.5z"/>
					<path id="&lt;Path&gt;" class="s13" d="m93.6 93.1l-1.1-0.2 0.2-0.8 1.1 0.3z"/>
					<path id="&lt;Path&gt;" class="s13" d="m94.4 90.3l-2.2-0.5 0.4-1.4 2.3 0.5z"/>
					<path id="&lt;Path&gt;" class="s13" d="m90.1 90.3l-1.2-0.3 0.3-0.7 1.1 0.3z"/>
					<path id="&lt;Path&gt;" class="s13" d="m91.5 93.2l-1.6-0.4 0.3-1 1.6 0.4z"/>
					<path id="&lt;Path&gt;" class="s13" d="m92.8 91.8l-2.3-0.5 0.5-1.4 2.2 0.5z"/>
					<path id="&lt;Path&gt;" class="s13" d="m100.2 92.6l-1.1-0.3 0.2-0.7 1.1 0.3z"/>
				</g>
				<g id="&lt;Group&gt;" style="mix-blend-mode: multiply">
					<path id="&lt;Path&gt;" class="s14" d="m157.1 110.4l-2.2 0.7-0.8-2 2.2-0.7z"/>
					<path id="&lt;Path&gt;" class="s14" d="m158.2 107.6l-1.6 0.5-0.5-1.4 1.6-0.5z"/>
					<path id="&lt;Path&gt;" class="s14" d="m156.1 107.8l-2.2 0.6-0.7-2 2.2-0.6z"/>
					<path id="&lt;Path&gt;" class="s14" d="m148.7 111.3l-1.1 0.3-0.3-1 1.1-0.3z"/>
					<path id="&lt;Path&gt;" class="s14" d="m151.4 110.3l-2.2 0.6-0.7-1.9 2.2-0.7z"/>
					<path id="&lt;Path&gt;" class="s14" d="m161.3 108.1l-2.2 0.6-0.8-2 2.2-0.6z"/>
					<path id="&lt;Path&gt;" class="s14" d="m154 111l-1.5 0.5-0.6-1.4 1.6-0.5z"/>
					<path id="&lt;Path&gt;" class="s14" d="m153.6 109.1l-2.2 0.6-0.7-2 2.2-0.6z"/>
					<path id="&lt;Path&gt;" class="s14" d="m162.5 106.9l-1 0.3-0.4-0.9 1.1-0.4z"/>
				</g>
				<g id="&lt;Group&gt;">
					<path id="&lt;Path&gt;" class="s13" d="m157.1 110l-2.2 0.7-0.8-2 2.2-0.7z"/>
					<path id="&lt;Path&gt;" class="s13" d="m158.2 107.2l-1.6 0.5-0.5-1.4 1.6-0.5z"/>
					<path id="&lt;Path&gt;" class="s13" d="m156.1 107.3l-2.2 0.7-0.7-2 2.2-0.6z"/>
					<path id="&lt;Path&gt;" class="s13" d="m148.7 110.9l-1.1 0.3-0.3-1 1.1-0.3z"/>
					<path id="&lt;Path&gt;" class="s13" d="m151.4 109.9l-2.2 0.6-0.7-2 2.2-0.6z"/>
					<path id="&lt;Path&gt;" class="s13" d="m161.3 107.6l-2.2 0.7-0.8-2 2.2-0.6z"/>
					<path id="&lt;Path&gt;" class="s13" d="m154 110.6l-1.5 0.5-0.6-1.4 1.6-0.5z"/>
					<path id="&lt;Path&gt;" class="s13" d="m153.6 108.7l-2.2 0.6-0.7-2 2.2-0.6z"/>
					<path id="&lt;Path&gt;" class="s13" d="m162.5 106.5l-1 0.3-0.4-1 1.1-0.3z"/>
				</g>
				<g id="&lt;Group&gt;" style="mix-blend-mode: multiply">
					<path id="&lt;Path&gt;" class="s12" d="m101.5 131.2l-1.3 0.4-0.5-1.1 1.3-0.5z"/>
					<path id="&lt;Path&gt;" class="s12" d="m106.2 130.5l-1.8 0.6-0.7-1.6 1.8-0.7z"/>
					<path id="&lt;Path&gt;" class="s12" d="m102.5 129.3l-2.5 0.8-0.9-2.2 2.4-0.9z"/>
					<path id="&lt;Path&gt;" class="s12" d="m96.4 131.4l-1.2 0.4-0.5-1.1 1.3-0.5z"/>
					<path id="&lt;Path&gt;" class="s12" d="m118.2 124.7l-1.8 0.6-0.7-1.6 1.8-0.6z"/>
					<path id="&lt;Path&gt;" class="s12" d="m98.5 132.4l-1.5 0.6-0.5-1.4 1.4-0.5z"/>
					<path id="&lt;Path&gt;" class="s12" d="m113.9 126.9l-1.2 0.4-0.5-1.1 1.3-0.5z"/>
					<path id="&lt;Path&gt;" class="s12" d="m112.2 128.1l-2.5 0.9-1-2.3 2.5-0.9z"/>
					<path id="&lt;Path&gt;" class="s12" d="m113.4 124.8l-1.8 0.6-0.7-1.6 1.8-0.7z"/>
					<path id="&lt;Path&gt;" class="s12" d="m109.9 125.4l-1.5 0.5-0.6-1.4 1.6-0.5z"/>
					<path id="&lt;Path&gt;" class="s12" d="m103.6 131.1l-1.2 0.4-0.5-1.1 1.2-0.4z"/>
					<path id="&lt;Path&gt;" class="s12" d="m105.6 128.2l-2.4 0.9-1-2.3 2.5-0.9z"/>
					<path id="&lt;Path&gt;" class="s12" d="m99 130.2l-1.6 0.5-0.6-1.4 1.6-0.5z"/>
					<path id="&lt;Path&gt;" class="s12" d="m108.7 128.9l-1.8 0.7-0.7-1.7 1.8-0.6z"/>
					<path id="&lt;Path&gt;" class="s12" d="m108.1 126.7l-1.9 0.6-0.7-1.6 1.9-0.7z"/>
					<path id="&lt;Path&gt;" class="s12" d="m115.6 125.9l-1.2 0.5-0.5-1.2 1.2-0.4z"/>
				</g>
				<g id="&lt;Group&gt;">
					<path id="&lt;Path&gt;" class="s13" d="m101.7 130.6l-1.2 0.4-0.5-1.1 1.2-0.5z"/>
					<path id="&lt;Path&gt;" class="s13" d="m106.4 129.8l-1.8 0.7-0.7-1.7 1.8-0.6z"/>
					<path id="&lt;Path&gt;" class="s13" d="m102.7 128.6l-2.5 0.9-0.9-2.3 2.5-0.8z"/>
					<path id="&lt;Path&gt;" class="s13" d="m96.7 130.7l-1.3 0.5-0.5-1.2 1.3-0.4z"/>
					<path id="&lt;Path&gt;" class="s13" d="m118.4 124.1l-1.8 0.6-0.7-1.6 1.9-0.7z"/>
					<path id="&lt;Path&gt;" class="s13" d="m98.7 131.8l-1.4 0.5-0.6-1.3 1.5-0.5z"/>
					<path id="&lt;Path&gt;" class="s13" d="m114.2 126.2l-1.3 0.5-0.5-1.2 1.3-0.4z"/>
					<path id="&lt;Path&gt;" class="s13" d="m112.4 127.4l-2.5 0.9-0.9-2.2 2.5-0.9z"/>
					<path id="&lt;Path&gt;" class="s13" d="m113.6 124.2l-1.8 0.6-0.7-1.7 1.8-0.6z"/>
					<path id="&lt;Path&gt;" class="s13" d="m110.2 124.7l-1.6 0.6-0.5-1.4 1.5-0.5z"/>
					<path id="&lt;Path&gt;" class="s13" d="m103.8 130.5l-1.2 0.4-0.5-1.1 1.2-0.5z"/>
					<path id="&lt;Path&gt;" class="s13" d="m105.9 127.5l-2.5 0.9-1-2.2 2.5-0.9z"/>
					<path id="&lt;Path&gt;" class="s13" d="m99.2 129.6l-1.5 0.5-0.6-1.4 1.5-0.6z"/>
					<path id="&lt;Path&gt;" class="s13" d="m109 128.3l-1.8 0.6-0.7-1.6 1.8-0.6z"/>
					<path id="&lt;Path&gt;" class="s13" d="m108.3 126l-1.8 0.7-0.7-1.7 1.8-0.6z"/>
					<path id="&lt;Path&gt;" class="s13" d="m115.9 125.3l-1.3 0.4-0.5-1.1 1.3-0.4z"/>
				</g>
				<g id="&lt;Group&gt;">
					<path id="&lt;Path&gt;" class="s15" d="m163.7 137c-0.8-0.5-1.9-0.9-3.5-1.1q-0.8-0.2-1.7-0.3-1.3-0.2-2.7-0.4c-1-0.2-1.8-0.4-2.5-0.7q-0.2-0.1-0.4-0.2-0.1-0.1-0.2-0.1l-0.6-0.3q-0.5-0.3-1-0.7h-0.1q-0.4-0.3-0.8-0.6-0.1-0.1-0.3-0.2-0.1-0.2-0.3-0.3-0.3-0.3-0.7-0.7-1-1-1.7-2.2c-0.8-1.4-1.4-3.1-1.8-5.4q-0.2-0.8-0.3-1.6c-0.2-1.3-0.5-2.6-0.8-3.8q-0.9-2.8-2.6-4.5-0.9-0.9-2-1.5-0.9-0.6-2.2-0.9c-1.2-0.3-2.3-0.4-3.4-0.5q-0.5 0-1-0.1c-1.4-0.1-2.8-0.3-3.8-1-0.5-0.3-0.8-0.7-1.1-1.3-0.2-0.4-0.3-0.9-0.4-1.3 0-0.8 0-1.4 0.1-1.8v-0.2l0.1-0.7 0.4 0.1-0.1 0.8c0 0.4-0.1 1 0 1.7 0.1 0.4 0.1 0.8 0.4 1.2q0.3 0.7 0.9 1.1c0.9 0.6 2.2 0.8 3.5 0.9q0.5 0 1 0.1c1.2 0 2.3 0.1 3.6 0.4q1.3 0.4 2.3 1 1.1 0.6 2.1 1.6c1.2 1.1 2.2 2.7 2.8 4.7 0.4 1.2 0.7 2.6 0.9 3.8q0.2 0.8 0.3 1.7c0.5 2.2 1 3.7 1.8 5.1q0.7 1.1 1.6 2 0.3 0.4 0.7 0.7 0.1 0.1 0.3 0.2 0.1 0.1 0.3 0.2 0.3 0.3 0.7 0.6h0.1q0.5 0.3 1 0.6l0.5 0.3q0.1 0 0.2 0.1 0.2 0.1 0.4 0.1c0.6 0.3 1.3 0.5 2.3 0.7q1.3 0.2 2.6 0.4 0.9 0.1 1.8 0.2c1.7 0.3 2.9 0.7 3.8 1.2q0.8 0.5 1.4 1.1 0.1 0.2 0.2 0.4-0.5 0.1-1 0.3 0 0 0 0-0.4-0.5-1.1-0.9z"/>
					<path id="&lt;Path&gt;" class="s15" d="m121.6 118.2q0 0.3 0 0.6 0 0.3 0 0.6 0 0.2 0 0.3l-0.1 0.2q0 0.2 0 0.3l-0.1 0.6c-0.3 1.6-1.1 3.2-2.2 4.7-1.3 1.7-3 3.3-5 4.6-2.1 1.4-4.5 2.7-7.1 3.8-2.9 1.1-5.8 2-8.6 2.6q-2.2 0.6-4.6 0.9c-1.8 0.2-3.3 0.3-4.8 0.3h-0.1q-1.3 0-2.5-0.1-0.4-0.1-0.8-0.1-0.2-0.1-0.4-0.1-0.4-0.1-0.8-0.1l-0.4-0.1c-1.4-0.3-2.9-0.7-4.8-1.3-2.8-0.8-5.7-1.9-9.3-3.4q-1.1-0.5-2.3-1c-2.2-0.9-4.4-1.8-6.5-2.6-3.3-1.2-6-2-8.5-2.4-2.7-0.4-5.3-0.5-7.8-0.1q-3.2 0.4-6.4 1.7l-0.2 0.1q-0.2 0.1-0.4 0.2l-1.9 0.8q-0.4 0.2-0.8 0.5-0.7 0.3-1.2 0.7l-1.7 1q-0.4 0.2-0.8 0.5-0.2 0.1-0.3 0.2l-1.2 0.8q0.2-0.3 0.5-0.6 0-0.1 0.1-0.1 0.5-0.6 1-1.2 0.3-0.4 0.6-0.8l1.2-0.7q0.7-0.4 1.4-0.7 0.4-0.3 0.8-0.5l1.9-0.9q0.2-0.1 0.4-0.1l0.3-0.1c2.1-0.9 4.4-1.5 6.6-1.8 2.6-0.3 5.3-0.3 8.1 0.2 2.5 0.4 5.3 1.2 8.6 2.5 2.2 0.8 4.3 1.7 6.5 2.7q1.2 0.5 2.3 1c3.6 1.5 6.5 2.6 9.2 3.4 1.9 0.6 3.3 1 4.7 1.3h0.5q0.3 0.1 0.7 0.2 0.2 0 0.4 0.1 0.4 0 0.8 0.1 1.1 0.1 2.4 0.1c1.5 0 3-0.1 4.8-0.3q2.4-0.3 4.6-0.8c2.8-0.6 5.6-1.5 8.4-2.6 2.6-1 5-2.2 7.1-3.6 1.9-1.3 3.6-2.9 4.9-4.5 1.1-1.4 1.8-3 2.1-4.5l0.1-0.5q0.1-0.2 0.1-0.3v-0.2q0-0.2 0-0.3 0-0.3 0-0.6 0-0.3 0-0.5 0-0.5 0-0.9l-0.2-1.1 0.4-0.1 0.2 1.2q0.1 0.3 0.1 0.8z"/>
					<path id="&lt;Path&gt;" class="s15" d="m112.3 101.7l-0.6 0.6-0.6-0.4q-0.5-0.4-1.1-0.6c-0.6-0.2-1.3-0.2-2 0q-1.1 0.2-2.5 1.1-1 0.6-2.1 1.3l-0.7 0.5c-0.5 0.3-1 0.7-1.6 1-0.6 0.3-1.2 0.6-1.9 0.8q-0.5 0.1-0.9 0.1-0.7 0-1.3-0.3-0.2-0.1-0.4-0.2 0-0.1-0.1-0.1-0.2-0.2-0.3-0.3-0.1 0-0.1-0.1-0.2-0.1-0.3-0.3 0-0.1-0.1-0.1-0.2-0.2-0.3-0.5c-0.2-0.4-0.3-0.8-0.3-1.2q0.1-0.6 0.5-1.2c0.4-0.6 0.9-1.2 1.4-1.6q0.6-0.6 1.2-1.1c0.7-0.6 1.3-1.1 1.9-1.7 0.4-0.5 0.9-1 1.2-1.6q0.4-0.8 0.4-1.8c0.1-1.1-0.2-2.2-0.9-3.5q-0.5-0.8-1.1-1.6-0.2-0.3-0.4-0.7 0.4 0.2 0.8 0.4 0.1 0 0.1 0 0.5 0.8 1 1.6c0.8 1.4 1.2 2.6 1.1 3.8q0 1.2-0.5 2.1c-0.3 0.6-0.8 1.2-1.2 1.7-0.6 0.6-1.3 1.2-1.9 1.8q-0.6 0.5-1.2 1.1c-0.6 0.5-1 1-1.3 1.5q-0.3 0.5-0.4 0.8 0 0.5 0.2 0.8c0.1 0.2 0.2 0.3 0.2 0.4q0.1 0.1 0.2 0.1 0.1 0.2 0.2 0.3 0 0 0.1 0.1 0.1 0.1 0.2 0.2 0.1 0 0.2 0.1 0.1 0 0.2 0.1c0.6 0.3 1.3 0.2 1.7 0.1 1.2-0.3 2.1-0.9 3.1-1.6l0.8-0.5q1.1-0.8 2.2-1.5 1.5-0.9 2.8-1.2c0.8-0.2 1.7-0.2 2.4 0.1q0.8 0.2 1.4 0.7z"/>
					<path id="&lt;Path&gt;" class="s15" d="m180.5 132.7q-0.5 0.1-0.9 0.3c0-0.4-0.1-0.8-0.2-1.3-0.2-0.5-0.4-1.1-1.1-1.6q-0.8-0.7-2.3-1.1-1.2-0.3-3-0.4c-1.9-0.1-4-0.1-6.2-0.1q-0.7 0.1-1.4 0.1c-1.4 0-2.9 0-4.4-0.1-1.3 0-3-0.1-4.8-0.5-2-0.5-3.4-1.1-4.6-2.1-1.4-1.3-2.5-2.6-3.5-4-0.6-0.9-1-1.6-1.2-2.4-0.4-1.1-0.3-2.1 0-2.9q0.3-0.7 0.9-1.2 0.5-0.5 1.2-0.9 1.1-0.6 2.6-1.1c2.4-0.7 4.9-1.1 7.4-1.4 1.2-0.2 2.4-0.4 3.6-0.6 1.1-0.2 1.9-0.4 2.7-0.6q0.7-0.3 1.2-0.5 0.7-0.4 1-0.8 0.1-0.3 0.1-0.5c0.1-0.2 0-0.3 0-0.6q-0.2-0.5-0.6-1.1-0.7-0.9-2-1.6c-1.7-0.9-3.5-1.4-5.1-1.8-1.3-0.3-2.7-0.6-3.9-0.9q-0.7-0.1-1.3-0.2c-1.9-0.4-3.5-0.8-5.1-1.3-0.6-0.3-1.5-0.6-2.3-1.1-0.8-0.6-1.3-1.4-1.5-2.2-0.2-0.9 0.1-1.8 0.4-2.4 0.3-0.7 0.8-1.3 1.4-2 1.1-1 2.4-1.6 3.6-2.3l0.4-0.2c1.2-0.5 2.3-1.1 3.1-1.9q0.2-0.3 0.4-0.5 0.1-0.2 0.1-0.3 0.3-0.4 0.4-0.7c0.1-0.5 0.2-1 0.2-1.7 0-0.9-0.1-1.7-0.2-2.5q0.3 0 0.5-0.2c0.1 0.9 0.2 1.8 0.2 2.7 0 0.7-0.1 1.3-0.3 1.8q-0.1 0.4-0.3 0.9-0.1 0.1-0.2 0.2-0.2 0.3-0.5 0.6c-0.8 0.9-2 1.5-3.1 2.1l-0.4 0.2c-1.2 0.6-2.5 1.2-3.5 2.2-0.6 0.6-1 1.2-1.3 1.8-0.2 0.5-0.5 1.3-0.3 2.1 0.1 0.7 0.5 1.3 1.2 1.8 0.8 0.5 1.6 0.8 2.2 1 1.5 0.6 3.1 0.9 5 1.3q0.6 0.1 1.3 0.3c1.3 0.2 2.6 0.5 3.9 0.8 1.7 0.4 3.6 0.9 5.3 1.8q1.4 0.8 2.2 1.8 0.5 0.7 0.7 1.4c0.2 0.4 0.2 1.1-0.2 1.6-0.3 0.5-0.8 0.8-1.2 1-0.3 0.2-0.8 0.3-1.3 0.5-0.8 0.2-1.7 0.5-2.8 0.7-1.2 0.2-2.4 0.4-3.6 0.6-2.5 0.3-5 0.7-7.3 1.4q-1.4 0.5-2.5 1.1-1.3 0.7-1.7 1.7c-0.4 0.8-0.2 1.7 0 2.4 0.2 0.6 0.6 1.4 1.2 2.2q1.3 2 3.3 3.8c1.1 0.9 2.5 1.5 4.3 1.9 1.7 0.4 3.3 0.5 4.6 0.5 1.5 0.1 3 0.1 4.3 0q0.8 0 1.5 0c2.2 0 4.3-0.1 6.2 0q1.9 0.1 3.3 0.5 1.6 0.4 2.6 1.2 0.5 0.4 0.8 1 0.4 0.5 0.5 1 0.2 0.7 0.3 1.3z"/>
					<path id="&lt;Path&gt;" class="s15" d="m113.2 106.8l-0.6 0.7-0.7-0.6c-0.2-0.2-0.8-0.6-1.5-0.8-0.4-0.1-0.7-0.2-1.3-0.3q-0.7 0-1.5 0.1c-1 0.1-2.1 0.4-3.6 1q-0.6 0.3-1.3 0.5c-0.9 0.4-1.9 0.9-3 1.2-1 0.3-1.8 0.5-2.6 0.5q-0.1 0-0.2 0c-0.4 0-0.8 0-1.2-0.1q-0.2 0-0.4-0.1-0.5 0-0.9-0.1l-0.1-0.1q-0.6-0.1-1.3-0.3c-0.3-0.1-0.7-0.3-1-0.4l-0.3-0.1q-1.5-0.8-2.2-2-0.7-1.1-0.8-2.8c-0.1-0.9-0.1-1.8 0-2.6v-0.3c0-1.7 0-3.7-0.6-5.5-0.1-0.4-0.3-0.7-0.5-1.1l-0.1-0.1-0.1-0.2q-0.3-0.5-0.6-0.9c-0.2-0.3-0.5-0.5-0.7-0.7q-0.1-0.2-0.2-0.3-0.5-0.4-1-0.8-0.2-0.1-0.4-0.3-0.4-0.2-0.7-0.4-0.2-0.1-0.4-0.3-0.4-0.2-0.7-0.4l-1.2-0.5-0.6-0.3-0.5-0.1c-1.6-0.4-3.2-0.4-4.5-0.4q-0.7 0-1.3 0.1c-0.9 0-1.8 0.1-2.6 0q-0.5-0.1-0.9-0.3-0.1-0.1-0.2-0.2 0.3 0 0.6-0.2 0.2 0.2 0.5 0.2c0.8 0.1 1.7 0 2.5 0q0.7-0.1 1.4-0.1c1.4-0.1 3-0.1 4.6 0.4l0.9 0.2 0.3 0.2 1.2 0.5q0.4 0.2 0.8 0.4 0.2 0.1 0.4 0.3 0.4 0.2 0.7 0.4 0.2 0.2 0.4 0.3 0.5 0.4 1.1 0.9 0.1 0.1 0.2 0.2 0.4 0.4 0.8 0.8c0.2 0.3 0.4 0.6 0.6 0.9l0.2 0.4c0.2 0.4 0.4 0.8 0.6 1.2 0.7 1.9 0.7 3.9 0.7 5.7v0.3c-0.1 0.8-0.1 1.7 0 2.5q0.1 1.6 0.7 2.5 0.7 1.1 2 1.7l0.2 0.1q0.5 0.2 1 0.4 0.6 0.2 1.1 0.3h0.2q0.4 0.1 0.8 0.2 0.2 0 0.4 0 0.5 0.1 1.3 0.1c0.7 0 1.4-0.2 2.3-0.5 1.1-0.3 2.1-0.7 3-1.1q0.6-0.3 1.3-0.6c1.5-0.6 2.7-1 3.8-1.1q0.9-0.1 1.7-0.1c0.6 0.1 1.1 0.2 1.5 0.3 0.7 0.3 1.3 0.6 1.8 1z"/>
				</g>
			</g>
			<path id="Shape 11" fill-rule="evenodd" class="s16" d="m85.3 86.1c-9.2-8.8-3.1-21.4-3.1-21.4 0 0 4.9-11.6 18.2-11.6 13.2 0 17.7 11.6 17.7 11.6 0 0 7.3 12.9-3.2 22.1-9.9 8.7-12 13.7-12 13.7 0 0-1.5 3.5-2.5 3.5-1.4 0-2.7-3.1-2.7-3.1 0 0-1.2-4.1-12.4-14.8zm23.5-12.5c0-4.6-3.7-8.4-8.4-8.4-4.6 0-8.4 3.8-8.4 8.4 0 4.7 3.8 8.5 8.4 8.5 4.7 0 8.4-3.8 8.4-8.5z"/>
		</g>
	</g>
</svg>