<svg version="1.2" xmlns="http://www.w3.org/2000/svg" viewBox="0 0 239 239" width="239" height="239">
	<title>Fire</title>
	<style>
		tspan { white-space:pre } 
		.s0 { fill: #018944 } 
		.s1 { fill: #4c2200 } 
		.s2 { fill: #0e5a00 } 
		.s3 { fill: #83410a } 
		.s4 { fill: #569d1e } 
		.s5 { fill: #fc6e51 } 
	</style>
	<g id="Fire">
		<path id="Layer 32 copy" class="s0" d="m119.1 238.1c-65.9 0-119.1-53.2-119.1-119 0-65.9 53.2-119.1 119.1-119.1 65.8 0 119 53.2 119 119.1 0 65.8-53.2 119-119 119z"/>
		<g id="Folder 2">
			<path id="Layer 5 copy" class="s1" d="m100.1 147.3v35.7h-6.7v-49.9l-14.7-15.9 3.4-3 11.3 11.4v0.1c0 0-1.1 7.4 0.6 12.9 1.6 5.3 6.1 8.7 6.1 8.7z"/>
			<path id="Layer 6 copy" class="s2" d="m83.5 110.4l-1.4-1.2-8.5 8 16.4 17.2v26.5c0 0-4.8 0-8.1-3.2-3.2-3.1-4.9-9.5-4.9-9.5 0 0-9.2-0.1-13.6-8.5-4.4-8.4 1.4-16.2 1.4-16.2 0 0-13.1-3.7-12.2-16.1 0.9-12.9 15.2-14.2 15.2-14.2 0 0-4.1-6.8 0.4-15.3 4.2-8.1 13.9-5.3 13.9-5.3 0 0 1.7-10 12.7-11.6 3-0.5 10 2.2 10 2.2 0 0-4.1 3-6.4 9.3-1.4 4.1 0.3 12.5 0.3 12.5 0 0-10.5 1.3-15 10.5-3.7 7.6-0.2 14.9-0.2 14.9z"/>
			<path id="Layer 5" class="s3" d="m133.2 194.3v-61.9l-16.6-18.1 3.8-3.4 12.8 12.9v-29.1h7.7v47.2l8.5-8.1 4.3 4.3-12.4 12.4-0.4 43.8z"/>
			<path id="Layer 6" class="s4" d="m120.2 160.3c-3.7-3.5-5.5-10.8-5.5-10.8 0 0-10.5-0.1-15.5-9.6-5-9.6 1.6-18.5 1.6-18.5 0 0-14.9-4.2-13.9-18.3 1.1-14.5 17.3-16 17.3-16 0 0-4.6-7.7 0.4-17.4 4.8-9.1 15.8-6 15.8-6 0 0 1.8-12.1 14.4-13.1 9-0.8 9.1 1.3 9.1 1.3 0 0-7.9 6.7-4.1 22 1.7 6.6 6.6 10 12.1 12.4 3.4 1.5 6 2 9.9 1.8 3.5-0.1 9.1-2.2 9.1-2.2 0 0 10.5 1.8 13.4 14.9 2.7 12-9.1 19.7-9.1 19.7 0 0 8.1 7.7 3.1 19.5-5 11.6-18.4 8.6-18.4 8.6 0 0-0.5 6-4 9.9-3.4 3.7-9.8 5.3-9.8 5.3v-10l14.3-15.7-10.5-10-5.2 4.8v-42.5h-15.3v23.4l-9-8.6-9.6 9.1 18.6 19.5v30c0 0-5.5 0.1-9.2-3.5z"/>
			<path id="Shape 5" class="s5" d="m156.5 83.3c0 0-9.9-2.2-12.6-9.5-4.3-11.5 3.1-20 3.1-20 0 0 0.2 2.8 1 4.3 0.8 1.4 2.3 1.4 2.3 1.4 0 0 1.1-5.6 3-8.8 2.9-4.7 6.6-6.9 6.6-6.9 0 0-2.2 10.5 2.8 12.4 4.9 2 7.2-5.3 7.2-5.3 0 0 11.5 5.8 9 20.1-1.9 10.2-12.8 12.3-12.8 12.3 0 0 3.2-2.8 3.1-8.1 0-4-2.6-7.1-2.6-7.1 0 0-1.9 6.7-6.3 5.6-6.2-1.6-5.1-11.6-5.1-11.6 0 0-4.6 4.6-3.5 11.9 0.9 5.2 4.8 9.3 4.8 9.3z"/>
		</g>
	</g>
</svg>