<svg version="1.2" xmlns="http://www.w3.org/2000/svg" viewBox="0 0 240 240" width="240" height="240">
	<title>Incident Reporting</title>
	<defs>
		<clipPath clipPathUnits="userSpaceOnUse" id="cp1">
			<path d="m99.39 63.69c0-2.11 1.71-3.82 3.82-3.82h33.61c2.11 0 3.82 1.71 3.82 3.82v15.66c0 2.11-2.09 3.82-4.2 3.82h-33.23c-2.11 0-3.82-1.71-3.82-3.82zm64.94 1.53c0 0 2.94-0.13 4.57 1.69 1.24 1.39 1.09 4.79 1.09 4.79v103.49c0 0 0.09 2.99-1.87 4.42-1.68 1.22-5.37 0.93-5.37 0.93l-85.9 0.04c0 0-3.55 0.17-5.06-1.18-1.93-1.75-1.81-5.05-1.81-5.05l0.02-103.45c0 0-0.05-2.75 1.23-4.1 1.39-1.48 4.1-1.59 4.1-1.59h18.34v13h-10.32v89.37h73.72v-89.37h-10.7v-12.99z"/>
		</clipPath>
	</defs>
	<style>
		tspan { white-space:pre } 
		.s0 { fill: #018944 } 
		.s1 { fill: #2a405a } 
		.s2 { fill: #ff583e } 
		.s3 { fill: #9fa8c5 } 
		.s4 { fill: #ffffff } 
	</style>
	<g id="Incident Reporting">
		<path id="Layer 32 copy 7" class="s0" d="m120 240c-66.4 0-120-53.6-120-120 0-66.4 53.6-120 120-120 66.4 0 120 53.6 120 120 0 66.4-53.6 120-120 120z"/>
		<g id="Folder 7">
			<g clip-path="url(#cp1)">
				<path id="Shape 12" class="s1" d="m99.4 63.7c0-2.1 1.7-3.8 3.8-3.8h33.6c2.1 0 3.8 1.7 3.8 3.8v15.7c0 2.1-2 3.8-4.2 3.8h-33.2c-2.1 0-3.8-1.7-3.8-3.8zm64.9 1.5c0 0 3-0.2 4.6 1.7 1.2 1.4 1.1 4.8 1.1 4.8v103.5c0 0 0.1 2.9-1.9 4.4-1.7 1.2-5.3 0.9-5.3 0.9h-86c0 0-3.5 0.2-5-1.1-1.9-1.8-1.8-5.1-1.8-5.1v-103.4c0 0 0-2.8 1.2-4.1 1.4-1.5 4.1-1.6 4.1-1.6h18.4v13h-10.4v89.3h73.8v-89.3h-10.7v-13z"/>
				<path id="Shape 28" class="s2" d="m96 57h48v31h-48z"/>
			</g>
			<path id="Shape 29" class="s3" d="m91 96h60v62h-60z"/>
			<path id="Layer 25" fill-rule="evenodd" class="s4" d="m86.5 85.1c0-2.1 1.7-3.8 3.8-3.8h3.9c0 0 3-0.4 5.7 3.4 1.3 1.8 4.5 1.6 4.5 1.6l32.3-0.1c0 0 2.6 0 3.8-1.9 1.9-3.2 4.6-3 4.6-3h4.7c2.1 0 3.8 1.7 3.8 3.8v75.6c0 2.1-1.7 3.8-3.8 3.8h-59.5c-2.1 0-3.8-1.7-3.8-3.8zm7.8 16.8c0 1.4 1.2 2.6 2.6 2.6h23.7c1.5 0 2.7-1.2 2.7-2.6 0-1.5-1.2-2.7-2.7-2.7h-23.7c-1.4 0-2.6 1.2-2.6 2.7zm0 15.6c0 1.5 1.2 2.7 2.6 2.7h23.7c1.5 0 2.7-1.2 2.7-2.7 0-1.5-1.2-2.7-2.7-2.7h-23.7c-1.4 0-2.6 1.2-2.6 2.7zm0 15.7c0 1.5 1.2 2.6 2.6 2.6h23.7c1.5 0 2.7-1.1 2.7-2.6 0-1.5-1.2-2.7-2.7-2.7h-23.7c-1.4 0-2.6 1.2-2.6 2.7zm0 16c0 1.5 1.2 2.7 2.6 2.7h23.7c1.5 0 2.7-1.2 2.7-2.7 0-1.5-1.2-2.7-2.7-2.7h-23.7c-1.4 0-2.6 1.2-2.6 2.7zm42-47.3c0 1.4 1.2 2.6 2.7 2.6h5.3c1.5 0 2.7-1.2 2.7-2.6 0-1.5-1.2-2.7-2.7-2.7h-5.3c-1.5 0-2.7 1.2-2.7 2.7zm0 31.3c0 1.5 1.2 2.6 2.7 2.6h5.3c1.5 0 2.7-1.1 2.7-2.6 0-1.5-1.2-2.7-2.7-2.7h-5.3c-1.5 0-2.7 1.2-2.7 2.7zm0-15.7c0 1.5 1.2 2.7 2.7 2.7h5.3c1.5 0 2.7-1.2 2.7-2.7 0-1.5-1.2-2.7-2.7-2.7h-5.3c-1.5 0-2.7 1.2-2.7 2.7zm0 31.7c0 1.5 1.2 2.7 2.7 2.7h5.3c1.5 0 2.7-1.2 2.7-2.7 0-1.5-1.2-2.7-2.7-2.7h-5.3c-1.5 0-2.7 1.2-2.7 2.7z"/>
		</g>
	</g>
</svg>