<svg version="1.2" xmlns="http://www.w3.org/2000/svg" viewBox="0 0 239 239" width="239" height="239">
	<title>Patrolling</title>
	<style>
		tspan { white-space:pre } 
		.s0 { fill: #018944 } 
		.s1 { fill: #02c0fc } 
		.s2 { opacity: .5;fill: #ffffff } 
		.s3 { mix-blend-mode: multiply;fill: #e0cfca } 
		.s4 { mix-blend-mode: multiply;fill: #c9c0dd } 
		.s5 { fill: #4c435b } 
		.s6 { fill: #e51400 } 
	</style>
	<g id="Patrolling">
		<path id="Layer 32" class="s0" d="m119.1 238.2c-65.9 0-119.1-53.3-119.1-119.1 0-65.9 53.2-119.1 119.1-119.1 65.8 0 119.1 53.2 119.1 119.1 0 65.8-53.3 119.1-119.1 119.1z"/>
		<g id="&lt;Group&gt;">
			<g id="&lt;Group&gt;">
				<g id="&lt;Group&gt;">
					<g id="&lt;Group&gt;">
						<g id="&lt;Group&gt;">
							<path id="&lt;Path&gt;" class="s1" d="m77.5 173.5c-0.3 1.4-3.2 2.9-6.4 4-3.2 1.1-6.8 2.1-10.1 3.2-7.6 2.6-7.9 5.4-8 8.3-0.1 1.4-1.3 3.1-4.6 4.1-2.2 0.6-4.8 0.8-6.8 0.5q-0.6 0-1.1-0.1c-2.1-0.5-3.1-1.4-3.3-2.4-0.2-1 0.2-2.1 0.7-3.2q0.9-2.1 1.7-4.3c1.3-3 2.9-6.3 8.6-9.1 5.7-2.7 14.9-4.4 22-4 1.6 0.1 3.2 0.3 4.4 0.6 1.9 0.6 3.1 1.4 2.9 2.4z"/>
							<path id="&lt;Path&gt;" class="s2" d="m55.1 173.5c-3.4 0.9-6.2 2.2-7.7 3.5-0.2 0.2-0.5 0.3-0.9 0.3-0.4 0-0.7-0.1-0.5-0.3 1.7-1.5 4.7-2.9 8.4-3.9 0.4-0.1 0.8-0.1 1 0 0.1 0.1 0 0.3-0.3 0.4z"/>
							<path id="&lt;Path&gt;" class="s3" d="m77.5 173.5c-0.3 1.4-3.2 2.9-6.4 4-3.2 1.1-6.8 2.1-10.1 3.2-7.6 2.6-7.9 5.4-8 8.3-0.1 1.4-1.3 3.1-4.6 4.1-2.2 0.6-4.8 0.8-6.8 0.5 1.8-0.1 3.8-0.5 5.2-1.2 2.1-0.9 3-2 3.3-3.1 0.2-1-0.2-2-0.4-3-0.1-0.9 0-2 1.2-3.1 1.4-1.2 4.3-2.3 7.2-3.2 3-0.9 6.2-1.6 9.2-2.5 2.1-0.6 4.1-1.2 5.7-2 1.7-0.8 2.9-1.8 3-2.6 0.1-0.7-0.4-1.3-1.4-1.8 1.9 0.6 3.1 1.4 2.9 2.4z"/>
						</g>
						<g id="&lt;Group&gt;">
							<g id="&lt;Group&gt;">
								<path id="&lt;Path&gt;" class="s1" d="m91.8 169.9c-2.7 1.4-7.2 2.5-9.3 2.1q-0.4-0.1-0.6-0.3c-0.8-0.7 0.9-2.1 3.1-3.2 2.6-1.4 5-1.9 7-1.6q0.1 0.1 0.2 0.1c2.1 0.4 2.3 1.5-0.4 2.9z"/>
								<path id="&lt;Path&gt;" class="s3" d="m91.8 169.9c-2.7 1.4-7.2 2.5-9.3 2.1q-0.4-0.1-0.6-0.3c0.4 0.1 1 0.1 1.6 0.1 0.7-0.1 1.5-0.3 2.2-0.4 1.7-0.4 3.3-0.9 4.6-1.5 1.3-0.5 2.2-1.2 2.4-1.9 0.1-0.4-0.1-0.8-0.7-1.1q0.1 0.1 0.2 0.1c2.1 0.4 2.3 1.5-0.4 2.9z"/>
							</g>
							<g id="&lt;Group&gt;">
								<path id="&lt;Path&gt;" class="s1" d="m82.6 167.8c-1.6 1.2-4.9 2.3-6.8 2.1q-0.8-0.1-1.1-0.3c-0.5-0.5-0.1-1.4 1.1-2.2 1.6-1.2 4-1.9 5.9-1.7q0 0 0 0c1.9 0.2 2.5 0.9 0.9 2.1z"/>
								<path id="&lt;Path&gt;" class="s3" d="m82.6 167.8c-1.6 1.2-4.9 2.3-6.8 2.1q-0.8-0.1-1.1-0.3c0.5 0.1 1.3 0.1 2.1 0 1-0.2 1.9-0.5 2.7-0.8 1.4-0.6 2.6-1.3 3-1.9 0.2-0.5 0-1-0.8-1.2 1.9 0.2 2.5 0.9 0.9 2.1z"/>
							</g>
							<g id="&lt;Group&gt;">
								<path id="&lt;Path&gt;" class="s1" d="m73.5 167.2c-0.8 0.9-3.1 2-4.7 1.9q-0.9 0-1.3-0.2c-0.4-0.3-0.3-0.9 0.3-1.5 0.8-0.9 2.5-1.7 4.1-1.7q0.6 0 1.1 0.1c0.9 0.2 1.2 0.7 0.5 1.4z"/>
								<path id="&lt;Path&gt;" class="s3" d="m73.5 167.2c-0.8 0.9-3.1 2-4.7 1.9q-0.9 0-1.3-0.2c0.4 0 1.1 0 1.6-0.1 0.8-0.1 1.4-0.4 2-0.6 0.9-0.5 1.7-1 2-1.5 0.2-0.3 0.2-0.6-0.1-0.9 0.9 0.2 1.2 0.7 0.5 1.4z"/>
							</g>
							<g id="&lt;Group&gt;">
								<path id="&lt;Path&gt;" class="s1" d="m65.1 167.4c-0.2 0.8-1.6 1.8-3.1 1.9q-0.6 0.1-1 0c-0.8-0.1-1.2-0.6-1.1-1.2 0.2-0.8 1.2-1.5 2.7-1.7q0.6 0 1.1 0c0.9 0.1 1.5 0.4 1.4 1z"/>
								<path id="&lt;Path&gt;" class="s3" d="m65.1 167.4c-0.2 0.8-1.6 1.8-3.1 1.9q-0.6 0.1-1 0 0.3 0 0.6 0c0.5-0.1 1-0.2 1.3-0.4 0.3-0.2 0.6-0.4 0.8-0.5 0.5-0.4 0.9-0.8 0.9-1.2 0-0.4-0.3-0.7-0.9-0.8 0.9 0.1 1.5 0.4 1.4 1z"/>
							</g>
							<g id="&lt;Group&gt;">
								<path id="&lt;Path&gt;" class="s1" d="m57.4 168.8c0.3 0.7-0.5 1.6-1.8 1.8q-0.2 0-0.4 0.1c-1.2 0.1-2.2-0.2-2.4-0.8-0.3-0.6 0.5-1.4 1.8-1.6q0.3-0.1 0.6-0.1c1.1-0.1 2 0.1 2.2 0.6z"/>
								<path id="&lt;Path&gt;" class="s3" d="m57.4 168.8c0.3 0.7-0.5 1.6-1.8 1.8q-0.2 0-0.4 0.1c0.3-0.1 0.6-0.2 0.8-0.3 0.4-0.2 0.6-0.4 0.7-0.6 0-0.3 0-0.6-0.1-0.8-0.1-0.2-0.3-0.4-0.5-0.6q-0.3-0.1-0.9-0.2c1.1-0.1 2 0.1 2.2 0.6z"/>
							</g>
						</g>
					</g>
					<g id="&lt;Group&gt;">
						<path id="&lt;Path&gt;" class="s1" d="m39.8 194.3c-2.7-0.5-4.3-1.5-4.5-2.8 0-0.1 0.6-0.2 0.6 0 0.2 1.2 1.7 2.1 4.3 2.6 0.3 0.1-0.2 0.3-0.4 0.2z"/>
						<path id="&lt;Path&gt;" class="s1" d="m35.9 190q-0.1 0.3-0.2 0.6c0 0.1-0.2 0.1-0.4 0.1q-0.2 0-0.2-0.1 0.1-0.3 0.2-0.6c0-0.1 0.2-0.1 0.4-0.1q0.2 0 0.2 0.1z"/>
					</g>
					<g id="&lt;Group&gt;">
						<path id="&lt;Path&gt;" class="s1" d="m75.6 176.6c-1.9 0.9-4.1 1.7-6.4 2.4-0.3 0.1-0.7 0-0.3-0.1 2.3-0.7 4.4-1.5 6.3-2.4 0.2-0.1 0.7 0 0.4 0.1z"/>
						<path id="&lt;Path&gt;" class="s1" d="m77.5 175.5q0 0-0.1 0.1l-0.6 0.3q-0.1 0.1-0.3 0.1-0.1 0-0.2 0 0 0-0.1-0.1 0.1 0 0.1-0.1 0.3-0.1 0.7-0.3 0.1-0.1 0.2-0.1 0.1 0 0.2 0 0.1 0 0.1 0.1z"/>
					</g>
				</g>
			</g>
			<g id="&lt;Group&gt;">
				<g id="&lt;Group&gt;">
					<g id="&lt;Group&gt;">
						<g id="&lt;Group&gt;">
							<path id="&lt;Path&gt;" class="s1" d="m127.4 163c-1.5 3-7.6 5.9-13.5 8.6q-4.1 1.9-8.2 3.8c-2.1 0.9-4.2 1.9-6.6 2.7-2.5 0.8-5.4 1.4-8.2 1.5-1.6 0.1-3.2 0-4.3-0.4-0.7-0.2-1.2-0.5-1.4-0.9-0.6-1.2 2.3-2.8 5.3-3.9 6.5-2.5 12.5-4.8 12.1-7.9-0.1-1.4-1.1-2.6-1.2-3.9-0.1-1.4 0.8-3 3.7-4.2 3.6-1.4 8.9-1.9 12.9-1.5q1.1 0 2 0.2c5.6 0.8 8.7 3.2 7.4 5.9z"/>
							<path id="&lt;Path&gt;" class="s2" d="m109.7 158.8c-1.7 0.4-3 1-3.7 1.7-0.9 0.8-0.9 1.6-0.7 2.3 0.1 0.3-1.3 0.5-1.4 0.2-0.3-0.8-0.2-1.7 0.8-2.6 0.8-0.7 2.4-1.5 4.4-2 0.3-0.1 0.7-0.1 0.9 0 0.2 0.1 0 0.3-0.3 0.4z"/>
							<path id="&lt;Path&gt;" class="s4" d="m127.4 163c-1.5 3-7.6 5.9-13.5 8.6q-4.1 1.9-8.2 3.8c-2.1 0.9-4.2 1.9-6.6 2.7-2.5 0.8-5.4 1.4-8.2 1.5-1.6 0.1-3.2 0-4.3-0.4 1.2 0.2 2.7 0.2 4.2 0 2.2-0.3 4.2-1 6-1.6 10-3.4 17.8-7.2 24.5-11.5 3.9-2.5 3.6-4.1 3.3-5.7-0.2-1.4-2.1-2.5-4.6-3.3 5.6 0.8 8.7 3.2 7.4 5.9z"/>
						</g>
						<g id="&lt;Group&gt;">
							<g id="&lt;Group&gt;">
								<path id="&lt;Path&gt;" class="s1" d="m110.2 153.3c-0.9 1.5-3.2 3.2-5.9 3.3-0.9 0-1.7-0.2-2.2-0.5-1-0.5-1.3-1.5-0.7-2.5 0.9-1.4 3.5-2.3 6.2-2.4q0.2 0 0.3 0c2.4 0 3.2 0.7 2.3 2.1z"/>
								<path id="&lt;Path&gt;" class="s4" d="m110.2 153.3c-0.9 1.5-3.2 3.2-5.9 3.3-0.9 0-1.7-0.2-2.2-0.5q0.2 0.1 0.5 0.1c0.5 0.1 1.2 0.1 1.9 0 0.6-0.2 1.2-0.4 1.6-0.7 1.3-0.6 2-1.4 2.6-2.2 0.4-0.5 0.7-1 0.5-1.4-0.1-0.3-0.6-0.6-1.3-0.7 2.4 0 3.2 0.7 2.3 2.1z"/>
							</g>
							<g id="&lt;Group&gt;">
								<path id="&lt;Path&gt;" class="s1" d="m120.4 153.6c-1.3 1.1-3.8 2.2-5.8 2.1q-0.9-0.1-1.4-0.5c-0.5-0.5-0.3-1.4 0.6-2.1 1.3-1.2 3.6-1.8 5.6-1.7q0.1 0 0.2 0c1.8 0.2 2.1 1 0.8 2.2z"/>
								<path id="&lt;Path&gt;" class="s4" d="m120.4 153.6c-1.3 1.1-3.8 2.2-5.8 2.1q-0.9-0.1-1.4-0.5c0.4 0.2 1.2 0.2 1.9 0.1 0.9-0.2 1.6-0.5 2.2-0.8 1.1-0.5 2-1.2 2.5-1.8 0.3-0.4 0.2-0.9-0.2-1.3 1.8 0.2 2.1 1 0.8 2.2z"/>
							</g>
							<g id="&lt;Group&gt;">
								<path id="&lt;Path&gt;" class="s1" d="m127 154.6c-1.4 0.9-3.3 1.5-4.7 1.3q-0.6-0.1-0.8-0.4c-0.3-0.4 0.2-1.2 1.2-1.8 1.2-0.8 2.9-1.1 4.2-1.1q0.3 0 0.5 0.1c1.5 0.2 1.1 1-0.4 1.9z"/>
								<path id="&lt;Path&gt;" class="s4" d="m127 154.6c-1.4 0.9-3.3 1.5-4.7 1.3q-0.6-0.1-0.8-0.4c0.3 0.2 0.7 0.3 1.2 0.2 0.6 0 1.3-0.2 1.8-0.4q1.2-0.5 2-1.1c0.5-0.3 1-0.7 1-1 0-0.3-0.2-0.5-0.6-0.6q0.3 0 0.5 0.1c1.5 0.2 1.1 1-0.4 1.9z"/>
							</g>
							<g id="&lt;Group&gt;">
								<path id="&lt;Path&gt;" class="s1" d="m132.2 156.1c-1.7 0.7-3.7 1.1-4.6 0.8q-0.2 0-0.2-0.1c-0.6-0.4 0.4-1.3 1.9-1.9 1.5-0.6 3-0.8 4-0.6q0 0 0 0 0.2 0.1 0.3 0.1c1 0.3 0.3 1-1.4 1.7z"/>
								<path id="&lt;Path&gt;" class="s4" d="m132.2 156.1c-1.7 0.7-3.7 1.1-4.6 0.8q-0.2 0-0.2-0.1c0.3 0.1 0.7 0 1 0q0.9-0.1 1.6-0.3 1.2-0.3 2.1-0.7c0.6-0.3 1.2-0.6 1.4-0.9 0.2-0.2 0.1-0.4-0.2-0.6q0.2 0.1 0.3 0.1c1 0.3 0.3 1-1.4 1.7z"/>
							</g>
							<g id="&lt;Group&gt;">
								<path id="&lt;Path&gt;" class="s1" d="m134 158.6c-1.7 0.5-3.4 0.6-4 0.2q-0.1-0.1-0.1-0.1 0-0.1 0 0c-0.1-0.5 1.1-1.2 2.6-1.6 1.1-0.3 2.1-0.4 2.8-0.4q0.5 0.1 0.9 0.3c0.5 0.4-0.5 1.1-2.2 1.6z"/>
								<path id="&lt;Path&gt;" class="s4" d="m134 158.6c-1.7 0.5-3.4 0.6-4 0.2q-0.1-0.1-0.1-0.1c0.2 0.1 0.6 0.1 1 0.1 0.6 0 1.2-0.1 1.8-0.2 1-0.2 1.9-0.5 2.5-0.9 0.4-0.2 0.7-0.4 0.7-0.5q0-0.2-0.3-0.4-0.2 0-0.3-0.1 0.5 0.1 0.9 0.3c0.5 0.4-0.5 1.1-2.2 1.6z"/>
							</g>
						</g>
					</g>
					<g id="&lt;Group&gt;">
						<path id="&lt;Path&gt;" class="s1" d="m130.1 160.6c0.6 1.3 0.1 2.7-1.4 4.2-0.1 0.1-0.7 0.1-0.5 0 1.4-1.4 1.9-2.8 1.3-4.1-0.1-0.1 0.5-0.2 0.6-0.1z"/>
						<path id="&lt;Path&gt;" class="s1" d="m127.8 165.6q-0.3 0.3-0.7 0.5-0.1 0.1-0.2 0.1-0.2 0-0.2 0-0.1 0-0.1-0.1 0 0 0.1-0.1 0 0-0.1 0.1 0.3-0.2 0.5-0.4 0.1 0 0.1-0.1c0.1 0 0.2-0.1 0.4-0.1 0.1 0 0.2 0.1 0.2 0.1z"/>
					</g>
					<g id="&lt;Group&gt;">
						<path id="&lt;Path&gt;" class="s1" d="m87.8 180.6c-2.1-0.1-3.7-0.5-4.4-1.2-0.1-0.1 0.4-0.3 0.6-0.1 0.7 0.6 2.2 1 4.1 1.1 0.4 0 0 0.2-0.3 0.2z"/>
						<path id="&lt;Path&gt;" class="s1" d="m91.8 180.4c0 0.1-0.1 0.1-0.3 0.1-0.5 0.1-1 0.1-1.4 0.1q-0.2 0-0.2 0-0.1-0.1 0-0.1 0 0 0.1-0.1c0.1 0 0.2 0 0.2 0q0.3 0 0.7 0 0 0 0 0 0 0 0 0 0.1 0 0.1 0 0.1 0 0.2 0 0.1-0.1 0.3-0.1c0.2 0 0.3 0 0.3 0.1z"/>
					</g>
				</g>
			</g>
			<g id="&lt;Group&gt; copy 12">
				<g id="&lt;Group&gt;">
					<g id="&lt;Group&gt;">
						<g id="&lt;Group&gt;">
							<path id="&lt;Path&gt;" class="s1" d="m105.7 141.5c1 1.2-0.6 2.7-2.9 4.1-2.3 1.3-5.2 2.5-7.5 3.8-5.5 3.1-3.2 5.4-0.7 7.8 1.2 1.1 1.6 2.6-1 3.8-1.7 0.8-4.3 1.3-6.6 1.4q-0.6 0-1.2 0c-2.6-0.1-4.5-0.7-5.7-1.5-1.1-0.8-1.7-1.7-2.2-2.6q-1.1-1.9-2.1-3.7c-1.6-2.6-3-5.5 0.4-8.4 3.3-3 11.4-5.5 19.2-6.2 1.7-0.1 3.5-0.1 5.1 0 2.5 0.2 4.5 0.6 5.2 1.5z"/>
							<path id="&lt;Path&gt;" class="s2" d="m82.4 144.5c-2.7 1.1-4.4 2.5-4.7 3.8 0 0.1-0.3 0.3-0.7 0.3-0.3 0.1-0.8 0-0.7-0.1 0.3-1.4 2.1-3 5.1-4.2 0.3-0.2 0.7-0.3 1-0.2 0.2 0.1 0.3 0.2 0 0.4z"/>
							<path id="&lt;Path&gt;" class="s3" d="m105.7 141.5c1 1.2-0.6 2.7-2.9 4.1-2.3 1.3-5.2 2.5-7.5 3.8-5.5 3.1-3.2 5.4-0.7 7.8 1.2 1.1 1.6 2.6-1 3.8-1.7 0.8-4.3 1.3-6.6 1.4 1.8-0.4 3.4-1 4.3-1.7 1.4-1 1.3-2.1 0.6-2.9-0.7-0.9-2.1-1.6-3.1-2.4-1.1-0.7-2-1.6-1.7-2.6 0.3-1.2 2.2-2.4 4.5-3.5 2.2-1.1 4.9-2.2 7.2-3.2 1.6-0.8 3.1-1.6 4.1-2.4 1-0.9 1.3-1.8 0.7-2.5-0.5-0.6-1.6-0.9-3.1-1.2 2.5 0.2 4.5 0.6 5.2 1.5z"/>
						</g>
						<g id="&lt;Group&gt;">
							<g id="&lt;Group&gt;">
								<path id="&lt;Path&gt;" class="s1" d="m117.2 136.7c-1.5 1.5-5.1 3-7.7 2.9q-0.5 0-0.9-0.1c-1.4-0.4-1-1.8 0.2-3 1.5-1.4 3.5-2.2 5.9-2.2q0.1 0 0.2 0c2.5 0.1 3.8 1 2.3 2.4z"/>
								<path id="&lt;Path&gt;" class="s3" d="m117.2 136.7c-1.5 1.5-5.1 3-7.7 2.9q-0.5 0-0.9-0.1c0.5 0 1.1 0 1.7-0.2 0.7-0.1 1.4-0.3 2-0.6 1.3-0.5 2.6-1.1 3.4-1.7 0.8-0.7 1.1-1.3 0.7-1.9-0.2-0.3-0.8-0.6-1.7-0.8q0.1 0 0.2 0c2.5 0.1 3.8 1 2.3 2.4z"/>
							</g>
							<g id="&lt;Group&gt;">
								<path id="&lt;Path&gt;" class="s1" d="m105.7 136.3c-0.6 1.1-2.9 2.4-5.1 2.5q-0.8 0.1-1.4-0.1c-1-0.3-1.4-1.1-0.9-1.9 0.6-1.1 2.4-2 4.5-2.1q0 0 0.1 0c2-0.1 3.4 0.4 2.8 1.6z"/>
								<path id="&lt;Path&gt;" class="s3" d="m105.7 136.3c-0.6 1.1-2.9 2.4-5.1 2.5q-0.8 0.1-1.4-0.1c0.6 0.1 1.5-0.1 2.1-0.2 1-0.3 1.6-0.7 2.1-1.1 0.9-0.6 1.6-1.3 1.3-1.9-0.2-0.4-0.8-0.7-1.8-0.8 2-0.1 3.4 0.4 2.8 1.6z"/>
							</g>
							<g id="&lt;Group&gt;">
								<path id="&lt;Path&gt;" class="s1" d="m95.8 137c-0.1 0.8-1.5 2-3.2 2.2q-0.9 0.1-1.5-0.1c-0.8-0.2-1.1-0.6-1.1-1.2 0-0.9 1-1.7 2.7-1.9q0.6-0.1 1.2-0.1c1.1 0.1 1.9 0.4 1.9 1.1z"/>
								<path id="&lt;Path&gt;" class="s3" d="m95.8 137c-0.1 0.8-1.5 2-3.2 2.2q-0.9 0.1-1.5-0.1c0.5 0 1.1-0.1 1.6-0.3 0.6-0.2 1.1-0.4 1.4-0.7 0.6-0.5 1-1 0.8-1.5-0.1-0.3-0.5-0.5-1-0.7 1.1 0.1 1.9 0.4 1.9 1.1z"/>
							</g>
							<g id="&lt;Group&gt;">
								<path id="&lt;Path&gt;" class="s1" d="m87.2 138.2c0.5 0.7 0 1.7-1.5 2q-0.5 0.1-1 0.1c-1 0-1.9-0.3-2.3-0.8-0.6-0.7-0.1-1.4 1.3-1.7q0.5-0.2 1.1-0.2c1-0.1 2 0.1 2.4 0.6z"/>
								<path id="&lt;Path&gt;" class="s3" d="m87.2 138.2c0.5 0.7 0 1.7-1.5 2q-0.5 0.1-1 0.1 0.3 0 0.6-0.1c0.4-0.1 0.8-0.3 1-0.5 0.2-0.2 0.3-0.3 0.3-0.5 0.1-0.4 0.2-0.8-0.2-1.1-0.3-0.2-0.8-0.4-1.6-0.5 1-0.1 2 0.1 2.4 0.6z"/>
							</g>
							<g id="&lt;Group&gt;">
								<path id="&lt;Path&gt;" class="s1" d="m80.5 140.4c0.9 0.5 0.9 1.3-0.2 1.7q-0.2 0-0.4 0.1c-1.1 0.2-2.4 0.1-3.2-0.3-0.9-0.5-0.8-1.2 0.3-1.6q0.3-0.1 0.7-0.1c1-0.2 2.1-0.2 2.8 0.2z"/>
								<path id="&lt;Path&gt;" class="s3" d="m80.5 140.4c0.9 0.5 0.9 1.3-0.2 1.7q-0.2 0-0.4 0.1c0.3-0.1 0.5-0.2 0.6-0.4 0.2-0.2 0.2-0.4 0.1-0.6-0.2-0.2-0.5-0.4-0.8-0.6-0.3-0.1-0.6-0.3-1.1-0.4q-0.5-0.1-1 0c1-0.2 2.1-0.2 2.8 0.2z"/>
							</g>
						</g>
					</g>
					<g id="&lt;Group&gt;">
						<path id="&lt;Path&gt;" class="s1" d="m85.8 163.2c-3.2-0.1-5.8-0.7-7.2-1.7-0.2-0.1 0.4-0.2 0.5-0.1 1.3 0.9 3.9 1.5 6.9 1.5 0.4 0 0.1 0.3-0.2 0.3z"/>
						<path id="&lt;Path&gt;" class="s1" d="m77.7 160.2q0.2 0.2 0.4 0.5c0 0.1-0.1 0.1-0.3 0.2q-0.2 0-0.3-0.1-0.2-0.3-0.3-0.5c-0.1-0.1 0.1-0.2 0.2-0.2q0.3 0 0.3 0.1z"/>
					</g>
					<g id="&lt;Group&gt;">
						<path id="&lt;Path&gt;" class="s1" d="m106.6 144.3q-1.7 1.4-4.4 2.7c-0.3 0.1-0.7 0.1-0.5-0.1 1.8-0.8 3.3-1.7 4.4-2.7 0.2-0.1 0.7-0.1 0.5 0.1z"/>
						<path id="&lt;Path&gt;" class="s1" d="m107.5 143.1q0 0 0 0.1l-0.3 0.4q-0.1 0-0.2 0-0.1 0.1-0.2 0.1-0.1-0.1-0.1-0.1-0.1 0 0-0.1 0.1-0.2 0.3-0.4 0 0 0.1 0 0.1-0.1 0.2-0.1 0.2 0 0.2 0.1z"/>
					</g>
				</g>
			</g>
			<g id="&lt;Group&gt; copy 24">
				<g id="&lt;Group&gt;">
					<g id="&lt;Group&gt;">
						<g id="&lt;Group&gt;">
							<path id="&lt;Path&gt;" class="s1" d="m147.6 126.5c1.3 2.6-2.4 5.8-6 8.7q-2.5 2.1-5 4.1c-1.2 1-2.5 2.1-4.3 3-1.8 1-4.3 1.9-7 2.4-1.7 0.2-3.4 0.3-4.8 0.2-1-0.1-1.8-0.3-2.4-0.6-1.7-0.9-0.2-2.5 1.9-3.8 4.5-2.8 8.6-5.4 5.2-7.9-1.4-1.1-3.5-1.9-4.8-3-1.4-1-1.9-2.4 0-3.8 2.3-1.6 7.5-2.7 11.9-2.9q1.2-0.1 2.3-0.1c6.6-0.1 11.9 1.4 13 3.7z"/>
							<path id="&lt;Path&gt;" class="s2" d="m125.5 125.5c-1.4 0.6-2.2 1.2-2.3 1.9-0.1 0.7 0.5 1.3 1.4 1.9 0.4 0.2-0.9 0.6-1.3 0.3-0.9-0.6-1.7-1.3-1.5-2.1 0.2-0.8 1.1-1.6 2.7-2.2 0.3-0.1 0.7-0.2 1-0.1 0.2 0 0.3 0.2 0 0.3z"/>
							<path id="&lt;Path&gt;" class="s4" d="m147.6 126.5c1.3 2.6-2.4 5.8-6 8.7q-2.5 2.1-5 4.1c-1.2 1-2.5 2.1-4.3 3-1.8 1-4.3 1.9-7 2.4-1.7 0.2-3.4 0.3-4.8 0.2 1.3 0 2.9-0.2 4.2-0.6 2-0.5 3.5-1.3 4.8-2 7.2-4.1 11.7-8.1 14.7-12.4 1.7-2.5 0-3.8-1.8-5.1-1.5-1.1-4.5-1.7-7.8-2 6.6-0.1 11.9 1.4 13 3.7z"/>
						</g>
						<g id="&lt;Group&gt;">
							<g id="&lt;Group&gt;">
								<path id="&lt;Path&gt;" class="s1" d="m121 121c0.4 1.3-0.5 3-3.2 3.4-0.9 0.2-1.8 0.1-2.7 0-1.5-0.4-2.7-1.1-3-2-0.4-1.3 1.5-2.3 4.2-2.7q0.2-0.1 0.3-0.1c2.5-0.3 4 0.2 4.4 1.4z"/>
								<path id="&lt;Path&gt;" class="s4" d="m121 121c0.4 1.3-0.5 3-3.2 3.4-0.9 0.2-1.8 0.1-2.7 0q0.3 0 0.6 0c0.7 0 1.4-0.1 1.9-0.3 0.6-0.2 1-0.5 1.2-0.7 0.7-0.8 0.7-1.5 0.6-2.1 0-0.5-0.2-1-0.8-1.3-0.4-0.2-1.1-0.4-2-0.4 2.5-0.3 4 0.2 4.4 1.4z"/>
							</g>
							<g id="&lt;Group&gt;">
								<path id="&lt;Path&gt;" class="s1" d="m131.8 119.9c-0.3 1.1-1.9 2.3-4.1 2.5q-1 0-1.8-0.2c-1.1-0.4-1.6-1.1-1.5-1.8 0.3-1.1 2.2-1.9 4.3-2.1q0.1 0 0.2 0c2-0.1 3.1 0.6 2.9 1.6z"/>
								<path id="&lt;Path&gt;" class="s4" d="m131.8 119.9c-0.3 1.1-1.9 2.3-4.1 2.5q-1 0-1.8-0.2c0.5 0.1 1.3 0 2-0.2 0.7-0.3 1.2-0.6 1.5-0.9 0.7-0.6 1.1-1.2 0.9-1.8-0.1-0.4-0.6-0.8-1.4-1 2-0.1 3.1 0.6 2.9 1.6z"/>
							</g>
							<g id="&lt;Group&gt;">
								<path id="&lt;Path&gt;" class="s1" d="m139.6 119.9c-0.7 0.9-2.1 1.6-3.7 1.7q-0.8 0-1.2-0.2c-0.7-0.4-0.9-1-0.4-1.7 0.5-0.8 1.9-1.2 3.3-1.4q0.3 0 0.6 0c1.7 0 2 0.7 1.4 1.6z"/>
								<path id="&lt;Path&gt;" class="s4" d="m139.6 119.9c-0.7 0.9-2.1 1.6-3.7 1.7q-0.8 0-1.2-0.2c0.4 0 0.9 0 1.4 0 0.7-0.2 1.1-0.4 1.4-0.6q0.8-0.6 1.2-1.1c0.2-0.4 0.3-0.7 0-1-0.2-0.2-0.6-0.3-1.1-0.4q0.3 0 0.6 0c1.7 0 2 0.7 1.4 1.6z"/>
							</g>
							<g id="&lt;Group&gt;">
								<path id="&lt;Path&gt;" class="s1" d="m146.3 120.5c-1.1 0.7-2.8 1.3-4 1.2q-0.2 0-0.4-0.1c-0.9-0.2-0.6-1.1 0.3-1.7 1-0.7 2.4-1.1 3.6-1q0 0 0 0 0.2 0 0.4 0c1.3 0.1 1.2 0.8 0.1 1.6z"/>
								<path id="&lt;Path&gt;" class="s4" d="m146.3 120.5c-1.1 0.7-2.8 1.3-4 1.2q-0.2 0-0.4-0.1c0.4 0 0.8 0 1.1-0.1q0.8-0.2 1.4-0.5 0.9-0.4 1.5-0.8c0.4-0.3 0.7-0.6 0.6-0.9 0-0.2-0.3-0.4-0.7-0.4q0.2 0 0.4 0c1.3 0.1 1.2 0.8 0.1 1.6z"/>
							</g>
							<g id="&lt;Group&gt;">
								<path id="&lt;Path&gt;" class="s1" d="m150.4 122.2c-1.3 0.6-3 0.9-3.9 0.7q-0.2-0.1-0.3-0.1 0 0 0 0c-0.5-0.3 0.2-1.1 1.3-1.6 0.9-0.4 1.8-0.6 2.5-0.7q0.7 0 1.2 0.1c0.9 0.2 0.5 0.9-0.8 1.6z"/>
								<path id="&lt;Path&gt;" class="s4" d="m150.4 122.2c-1.3 0.6-3 0.9-3.9 0.7q-0.2-0.1-0.3-0.1c0.4 0 0.8 0 1.3 0 0.6-0.1 1.1-0.3 1.6-0.4 0.8-0.3 1.4-0.7 1.8-1.1 0.2-0.2 0.3-0.4 0.2-0.5-0.2-0.1-0.4-0.2-0.7-0.2q-0.1 0-0.4-0.1 0.7 0 1.2 0.1c0.9 0.2 0.5 0.9-0.8 1.6z"/>
							</g>
						</g>
					</g>
					<g id="&lt;Group&gt;">
						<path id="&lt;Path&gt;" class="s5" d="m148.2 124.3c1.8 1 2.7 2.2 2.5 3.5 0 0.2-0.6 0.2-0.6 0.1 0.2-1.3-0.6-2.5-2.3-3.4-0.2-0.1 0.2-0.3 0.4-0.2z"/>
						<path id="&lt;Path&gt;" class="s5" d="m150.4 128.6q0 0.3-0.2 0.5 0 0.1-0.2 0.1-0.1 0-0.2 0-0.1 0-0.1 0 0-0.1 0-0.1 0 0 0 0 0.1-0.1 0.2-0.3 0-0.1 0-0.1c0-0.1 0.1-0.1 0.2-0.1 0.2-0.1 0.3 0 0.3 0z"/>
					</g>
					<g id="&lt;Group&gt;">
						<path id="&lt;Path&gt;" class="s5" d="m123 145.8c-2.3 0.2-4.4 0.1-5.8-0.4-0.2 0 0.3-0.2 0.5-0.1 1.3 0.4 3.3 0.5 5.4 0.3 0.3 0 0.2 0.2-0.1 0.2z"/>
						<path id="&lt;Path&gt;" class="s5" d="m126.9 145.1c0 0.1-0.1 0.2-0.2 0.2-0.4 0.1-0.9 0.2-1.4 0.2q-0.1 0.1-0.2 0-0.1 0-0.1 0 0-0.1 0.1-0.1c0 0 0.1-0.1 0.2-0.1q0.3 0 0.6 0 0 0 0 0 0-0.1 0.1-0.1 0 0 0 0 0.1 0 0.2 0 0.2 0 0.3-0.1c0.2 0 0.3 0 0.4 0z"/>
					</g>
				</g>
			</g>
			<g id="&lt;Group&gt; copy 13">
				<g id="&lt;Group&gt;">
					<g id="&lt;Group&gt;">
						<g id="&lt;Group&gt;">
							<path id="&lt;Path&gt;" class="s1" d="m125.1 110.2c-0.4 1.3-3.2 2.7-6.4 3.7-3.1 1.1-6.6 1.9-9.8 2.9-7.4 2.5-7.8 5.1-8.2 7.9-0.1 1.2-1.3 2.8-4.5 3.7-2.2 0.6-4.7 0.7-6.6 0.5q-0.6-0.1-1-0.2c-2-0.5-2.9-1.3-3.1-2.3-0.1-0.9 0.4-2 0.8-3q1-2 2-4c1.3-2.9 3-6 8.6-8.6 5.6-2.5 14.6-4 21.3-3.5 1.6 0.1 3.1 0.3 4.2 0.6 1.8 0.6 2.9 1.3 2.7 2.3z"/>
							<path id="&lt;Path&gt;" class="s2" d="m103.6 110c-3.3 0.8-6.1 2-7.6 3.2-0.1 0.2-0.5 0.3-0.9 0.3-0.3 0-0.6-0.1-0.4-0.3 1.6-1.4 4.6-2.7 8.2-3.6 0.4-0.1 0.8-0.1 1 0 0.1 0.1 0 0.3-0.3 0.4z"/>
							<path id="&lt;Path&gt;" class="s3" d="m125.1 110.2c-0.4 1.3-3.2 2.7-6.4 3.7-3.1 1.1-6.6 1.9-9.8 2.9-7.4 2.5-7.8 5.1-8.2 7.9-0.1 1.2-1.3 2.8-4.5 3.7-2.2 0.6-4.7 0.7-6.6 0.5 1.7-0.1 3.7-0.5 5-1.1 2.1-0.9 3.1-1.9 3.4-2.9 0.2-1-0.1-1.9-0.2-2.8-0.1-1 0.1-2 1.3-3 1.4-1.1 4.2-2.1 7-3 2.9-0.8 6-1.4 8.9-2.2 2.1-0.5 4.1-1.1 5.7-1.9 1.6-0.7 2.8-1.6 3-2.4 0.1-0.6-0.4-1.2-1.3-1.7 1.8 0.6 2.9 1.3 2.7 2.3z"/>
						</g>
						<g id="&lt;Group&gt;">
							<g id="&lt;Group&gt;">
								<path id="&lt;Path&gt;" class="s1" d="m139 106.9c-2.6 1.3-7.1 2.4-9 1.9q-0.5-0.1-0.7-0.2c-0.7-0.7 1-2 3.2-3.1 2.6-1.2 4.9-1.7 6.8-1.3q0.1 0 0.2 0c1.9 0.4 2.1 1.4-0.5 2.7z"/>
								<path id="&lt;Path&gt;" class="s3" d="m139 106.9c-2.6 1.3-7.1 2.4-9 1.9q-0.5-0.1-0.7-0.2c0.4 0.1 1 0.1 1.6 0 0.7 0 1.5-0.2 2.2-0.3 1.6-0.4 3.1-0.8 4.4-1.3 1.3-0.5 2.2-1.2 2.4-1.8 0.2-0.4 0-0.8-0.6-1q0.1 0 0.2 0c1.9 0.4 2.1 1.4-0.5 2.7z"/>
							</g>
							<g id="&lt;Group&gt;">
								<path id="&lt;Path&gt;" class="s1" d="m130.3 104.9c-1.7 1.1-4.9 2.1-6.7 1.9q-0.7-0.1-1-0.3c-0.5-0.5 0-1.3 1.2-2.1 1.6-1.1 3.9-1.7 5.7-1.6q0 0 0 0c1.8 0.2 2.3 1 0.8 2.1z"/>
								<path id="&lt;Path&gt;" class="s3" d="m130.3 104.9c-1.7 1.1-4.9 2.1-6.7 1.9q-0.7-0.1-1-0.3c0.5 0.1 1.3 0.1 2 0 1-0.1 1.9-0.4 2.7-0.7 1.3-0.6 2.5-1.2 2.9-1.8 0.2-0.5 0-0.9-0.7-1.2 1.8 0.2 2.3 1 0.8 2.1z"/>
							</g>
							<g id="&lt;Group&gt;">
								<path id="&lt;Path&gt;" class="s1" d="m121.6 104.2c-0.9 0.9-3.1 1.8-4.7 1.8q-0.8 0-1.2-0.3c-0.3-0.3-0.2-0.8 0.4-1.3 0.8-0.9 2.5-1.7 4-1.6q0.6 0 1 0.1c0.9 0.2 1.2 0.6 0.5 1.3z"/>
								<path id="&lt;Path&gt;" class="s3" d="m121.6 104.2c-0.9 0.9-3.1 1.8-4.7 1.8q-0.8 0-1.2-0.3c0.4 0.1 1 0.1 1.6 0 0.7-0.1 1.3-0.4 1.9-0.6 0.9-0.4 1.7-0.9 2-1.3 0.2-0.4 0.2-0.7-0.1-0.9 0.9 0.2 1.2 0.6 0.5 1.3z"/>
							</g>
							<g id="&lt;Group&gt;">
								<path id="&lt;Path&gt;" class="s1" d="m113.5 104.3c-0.2 0.8-1.6 1.7-3.1 1.8q-0.5 0-0.9 0c-0.8-0.2-1.2-0.6-1-1.2 0.2-0.8 1.2-1.4 2.7-1.6q0.5 0 1 0c0.9 0.1 1.5 0.4 1.3 1z"/>
								<path id="&lt;Path&gt;" class="s3" d="m113.5 104.3c-0.2 0.8-1.6 1.7-3.1 1.8q-0.5 0-0.9 0 0.3 0 0.6-0.1c0.4 0 0.9-0.2 1.2-0.3 0.3-0.2 0.6-0.3 0.8-0.5 0.5-0.4 0.9-0.8 0.9-1.1 0-0.3-0.2-0.6-0.8-0.8 0.9 0.1 1.5 0.4 1.3 1z"/>
							</g>
							<g id="&lt;Group&gt;">
								<path id="&lt;Path&gt;" class="s1" d="m106 105.6c0.3 0.6-0.5 1.4-1.8 1.6q-0.2 0.1-0.4 0.1c-1.1 0.1-2-0.2-2.3-0.7-0.2-0.7 0.6-1.4 1.8-1.6q0.4 0 0.7 0c1-0.1 1.8 0.1 2 0.6z"/>
								<path id="&lt;Path&gt;" class="s3" d="m106 105.6c0.3 0.6-0.5 1.4-1.8 1.6q-0.2 0.1-0.4 0.1c0.3 0 0.6-0.1 0.8-0.2 0.4-0.2 0.6-0.4 0.7-0.6 0.1-0.3 0-0.5-0.1-0.8-0.1-0.2-0.2-0.4-0.4-0.5q-0.3-0.2-0.8-0.2c1-0.1 1.8 0.1 2 0.6z"/>
							</g>
						</g>
					</g>
					<g id="&lt;Group&gt;">
						<path id="&lt;Path&gt;" class="s1" d="m87.8 129.5c-2.5-0.5-4-1.5-4.1-2.7 0-0.1 0.5-0.2 0.6 0 0.1 1.1 1.5 2 3.9 2.5 0.3 0.1-0.1 0.3-0.4 0.2z"/>
						<path id="&lt;Path&gt;" class="s1" d="m84.3 125.3q-0.1 0.3-0.2 0.6c0 0.1-0.2 0.2-0.3 0.2q-0.3 0-0.2-0.1 0.1-0.3 0.2-0.7c0 0 0.2-0.1 0.3-0.1q0.3 0 0.2 0.1z"/>
					</g>
					<g id="&lt;Group&gt;">
						<path id="&lt;Path&gt;" class="s1" d="m123.1 113.2c-1.9 0.8-4 1.5-6.3 2.1-0.3 0.1-0.6 0-0.3-0.1 2.3-0.6 4.4-1.3 6.2-2.1 0.2-0.1 0.6-0.1 0.4 0.1z"/>
						<path id="&lt;Path&gt;" class="s1" d="m124.9 112.1q0 0 0 0.1l-0.7 0.3q-0.1 0.1-0.2 0.1-0.1 0-0.2 0-0.1-0.1-0.1-0.1 0 0 0.1-0.1 0.3-0.2 0.7-0.3 0-0.1 0.2-0.1 0.1 0 0.2 0 0 0 0 0.1z"/>
					</g>
				</g>
			</g>
			<g id="&lt;Group&gt; copy 26">
				<g id="&lt;Group&gt;">
					<g id="&lt;Group&gt;">
						<g id="&lt;Group&gt;">
							<path id="&lt;Path&gt;" class="s1" d="m177.8 99.9c-2.6 2.9-9.3 5.4-15.7 7.7q-4.4 1.6-8.9 3.2c-2.2 0.8-4.5 1.6-7.1 2.2-2.5 0.7-5.4 1.1-8 1.1-1.5-0.1-2.8-0.3-3.7-0.7-0.6-0.3-0.9-0.6-0.9-1 0-1.2 3.1-2.5 6.3-3.5 6.9-2 13.2-3.9 14.1-7 0.4-1.3-0.1-2.5 0.4-3.8 0.4-1.4 1.9-2.8 5-3.8 3.8-1.3 8.8-1.4 12.3-0.8q0.9 0.1 1.7 0.3c4.8 1.2 6.7 3.6 4.5 6.1z"/>
							<path id="&lt;Path&gt;" class="s2" d="m163.3 94.9c-1.7 0.3-3.2 0.8-4.1 1.4-1 0.7-1.4 1.5-1.4 2.2-0.1 0.3-1.5 0.4-1.4 0.1 0.1-0.8 0.5-1.6 1.7-2.4 1.1-0.7 2.8-1.4 4.8-1.7 0.3-0.1 0.7-0.1 0.8 0 0.1 0.1-0.1 0.3-0.4 0.4z"/>
							<path id="&lt;Path&gt;" class="s4" d="m177.8 99.9c-2.6 2.9-9.3 5.4-15.7 7.7q-4.4 1.6-8.9 3.2c-2.2 0.8-4.5 1.6-7.1 2.2-2.5 0.7-5.4 1.1-8 1.1-1.5-0.1-2.8-0.3-3.7-0.7 1 0.3 2.4 0.3 3.8 0.2 2.1-0.2 4.2-0.7 6.1-1.2 10.3-2.7 18.9-6 26.6-9.7 4.6-2.2 4.9-3.8 5.4-5.4 0.3-1.4-1.1-2.5-3-3.5 4.8 1.2 6.7 3.6 4.5 6.1z"/>
						</g>
						<g id="&lt;Group&gt;">
							<g id="&lt;Group&gt;">
								<path id="&lt;Path&gt;" class="s1" d="m165.9 89.6c-1.4 1.4-4.2 2.8-6.6 2.8-0.9-0.1-1.5-0.3-1.9-0.6-0.7-0.6-0.6-1.5 0.3-2.4 1.4-1.4 4.2-2.1 6.6-2.1q0.2 0 0.4 0c2.1 0.2 2.5 0.9 1.2 2.3z"/>
								<path id="&lt;Path&gt;" class="s4" d="m165.9 89.6c-1.4 1.4-4.2 2.8-6.6 2.8-0.9-0.1-1.5-0.3-1.9-0.6q0.2 0.1 0.4 0.1c0.5 0.1 1.1 0.2 1.8 0.1 0.6-0.1 1.2-0.3 1.7-0.5 1.5-0.6 2.4-1.3 3.2-2 0.5-0.5 1-1 1-1.4 0-0.3-0.3-0.6-0.8-0.8 2.1 0.2 2.5 0.9 1.2 2.3z"/>
							</g>
							<g id="&lt;Group&gt;">
								<path id="&lt;Path&gt;" class="s1" d="m175.1 90.4c-1.7 1.1-4.3 1.9-6.1 1.7q-0.9-0.1-1.1-0.5c-0.3-0.5 0.2-1.4 1.3-2.1 1.7-1 4-1.5 5.7-1.3q0.1 0.1 0.2 0.1c1.6 0.2 1.5 1.1 0 2.1z"/>
								<path id="&lt;Path&gt;" class="s4" d="m175.1 90.4c-1.7 1.1-4.3 1.9-6.1 1.7q-0.9-0.1-1.1-0.5c0.3 0.2 1 0.2 1.7 0.1 0.8-0.1 1.6-0.3 2.3-0.6 1.2-0.4 2.3-1 2.9-1.5 0.5-0.5 0.6-1 0.3-1.3 1.6 0.2 1.5 1.1 0 2.1z"/>
							</g>
							<g id="&lt;Group&gt;">
								<path id="&lt;Path&gt;" class="s1" d="m180.7 91.8c-1.7 0.8-3.7 1.3-4.9 1q-0.5-0.1-0.5-0.4c-0.1-0.5 0.6-1.2 1.8-1.7 1.4-0.7 3-1 4.2-0.8q0.3 0 0.5 0c1.2 0.3 0.5 1.1-1.1 1.9z"/>
								<path id="&lt;Path&gt;" class="s4" d="m180.7 91.8c-1.7 0.8-3.7 1.3-4.9 1q-0.5-0.1-0.5-0.4c0.2 0.1 0.5 0.2 1 0.2 0.6 0 1.2-0.1 1.8-0.3q1.2-0.4 2.2-0.9c0.7-0.3 1.2-0.7 1.3-1q0.1-0.3-0.3-0.5 0.3 0 0.5 0c1.2 0.3 0.5 1.1-1.1 1.9z"/>
							</g>
							<g id="&lt;Group&gt;">
								<path id="&lt;Path&gt;" class="s1" d="m184.8 93.6c-1.8 0.6-3.8 0.8-4.5 0.5q-0.1-0.1-0.2-0.1c-0.3-0.5 0.9-1.2 2.5-1.8 1.6-0.5 3-0.5 3.8-0.3q0 0 0 0 0.2 0 0.3 0.1c0.8 0.4-0.2 1-1.9 1.6z"/>
								<path id="&lt;Path&gt;" class="s4" d="m184.8 93.6c-1.8 0.6-3.8 0.8-4.5 0.5q-0.1-0.1-0.2-0.1c0.3 0 0.6 0 1 0 0.5 0 1.1-0.1 1.6-0.2q1.1-0.2 2.2-0.6c0.6-0.2 1.2-0.4 1.5-0.7 0.2-0.2 0.3-0.5 0-0.6q0.2 0 0.3 0.1c0.8 0.4-0.2 1-1.9 1.6z"/>
							</g>
							<g id="&lt;Group&gt;">
								<path id="&lt;Path&gt;" class="s1" d="m185.4 96.1c-1.7 0.3-3.3 0.3-3.7-0.1q0 0 0-0.1 0 0 0 0c0-0.4 1.4-1 3-1.4 1.1-0.2 2-0.2 2.6-0.1q0.5 0 0.7 0.3c0.4 0.3-0.8 1-2.6 1.4z"/>
								<path id="&lt;Path&gt;" class="s4" d="m185.4 96.1c-1.7 0.3-3.3 0.3-3.7-0.1q0 0 0-0.1c0.1 0.1 0.5 0.2 0.9 0.2 0.5 0.1 1.1 0 1.7-0.1 0.9-0.1 1.9-0.4 2.6-0.7 0.4-0.2 0.7-0.3 0.8-0.5q0.1-0.2-0.1-0.3-0.1-0.1-0.3-0.1 0.5 0 0.7 0.3c0.4 0.3-0.8 1-2.6 1.4z"/>
							</g>
						</g>
					</g>
					<g id="&lt;Group&gt;">
						<path id="&lt;Path&gt;" class="s5" d="m181.1 97.8c0 1.3-1 2.7-2.9 4-0.1 0.1-0.7 0.1-0.5 0 1.9-1.3 2.9-2.7 2.8-3.9 0-0.1 0.6-0.2 0.6-0.1z"/>
						<path id="&lt;Path&gt;" class="s5" d="m177 102.6q-0.3 0.2-0.8 0.4-0.1 0.1-0.2 0.1-0.1 0-0.2 0 0-0.1 0-0.1 0-0.1 0.1-0.1 0 0-0.1 0 0.4-0.1 0.6-0.3 0.1 0 0.1-0.1c0.1 0 0.3-0.1 0.4-0.1 0.1 0 0.2 0.1 0.1 0.2z"/>
					</g>
					<g id="&lt;Group&gt;">
						<path id="&lt;Path&gt;" class="s5" d="m135 114.8c-1.9-0.2-3.2-0.7-3.6-1.5 0-0.1 0.5-0.2 0.6 0 0.4 0.6 1.6 1.1 3.3 1.3 0.3 0.1 0 0.3-0.3 0.2z"/>
						<path id="&lt;Path&gt;" class="s5" d="m138.7 114.8c-0.1 0.1-0.2 0.1-0.4 0.2-0.4 0-0.9 0-1.3-0.1q-0.1 0-0.1 0-0.1 0 0-0.1 0 0 0.1 0c0.1-0.1 0.2-0.1 0.2-0.1q0.3 0.1 0.6 0.1 0 0 0 0 0 0 0.1 0 0 0 0 0 0.1 0 0.2 0 0.2 0 0.3-0.1c0.2 0 0.3 0.1 0.3 0.1z"/>
					</g>
				</g>
			</g>
			<g id="&lt;Group&gt; copy 38">
				<g id="&lt;Group&gt;">
					<g id="&lt;Group&gt;">
						<g id="&lt;Group&gt;">
							<path id="&lt;Path&gt;" class="s1" d="m166.4 77.8c0.4 1.2-1.6 2.6-4.2 3.8-2.6 1.1-5.7 2.1-8.3 3.3-6.2 2.7-5 5-3.7 7.5 0.7 1.1 0.4 2.6-2.4 3.7-1.8 0.7-4.3 1-6.4 0.9q-0.6 0-1.2-0.1c-2.3-0.2-3.8-0.9-4.5-1.7-0.8-0.8-0.9-1.8-1-2.7q-0.3-1.8-0.5-3.7c-0.4-2.6-0.6-5.5 3.7-8.2 4.1-2.6 12.4-4.7 19.7-4.8 1.7-0.1 3.3 0 4.7 0.2 2.2 0.3 3.8 0.9 4.1 1.8z"/>
							<path id="&lt;Path&gt;" class="s2" d="m144.1 79.3c-2.8 1-5 2.2-5.7 3.5-0.1 0.1-0.4 0.3-0.8 0.3-0.3 0-0.7-0.1-0.6-0.2 0.8-1.4 3.1-2.8 6.3-3.8 0.3-0.1 0.7-0.2 0.9-0.1 0.3 0.1 0.3 0.2-0.1 0.3z"/>
							<path id="&lt;Path&gt;" class="s3" d="m166.4 77.8c0.4 1.2-1.6 2.6-4.2 3.8-2.6 1.1-5.7 2.1-8.3 3.3-6.2 2.7-5 5-3.7 7.5 0.7 1.1 0.4 2.6-2.4 3.7-1.8 0.7-4.3 1-6.4 0.9 1.7-0.2 3.4-0.7 4.5-1.3 1.6-1 2-2 1.6-2.9-0.3-0.8-1.2-1.6-1.9-2.4-0.6-0.8-1.1-1.7-0.4-2.7 0.7-1.1 2.9-2.2 5.4-3.2 2.5-0.9 5.2-1.7 7.8-2.7 1.8-0.6 3.4-1.3 4.6-2.1 1.2-0.7 1.9-1.6 1.6-2.3-0.2-0.6-1.1-1-2.3-1.4 2.2 0.3 3.8 0.9 4.1 1.8z"/>
						</g>
						<g id="&lt;Group&gt;">
							<g id="&lt;Group&gt;">
								<path id="&lt;Path&gt;" class="s1" d="m178.7 73.8c-1.9 1.3-5.8 2.6-8.1 2.4q-0.5-0.1-0.8-0.2c-1.1-0.5-0.2-1.8 1.4-2.9 1.9-1.3 4-1.9 6.2-1.8q0.1 0.1 0.2 0.1c2.2 0.2 3 1.1 1.1 2.4z"/>
								<path id="&lt;Path&gt;" class="s3" d="m178.7 73.8c-1.9 1.3-5.8 2.6-8.1 2.4q-0.5-0.1-0.8-0.2c0.5 0.1 1.1 0 1.6 0 0.7-0.2 1.4-0.3 2.1-0.5 1.4-0.5 2.7-1 3.7-1.5 1-0.6 1.6-1.2 1.4-1.8-0.1-0.3-0.5-0.7-1.2-0.9q0.1 0.1 0.2 0.1c2.2 0.2 3 1.1 1.1 2.4z"/>
							</g>
							<g id="&lt;Group&gt;">
								<path id="&lt;Path&gt;" class="s1" d="m168.5 72.7c-1 1.1-3.7 2.2-5.7 2.2q-0.8 0-1.2-0.2c-0.8-0.4-0.8-1.1-0.1-1.9 1-1.1 3-1.8 4.9-1.8q0.1 0 0.1 0c1.9 0 2.9 0.6 2 1.7z"/>
								<path id="&lt;Path&gt;" class="s3" d="m168.5 72.7c-1 1.1-3.7 2.2-5.7 2.2q-0.8 0-1.2-0.2c0.6 0.1 1.4 0 2-0.1 1-0.2 1.7-0.6 2.3-0.9 1.1-0.6 1.9-1.2 1.9-1.8 0-0.4-0.5-0.7-1.3-0.9 1.9 0 2.9 0.6 2 1.7z"/>
							</g>
							<g id="&lt;Group&gt;">
								<path id="&lt;Path&gt;" class="s1" d="m159.2 72.8c-0.4 0.9-2.1 1.9-3.8 2q-0.8 0-1.3-0.2c-0.6-0.2-0.8-0.7-0.6-1.2 0.4-0.9 1.6-1.6 3.3-1.7q0.6-0.1 1.1 0c1 0.1 1.5 0.5 1.3 1.1z"/>
								<path id="&lt;Path&gt;" class="s3" d="m159.2 72.8c-0.4 0.9-2.1 1.9-3.8 2q-0.8 0-1.3-0.2c0.4 0.1 1 0 1.5-0.1 0.7-0.2 1.2-0.5 1.6-0.7 0.8-0.4 1.3-0.9 1.3-1.4 0-0.2-0.2-0.5-0.6-0.7 1 0.1 1.5 0.5 1.3 1.1z"/>
							</g>
							<g id="&lt;Group&gt;">
								<path id="&lt;Path&gt;" class="s1" d="m150.9 73.5c0.2 0.7-0.7 1.6-2.1 1.9q-0.5 0-1 0c-0.9 0-1.6-0.4-1.7-0.9-0.3-0.7 0.4-1.4 1.8-1.6q0.5-0.1 1-0.1c1 0 1.8 0.2 2 0.7z"/>
								<path id="&lt;Path&gt;" class="s3" d="m150.9 73.5c0.2 0.7-0.7 1.6-2.1 1.9q-0.5 0-1 0 0.3 0 0.6-0.1c0.5 0 0.8-0.2 1.1-0.4 0.2-0.1 0.4-0.3 0.5-0.5 0.3-0.3 0.4-0.7 0.2-1-0.1-0.3-0.6-0.5-1.3-0.6 1 0 1.8 0.2 2 0.7z"/>
							</g>
							<g id="&lt;Group&gt;">
								<path id="&lt;Path&gt;" class="s1" d="m144 75.3c0.6 0.5 0.3 1.3-0.9 1.6q-0.1 0-0.3 0.1c-1.1 0.1-2.3-0.1-2.9-0.5-0.6-0.5-0.2-1.2 1-1.5q0.3-0.1 0.6-0.1c1-0.1 2 0 2.5 0.4z"/>
								<path id="&lt;Path&gt;" class="s3" d="m144 75.3c0.6 0.5 0.3 1.3-0.9 1.6q-0.1 0-0.3 0.1c0.2-0.1 0.5-0.2 0.6-0.3 0.3-0.2 0.4-0.4 0.3-0.6 0-0.2-0.2-0.4-0.5-0.6-0.2-0.2-0.4-0.4-0.8-0.5q-0.4-0.1-0.9-0.1c1-0.1 2 0 2.5 0.4z"/>
							</g>
						</g>
					</g>
					<g id="&lt;Group&gt;">
						<path id="&lt;Path&gt;" class="s1" d="m139.9 97.7c-2.9-0.2-5-1-5.9-2-0.1-0.1 0.5-0.2 0.6-0.1 0.8 1 2.9 1.7 5.6 1.9 0.3 0 0 0.2-0.3 0.2z"/>
						<path id="&lt;Path&gt;" class="s1" d="m133.8 94.3q0.1 0.3 0.1 0.6c0 0-0.1 0.1-0.3 0.1q-0.2 0-0.2 0-0.1-0.3-0.2-0.6c0-0.1 0.2-0.1 0.3-0.1q0.3 0 0.3 0z"/>
					</g>
					<g id="&lt;Group&gt;">
						<path id="&lt;Path&gt;" class="s1" d="m166.2 80.5c-1.4 0.9-3.1 1.7-5.1 2.5-0.3 0.1-0.7 0-0.4-0.1 1.9-0.8 3.6-1.6 5-2.4 0.2-0.1 0.7-0.1 0.5 0z"/>
						<path id="&lt;Path&gt;" class="s1" d="m167.4 79.4q0 0.1 0 0.1l-0.4 0.4q-0.1 0-0.2 0-0.1 0.1-0.2 0.1-0.1-0.1-0.1-0.1-0.1 0 0-0.1 0.2-0.2 0.4-0.3 0.1-0.1 0.2-0.1 0.1 0 0.2 0 0.1 0 0.1 0z"/>
					</g>
				</g>
			</g>
			<g id="&lt;Group&gt; copy 50">
				<g id="&lt;Group&gt;">
					<g id="&lt;Group&gt;">
						<g id="&lt;Group&gt;">
							<path id="&lt;Path&gt;" class="s1" d="m210.3 65.6c0.2 2.7-4.4 5.5-8.8 8.2q-3.1 1.8-6.2 3.6c-1.5 1-3.1 1.9-5.1 2.8-2 0.8-4.6 1.5-7.3 1.8-1.6 0.2-3.2 0.2-4.4 0-0.9-0.2-1.5-0.4-1.9-0.7-1.2-1 0.8-2.5 3.2-3.6 5.1-2.5 9.9-4.9 7.8-7.5-0.8-1.1-2.5-2-3.3-3.1-0.8-1.1-0.7-2.5 1.6-3.7 2.7-1.5 7.8-2.2 12-2.2q1 0 2 0c6 0.4 10.3 2.1 10.4 4.4z"/>
							<path id="&lt;Path&gt;" class="s2" d="m190.6 63.4c-1.5 0.4-2.4 1-2.8 1.6-0.4 0.8-0.1 1.4 0.5 2 0.3 0.2-1 0.5-1.3 0.3-0.6-0.7-1-1.4-0.5-2.2 0.4-0.7 1.5-1.5 3.3-2 0.3-0.1 0.7-0.2 0.9-0.1 0.2 0.1 0.2 0.3-0.1 0.4z"/>
							<path id="&lt;Path&gt;" class="s4" d="m210.3 65.6c0.2 2.7-4.4 5.5-8.8 8.2q-3.1 1.8-6.2 3.6c-1.5 1-3.1 1.9-5.1 2.8-2 0.8-4.6 1.5-7.3 1.8-1.6 0.2-3.2 0.2-4.4 0 1.2 0 2.7-0.1 4.1-0.4 2-0.4 3.6-1 5.1-1.7 8.1-3.5 13.8-7.2 18.2-11.2 2.6-2.4 1.4-3.7 0.3-5-0.9-1.2-3.4-1.9-6.3-2.5 6 0.4 10.3 2.1 10.4 4.4z"/>
						</g>
						<g id="&lt;Group&gt;">
							<g id="&lt;Group&gt;">
								<path id="&lt;Path&gt;" class="s1" d="m188.3 58.8c-0.1 1.3-1.6 2.8-4.2 3.1-0.9 0-1.8 0-2.5-0.3-1.2-0.3-2.1-1.1-2-2 0.1-1.3 2.3-2.2 4.9-2.4q0.2-0.1 0.3-0.1c2.4-0.1 3.6 0.4 3.5 1.7z"/>
								<path id="&lt;Path&gt;" class="s4" d="m188.3 58.8c-0.1 1.3-1.6 2.8-4.2 3.1-0.9 0-1.8 0-2.5-0.3q0.3 0.1 0.6 0.1c0.6 0 1.2 0 1.8-0.2 0.6-0.1 1.1-0.4 1.4-0.6 0.9-0.7 1.2-1.4 1.3-2 0.2-0.5 0.2-0.9-0.2-1.3-0.3-0.2-0.9-0.4-1.7-0.5 2.4-0.1 3.6 0.4 3.5 1.7z"/>
							</g>
							<g id="&lt;Group&gt;">
								<path id="&lt;Path&gt;" class="s1" d="m198.5 58.3c-0.7 1.1-2.6 2.1-4.6 2.1q-1 0-1.7-0.3c-0.8-0.3-1-1.1-0.6-1.8 0.7-1.1 2.7-1.7 4.7-1.7q0.1 0 0.2 0c1.9 0 2.6 0.7 2 1.7z"/>
								<path id="&lt;Path&gt;" class="s4" d="m198.5 58.3c-0.7 1.1-2.6 2.1-4.6 2.1q-1 0-1.7-0.3c0.5 0.2 1.3 0.1 1.9 0 0.8-0.2 1.4-0.5 1.8-0.8 0.8-0.6 1.4-1.1 1.5-1.7 0.1-0.4-0.2-0.8-0.9-1 1.9 0 2.6 0.7 2 1.7z"/>
							</g>
							<g id="&lt;Group&gt;">
								<path id="&lt;Path&gt;" class="s1" d="m205.6 58.7c-0.9 0.9-2.5 1.5-4 1.4q-0.7 0-1-0.2c-0.5-0.4-0.4-1.1 0.2-1.7 0.8-0.7 2.3-1.1 3.6-1.1q0.3 0 0.6 0c1.5 0 1.5 0.8 0.6 1.6z"/>
								<path id="&lt;Path&gt;" class="s4" d="m205.6 58.7c-0.9 0.9-2.5 1.5-4 1.4q-0.7 0-1-0.2c0.3 0 0.8 0.1 1.3 0 0.6 0 1.1-0.3 1.5-0.5q0.9-0.4 1.5-1c0.3-0.3 0.5-0.6 0.4-0.9-0.2-0.2-0.5-0.4-0.9-0.4q0.3 0 0.6 0c1.5 0 1.5 0.8 0.6 1.6z"/>
							</g>
							<g id="&lt;Group&gt;">
								<path id="&lt;Path&gt;" class="s1" d="m211.5 59.6c-1.3 0.7-3.1 1.2-4.2 1q-0.1 0-0.2-0.1c-0.8-0.3-0.2-1.1 0.9-1.7 1.2-0.6 2.6-0.8 3.6-0.7q0 0 0 0 0.2 0 0.4 0c1.1 0.2 0.8 0.9-0.5 1.5z"/>
								<path id="&lt;Path&gt;" class="s4" d="m211.5 59.6c-1.3 0.7-3.1 1.2-4.2 1q-0.1 0-0.2-0.1c0.3 0 0.7 0 1-0.1q0.8-0.1 1.4-0.3 1-0.4 1.7-0.8c0.5-0.2 0.9-0.5 1-0.8 0-0.2-0.2-0.3-0.6-0.4q0.2 0 0.4 0c1.1 0.2 0.8 0.9-0.5 1.5z"/>
							</g>
							<g id="&lt;Group&gt;">
								<path id="&lt;Path&gt;" class="s1" d="m214.6 61.5c-1.5 0.6-3.1 0.8-3.9 0.5q-0.1 0-0.2-0.1 0 0 0 0c-0.3-0.3 0.6-1 1.8-1.5 0.9-0.3 1.8-0.5 2.6-0.5q0.6 0 1 0.2c0.7 0.2 0.1 0.9-1.3 1.4z"/>
								<path id="&lt;Path&gt;" class="s4" d="m214.6 61.5c-1.5 0.6-3.1 0.8-3.9 0.5q-0.1 0-0.2-0.1c0.3 0.1 0.7 0.1 1.2 0.1 0.5-0.1 1.1-0.2 1.6-0.3 0.8-0.3 1.6-0.6 2-1 0.3-0.1 0.5-0.3 0.4-0.5-0.1-0.1-0.3-0.2-0.5-0.2q-0.2 0-0.3-0.1 0.6 0 1 0.2c0.7 0.2 0.1 0.9-1.3 1.4z"/>
							</g>
						</g>
					</g>
					<g id="&lt;Group&gt;">
						<path id="&lt;Path&gt;" class="s1" d="m211.7 63.5c1.3 1 1.6 2.3 0.9 3.6-0.1 0.1-0.6 0.1-0.5 0 0.6-1.2 0.4-2.5-0.9-3.5-0.1-0.1 0.4-0.2 0.5-0.1z"/>
						<path id="&lt;Path&gt;" class="s1" d="m212.1 67.8q-0.1 0.3-0.4 0.5-0.1 0.1-0.2 0.1-0.1 0-0.2 0-0.1 0-0.1-0.1 0 0 0 0 0 0 0 0 0.2-0.2 0.3-0.3 0-0.1 0-0.1c0-0.1 0.2-0.1 0.3-0.1 0.2-0.1 0.3 0 0.3 0z"/>
					</g>
					<g id="&lt;Group&gt;">
						<path id="&lt;Path&gt;" class="s1" d="m180.4 83c-2.1 0.1-4-0.2-5.1-0.7-0.1-0.1 0.4-0.2 0.5-0.2 1.1 0.5 2.8 0.8 4.8 0.7 0.3 0 0.1 0.2-0.2 0.2z"/>
						<path id="&lt;Path&gt;" class="s1" d="m184.2 82.6c0.1 0-0.1 0.1-0.2 0.1-0.5 0.1-0.9 0.2-1.4 0.2q-0.1 0-0.2 0 0-0.1 0-0.1 0-0.1 0.1-0.1c0 0 0.1 0 0.2 0q0.3 0 0.6-0.1 0 0 0 0 0 0 0 0 0.1 0 0.1 0 0.1 0 0.2 0 0.1 0 0.3-0.1c0.2 0 0.3 0 0.3 0.1z"/>
					</g>
				</g>
			</g>
		</g>
		<path id="Shape 24" fill-rule="evenodd" class="s6" d="m72 84.7c-6-10.4-4.9-19.5-4.9-19.5 0 0 1.1-24.2 25.7-24.2 24.8 0 25.7 24.2 25.7 24.2 0 0 1.2 8.2-5.8 20.8-7 12.7-17.2 22.6-17.2 22.6 0 0-1 1.5-2.7 1.5-1.6 0-2.8-1.5-2.8-1.5 0 0-10.2-10.5-18-23.9zm34.9-17.8c0-7.8-6.3-14.2-14.2-14.2-7.8 0-14.2 6.4-14.2 14.2 0 7.9 6.4 14.2 14.2 14.2 7.9 0 14.2-6.3 14.2-14.2z"/>
	</g>
</svg>