<svg version="1.2" xmlns="http://www.w3.org/2000/svg" viewBox="0 0 240 240" width="240" height="240">
	<title>Block Survey</title>
	<style>
		tspan { white-space:pre } 
		.s0 { fill: #d04cb4 } 
		.s1 { fill: #ffda9f } 
		.s2 { fill: #001faa } 
		.s3 { fill: #2f2f2f } 
		.s4 { fill: #ffffff } 
	</style>
	<g id="Block Survey">
		<path id="Layer 32 copy 8" class="s0" d="m120 240c-66.4 0-120-53.6-120-120 0-66.4 53.6-120 120-120 66.4 0 120 53.6 120 120 0 66.4-53.6 120-120 120z"/>
		<g id="Folder 2">
			<path id="Shape 13" class="s1" d="m143.5 158.6c0 0-0.3-4.9-5.9-7.3-5.5-2.4-10.2-5.4-10.2-5.4 0 0-1.9-2.3-0.1-4.8 1.9-2.4 4.9-1.1 4.9-1.1l7.4 3-8.8-26.3c0 0-1.4-3.7 2-4.8 2.9-0.9 4.8 1.8 4.8 1.8l4.4 12.7c0 0-0.1-3 2.3-3.5 3.4-0.8 4.6 2.1 4.6 2.1l0.9 2.4v-2c0 0 0.2-1.9 2.7-2.1 3-0.2 3.9 2.2 3.9 2.2l1.2 2.4v-1.5c0 0 0.2-2 3-2.3 2-0.2 3.4 1.8 3.4 1.8l4.9 14.7c0 0 1.2 3.6 0 7.3-1.3 3.7 0 2.4 0 2.4z"/>
			<path id="Layer 27" fill-rule="evenodd" class="s2" d="m149.3 159.8l15.4-5.2c4.5-1.5 9.3 0.9 10.8 5.3 1.6 4.5-0.8 9.4-5.3 10.9l-15.4 5.2c-4.5 1.5-9.3-0.9-10.9-5.4-1.5-4.4 0.9-9.3 5.4-10.8zm23.1-2.6c-0.5-1.5-2.1-2.2-3.6-1.8-1.4 0.5-2.2 2.1-1.7 3.6 0.5 1.4 2.1 2.2 3.5 1.7 1.5-0.5 2.2-2.1 1.8-3.5z"/>
			<path id="Shape 14" class="s3" d="m78.9 166.7c0 0-4 0.1-6-2.7-1.7-2.2-1.6-5.4-1.6-5.4v-88.8c0 0 0.2-3.1 2.1-5 1.6-1.5 4.7-1.8 4.7-1.8h72.7c0 0 3.1 0.3 4.9 2.2 1.6 1.6 1.9 4.6 1.9 4.6v52.2c0 0-2.1-1.6-4.1-1.7-2-0.2-3.8 1.2-3.8 1.2 0 0-0.3-0.6-0.7-0.8-0.5-0.2-1.1-0.1-1.1-0.1v-47.8h-66.9v78.5h49.8c0 0 3.9 1.3 7.8 3.8 2.6 1.7 2.5 5.5 2.5 5.5 0 0-1.4 1.4-1.8 2.9-0.4 1.5 0.3 2.9 0.3 2.9zm-6.9-103.5c0 0-2 2-2.9 4.8-0.5 1.7-0.2 4.3-0.2 4.3v86.4c0 0-0.4 2.1 0.3 4.1 0.8 2.2 2.9 3.8 2.9 3.8 0 0-4.7-0.3-6.9-2.5-2.2-2.2-2.2-5.9-2.2-5.9v-85.9c0 0 0.3-4.9 2.4-6.9 2.3-2.3 6.6-2.2 6.6-2.2z"/>
			<path id="Shape 15 copy 2" fill-rule="evenodd" class="s4" d="m89.6 85.4h29.7c1 0 1.8 0.8 1.8 1.7 0 1-0.8 1.8-1.8 1.8h-29.7c-1 0-1.7-0.8-1.7-1.8 0-0.9 0.7-1.7 1.7-1.7zm36.8 0.2c0-2.8 2.3-5 5-5h3.2c2.8 0 5 2.2 5 5v3.1c0 2.8-2.2 5-5 5h-3.2c-2.7 0-5-2.2-5-5zm3.9 0.4l-1.7 1.6 3.2 3.3 6-5.7-1.8-1.9-4.2 4.2z"/>
			<path id="Shape 15 copy 3" class="s4" d="m87.9 111.5c0-0.9 0.7-1.7 1.7-1.7h29.7c1 0 1.8 0.8 1.8 1.7 0 1-0.8 1.7-1.8 1.7h-29.7c-1 0-1.7-0.7-1.7-1.7zm38.5-4.1m0 0c0-1.4 1.1-2.4 2.5-2.4h8.3c1.3 0 2.4 1 2.4 2.4v8.3c0 1.3-0.6-5.8-5.3-5.3-0.6 0-5-0.2-5.2 3.8-0.1 1.5 1 3.9-0.2 3.9-0.7 0-2.5-1.1-2.5-2.4z"/>
			<path id="Shape 15 copy 4" class="s4" d="m87.9 135.9c0-0.9 0.7-1.7 1.7-1.7h29.7c1 0 1.8 0.8 1.8 1.7 0 1-0.8 1.7-1.8 1.7h-29.7c-1 0-1.7-0.7-1.7-1.7zm38.5-4.1m1.7 5.6c-1.3 0.9-1.7 2.4-1.7 0.7v-6.3c0-1.4 1.1-2.5 2.5-2.5l2 0.1c1.3 0 2.1 1.7 2.7 3.4l1.6 4.7c0 1.4-1.7-0.6-3.9-0.7-0.6 0-2.1-0.2-3.2 0.6z"/>
		</g>
	</g>
</svg>