<svg version="1.2" xmlns="http://www.w3.org/2000/svg" viewBox="0 0 239 239" width="239" height="239">
	<title>Patrolling</title>
	<style>
		tspan { white-space:pre } 
		.s0 { fill: #1d2e79 } 
		.s1 { fill: #02c0fc } 
		.s2 { opacity: .5;fill: #ffffff } 
		.s3 { mix-blend-mode: multiply;fill: #e0cfca } 
		.s4 { mix-blend-mode: multiply;fill: #c9c0dd } 
		.s5 { fill: #4c435b } 
		.s6 { mix-blend-mode: multiply;fill: #02c0fc } 
		.s7 { fill: #e51400 } 
	</style>
	<g id="Patrolling">
		<path id="Layer 32" class="s0" d="m119.1 238.2c-65.9 0-119.1-53.3-119.1-119.1 0-65.9 53.2-119.1 119.1-119.1 65.8 0 119.1 53.2 119.1 119.1 0 65.8-53.3 119.1-119.1 119.1z"/>
		<g id="&lt;Group&gt;">
			<g id="&lt;Group&gt;">
				<g id="&lt;Group&gt;">
					<g id="&lt;Group&gt;">
						<g id="&lt;Group&gt;">
							<path id="&lt;Path&gt;" class="s1" d="m80.5 155.4c-0.6 2.1-4.4 4.2-8.6 5.9-4.3 1.7-9.1 3.1-13.5 4.8-10.5 4-11.8 8.4-13 13.2-0.6 2.2-2.7 5-7.6 6.7-3.1 1.1-6.8 1.4-9.4 1q-0.7-0.1-1.3-0.3c-2.6-0.8-3.5-2.3-3.4-4 0.1-1.7 1.2-3.5 2.3-5.3q2-3.4 4-6.8c2.8-4.7 6-9.7 14.1-13.7 7.8-3.9 19.6-6.3 28.1-5.7 2 0.1 3.8 0.4 5.2 0.9 2.3 0.7 3.6 1.8 3.1 3.3z"/>
							<path id="&lt;Path&gt;" class="s2" d="m52.9 155.5c-4.4 1.2-8.3 3.1-10.6 5.1-0.3 0.2-0.7 0.4-1.3 0.4-0.4 0-0.7-0.2-0.4-0.4 2.5-2.2 6.7-4.3 11.6-5.7 0.5-0.1 1-0.2 1.2 0 0.2 0.1 0 0.4-0.5 0.6z"/>
							<path id="&lt;Path&gt;" class="s3" d="m80.5 155.4c-0.6 2.1-4.4 4.2-8.6 5.9-4.3 1.7-9.1 3.1-13.5 4.8-10.5 4-11.8 8.4-13 13.2-0.6 2.2-2.7 5-7.6 6.7-3.1 1.1-6.8 1.4-9.4 1 2.5-0.2 5.4-1 7.5-2 3.2-1.6 4.9-3.5 5.6-5.3 0.6-1.6 0.4-3.2 0.6-4.8 0.1-1.6 0.7-3.2 2.6-4.9 2.2-1.9 6.1-3.6 10.2-5 4-1.3 8.2-2.4 12.1-3.7 2.8-0.9 5.5-1.9 7.7-3 2.2-1.2 3.8-2.5 4.1-3.7 0.3-1-0.3-1.8-1.4-2.5 2.3 0.7 3.6 1.8 3.1 3.3z"/>
						</g>
						<g id="&lt;Group&gt;">
							<g id="&lt;Group&gt;">
								<path id="&lt;Path&gt;" class="s1" d="m98.5 150.3c-3.3 1.9-9 3.6-11.5 3q-0.6-0.2-0.8-0.4c-0.8-1 1.4-2.9 4.3-4.5 3.2-1.9 6.2-2.6 8.6-2.1q0.1 0 0.2 0c2.4 0.6 2.6 2.1-0.8 4z"/>
								<path id="&lt;Path&gt;" class="s3" d="m98.5 150.3c-3.3 1.9-9 3.6-11.5 3q-0.6-0.2-0.8-0.4c0.5 0.1 1.2 0.1 1.9 0.1 1-0.1 2-0.3 2.9-0.6 2-0.5 4.1-1.2 5.7-2 1.6-0.8 2.8-1.7 3.1-2.6 0.1-0.6-0.1-1.1-0.7-1.5q0.1 0 0.2 0c2.4 0.6 2.6 2.1-0.8 4z"/>
							</g>
							<g id="&lt;Group&gt;">
								<path id="&lt;Path&gt;" class="s1" d="m87.6 147.4c-2.1 1.6-6.2 3.2-8.5 3q-0.9-0.1-1.2-0.5c-0.7-0.7 0.1-1.9 1.6-3 2.2-1.6 5.1-2.6 7.3-2.4q0.1 0.1 0.1 0.1c2.2 0.2 2.8 1.2 0.7 2.8z"/>
								<path id="&lt;Path&gt;" class="s3" d="m87.6 147.4c-2.1 1.6-6.2 3.2-8.5 3q-0.9-0.1-1.2-0.5c0.5 0.2 1.5 0.2 2.4 0 1.3-0.2 2.5-0.7 3.5-1.1 1.7-0.8 3.3-1.7 3.8-2.6 0.4-0.7 0.1-1.3-0.7-1.6 2.2 0.2 2.8 1.2 0.7 2.8z"/>
							</g>
							<g id="&lt;Group&gt;">
								<path id="&lt;Path&gt;" class="s1" d="m76.8 146.6c-1.2 1.3-4.1 2.7-6.1 2.7q-1.1 0-1.4-0.4c-0.5-0.4-0.2-1.1 0.6-2 1.2-1.3 3.3-2.3 5.3-2.3q0.7 0 1.2 0.1c1.1 0.3 1.4 0.9 0.4 1.9z"/>
								<path id="&lt;Path&gt;" class="s3" d="m76.8 146.6c-1.2 1.3-4.1 2.7-6.1 2.7q-1.1 0-1.4-0.4c0.4 0.1 1.2 0.1 1.9-0.1 0.9-0.2 1.8-0.5 2.5-0.8 1.2-0.6 2.3-1.3 2.8-2 0.3-0.5 0.2-0.9-0.1-1.3 1.1 0.3 1.4 0.9 0.4 1.9z"/>
							</g>
							<g id="&lt;Group&gt;">
								<path id="&lt;Path&gt;" class="s1" d="m66.7 146.9c-0.4 1.1-2.4 2.4-4.2 2.6q-0.7 0.1-1.2 0c-1-0.2-1.4-0.9-1.1-1.7 0.5-1.1 1.9-2.1 3.7-2.2q0.7-0.1 1.3-0.1c1.1 0.1 1.8 0.6 1.5 1.4z"/>
								<path id="&lt;Path&gt;" class="s3" d="m66.7 146.9c-0.4 1.1-2.4 2.4-4.2 2.6q-0.7 0.1-1.2 0 0.3 0 0.7 0c0.6-0.1 1.2-0.3 1.7-0.6 0.4-0.2 0.8-0.4 1.1-0.7 0.6-0.5 1.2-1.1 1.3-1.6 0.1-0.5-0.2-0.9-0.9-1.1 1.1 0.1 1.8 0.6 1.5 1.4z"/>
							</g>
							<g id="&lt;Group&gt;">
								<path id="&lt;Path&gt;" class="s1" d="m57 148.9c0.2 0.9-0.9 2.1-2.6 2.4q-0.3 0.1-0.6 0.1c-1.4 0.2-2.5-0.3-2.7-1-0.1-0.9 1-2 2.7-2.3q0.4-0.1 0.8-0.1c1.3-0.1 2.3 0.2 2.4 0.9z"/>
								<path id="&lt;Path&gt;" class="s3" d="m57 148.9c0.2 0.9-0.9 2.1-2.6 2.4q-0.3 0.1-0.6 0.1c0.4-0.1 0.8-0.2 1.1-0.3 0.6-0.3 0.8-0.7 1-1 0.2-0.3 0.1-0.7 0.1-1-0.1-0.3-0.2-0.6-0.5-0.8q-0.3-0.2-0.9-0.3c1.3-0.1 2.3 0.2 2.4 0.9z"/>
							</g>
						</g>
					</g>
					<g id="&lt;Group&gt;">
						<path id="&lt;Path&gt;" class="s1" d="m25.7 188.2c-3.3-0.9-5.1-2.6-4.8-4.7 0.1-0.3 0.9-0.4 0.9-0.2-0.3 2.1 1.4 3.7 4.5 4.5 0.4 0.1-0.2 0.5-0.6 0.4z"/>
						<path id="&lt;Path&gt;" class="s1" d="m22.5 180.8q-0.3 0.5-0.6 1.1c-0.1 0.1-0.4 0.2-0.6 0.2-0.2 0-0.2-0.1-0.2-0.2q0.3-0.5 0.6-1.1c0-0.1 0.3-0.2 0.5-0.2 0.3 0 0.3 0.1 0.3 0.2z"/>
					</g>
					<g id="&lt;Group&gt;">
						<path id="&lt;Path&gt;" class="s1" d="m77.6 160c-2.5 1.3-5.4 2.5-8.5 3.5-0.4 0.2-0.8 0-0.3-0.2 3-1 5.9-2.2 8.3-3.4 0.4-0.2 0.9-0.1 0.5 0.1z"/>
						<path id="&lt;Path&gt;" class="s1" d="m80.2 158.3q0 0-0.1 0.1l-0.9 0.6c0 0-0.2 0-0.3 0q-0.1 0.1-0.2 0-0.1 0-0.1 0 0-0.1 0.1-0.2 0.4-0.3 0.9-0.5c0-0.1 0.1-0.1 0.2-0.1q0.2 0 0.3 0 0.1 0 0.1 0.1z"/>
					</g>
				</g>
			</g>
			<g id="&lt;Group&gt;">
				<g id="&lt;Group&gt;">
					<g id="&lt;Group&gt;">
						<g id="&lt;Group&gt;">
							<path id="&lt;Path&gt;" class="s1" d="m141.1 140.9c-1.4 4.1-8.7 8.1-15.7 11.8q-5 2.7-10.1 5.4c-2.6 1.4-5.3 2.8-8.4 4-3.2 1.2-6.9 2.2-10.4 2.4-2.1 0.1-4.1-0.1-5.4-0.6-0.9-0.4-1.5-0.8-1.7-1.4-0.5-1.9 3.2-4.1 7.1-5.8 8.2-3.5 15.6-6.7 15.3-11.1-0.2-1.8-1.3-3.4-1.4-5.2 0-1.7 1.1-3.7 4.6-5.3 4.1-1.8 10.3-2.4 14.9-2q1.2 0.1 2.2 0.3c6.6 1.1 10.3 4.1 9 7.5z"/>
							<path id="&lt;Path&gt;" class="s2" d="m120.2 135.6c-2 0.5-3.5 1.3-4.3 2.2-1 1-1.1 2-0.8 2.9 0.1 0.4-1.6 0.7-1.7 0.3-0.3-1-0.2-2.2 1-3.3 1-1 2.8-2 5.1-2.6 0.5-0.1 0.9-0.1 1.1 0 0.2 0.1 0 0.4-0.4 0.5z"/>
							<path id="&lt;Path&gt;" class="s4" d="m141.1 140.9c-1.4 4.1-8.7 8.1-15.7 11.8q-5 2.7-10.1 5.4c-2.6 1.4-5.3 2.8-8.4 4-3.2 1.2-6.9 2.2-10.4 2.4-2.1 0.1-4.1-0.1-5.4-0.6 1.4 0.2 3.4 0.2 5.3-0.1 2.8-0.5 5.3-1.4 7.7-2.4 12.5-4.9 22.1-10.4 30-16.2 4.4-3.4 4-5.5 3.6-7.6-0.3-1.8-2.7-3.1-5.6-4.2 6.6 1.1 10.3 4.1 9 7.5z"/>
						</g>
						<g id="&lt;Group&gt;">
							<g id="&lt;Group&gt;">
								<path id="&lt;Path&gt;" class="s1" d="m120.9 128.8c-1.1 1.8-3.8 3.8-6.8 3.9-1.1 0.1-2-0.1-2.6-0.5-1.1-0.7-1.4-1.9-0.7-3.1 1-1.7 4-2.8 7.1-2.9q0.2 0 0.4 0c2.6 0 3.5 0.9 2.6 2.6z"/>
								<path id="&lt;Path&gt;" class="s4" d="m120.9 128.8c-1.1 1.8-3.8 3.8-6.8 3.9-1.1 0.1-2-0.1-2.6-0.5q0.2 0.1 0.5 0.1c0.7 0.1 1.5 0.1 2.2 0 0.8-0.2 1.5-0.5 2-0.8 1.5-0.9 2.3-1.8 2.9-2.7 0.4-0.6 0.8-1.2 0.6-1.8-0.2-0.4-0.7-0.7-1.4-0.8 2.6 0 3.5 0.9 2.6 2.6z"/>
							</g>
							<g id="&lt;Group&gt;">
								<path id="&lt;Path&gt;" class="s1" d="m132.4 129.1c-1.4 1.4-4.2 2.7-6.5 2.6-0.7-0.1-1.3-0.3-1.6-0.6-0.6-0.6-0.4-1.7 0.6-2.6 1.4-1.5 4-2.1 6.2-2q0.2 0 0.3 0c2 0.2 2.4 1.2 1 2.6z"/>
								<path id="&lt;Path&gt;" class="s4" d="m132.4 129.1c-1.4 1.4-4.2 2.7-6.5 2.6-0.7-0.1-1.3-0.3-1.6-0.6 0.4 0.2 1.4 0.2 2.2 0.1 0.9-0.2 1.8-0.6 2.4-1 1.3-0.7 2.3-1.4 2.8-2.1 0.3-0.6 0.2-1.2-0.3-1.6 2 0.2 2.4 1.2 1 2.6z"/>
							</g>
							<g id="&lt;Group&gt;">
								<path id="&lt;Path&gt;" class="s1" d="m140 130.4c-1.5 1.1-3.7 1.8-5.3 1.6q-0.7-0.1-1-0.5c-0.3-0.6 0.2-1.5 1.3-2.3 1.4-0.9 3.2-1.3 4.7-1.3q0.4 0 0.7 0.1c1.6 0.2 1.2 1.2-0.4 2.4z"/>
								<path id="&lt;Path&gt;" class="s4" d="m140 130.4c-1.5 1.1-3.7 1.8-5.3 1.6q-0.7-0.1-1-0.5c0.4 0.2 0.9 0.3 1.5 0.2 0.7 0 1.4-0.3 1.9-0.5q1.4-0.6 2.3-1.3c0.6-0.5 1-0.9 1-1.3 0-0.3-0.3-0.5-0.7-0.7q0.4 0 0.7 0.1c1.6 0.2 1.2 1.2-0.4 2.4z"/>
							</g>
							<g id="&lt;Group&gt;">
								<path id="&lt;Path&gt;" class="s1" d="m146.1 132.2c-1.9 0.9-4.1 1.4-5.3 1q-0.1 0-0.2-0.1c-0.6-0.5 0.4-1.6 2.1-2.4 1.6-0.7 3.3-0.9 4.4-0.7q0 0 0 0 0.3 0 0.5 0.1c1.1 0.4 0.3 1.3-1.5 2.1z"/>
								<path id="&lt;Path&gt;" class="s4" d="m146.1 132.2c-1.9 0.9-4.1 1.4-5.3 1q-0.1 0-0.2-0.1c0.3 0 0.8 0 1.2 0 0.7-0.1 1.3-0.3 1.8-0.4q1.3-0.4 2.4-0.9c0.6-0.3 1.2-0.7 1.5-1.1 0.1-0.2 0-0.5-0.4-0.7q0.3 0 0.5 0.1c1.1 0.4 0.3 1.3-1.5 2.1z"/>
							</g>
							<g id="&lt;Group&gt;">
								<path id="&lt;Path&gt;" class="s1" d="m148.4 135.3c-1.9 0.6-3.9 0.7-4.6 0.3q-0.1-0.1-0.1-0.2 0 0 0 0c-0.2-0.5 1.2-1.4 2.9-2 1.2-0.4 2.3-0.5 3.1-0.4q0.7 0.1 1 0.3c0.7 0.5-0.4 1.4-2.3 2z"/>
								<path id="&lt;Path&gt;" class="s4" d="m148.4 135.3c-1.9 0.6-3.9 0.7-4.6 0.3q-0.1-0.1-0.1-0.2c0.2 0.2 0.7 0.2 1.2 0.2 0.7 0 1.4-0.1 2-0.3 1.1-0.3 2.1-0.6 2.9-1.1 0.3-0.2 0.7-0.5 0.7-0.7-0.1-0.2-0.2-0.3-0.4-0.4q-0.2-0.1-0.4-0.1 0.7 0.1 1 0.3c0.7 0.5-0.4 1.4-2.3 2z"/>
							</g>
						</g>
					</g>
					<g id="&lt;Group&gt;">
						<path id="&lt;Path&gt;" class="s1" d="m144.1 137.9c0.8 1.7 0.4 3.6-1.2 5.5-0.2 0.2-0.8 0.2-0.7 0 1.6-1.9 2-3.7 1.2-5.4-0.1-0.1 0.6-0.3 0.7-0.1z"/>
						<path id="&lt;Path&gt;" class="s1" d="m141.8 144.5q-0.3 0.3-0.8 0.7c0 0-0.1 0.1-0.2 0.1q-0.2 0-0.3 0-0.1-0.1-0.1-0.1 0-0.1 0.1-0.1 0 0 0 0 0.3-0.2 0.5-0.5 0.1 0 0.1-0.1c0.1-0.1 0.3-0.2 0.5-0.2 0.1 0 0.2 0.1 0.2 0.2z"/>
					</g>
					<g id="&lt;Group&gt;">
						<path id="&lt;Path&gt;" class="s1" d="m92.4 166c-2.6-0.2-4.6-0.9-5.4-1.9-0.1-0.2 0.6-0.4 0.7-0.2 0.8 1 2.7 1.6 5.1 1.7 0.5 0 0.1 0.4-0.4 0.4z"/>
						<path id="&lt;Path&gt;" class="s1" d="m97.5 165.6c0 0.1-0.2 0.2-0.4 0.2-0.6 0.1-1.2 0.2-1.8 0.1q-0.1 0-0.2 0-0.1 0 0-0.1 0-0.1 0.1-0.1c0.1-0.1 0.3-0.1 0.3-0.1q0.4 0 0.9 0 0 0 0 0 0 0 0 0 0.1 0 0.1 0 0.1 0 0.2 0 0.3-0.1 0.5-0.1c0.2 0 0.3 0 0.3 0.1z"/>
					</g>
				</g>
			</g>
			<g id="&lt;Group&gt; copy 12">
				<g id="&lt;Group&gt;">
					<g id="&lt;Group&gt;">
						<g id="&lt;Group&gt;">
							<path id="&lt;Path&gt;" class="s1" d="m115.9 115c1 1.3-0.7 3.1-3.3 4.6-2.5 1.5-5.8 2.9-8.5 4.5-6.4 3.7-4 6.5-1.2 9.4 1.2 1.4 1.6 3.3-1.5 4.9-2 1-5.1 1.7-7.8 1.8q-0.8 0-1.5 0c-3-0.1-5.2-0.9-6.4-1.9-1.3-1-1.8-2.2-2.3-3.4q-1-2.3-1.9-4.6c-1.3-3.2-2.5-6.5 1.7-10 4.1-3.4 13.2-6.2 21.6-6.9 1.9-0.2 3.8-0.2 5.6-0.1 2.6 0.2 4.7 0.8 5.5 1.7z"/>
							<path id="&lt;Path&gt;" class="s2" d="m90.3 118.3c-3.1 1.3-5.2 3-5.7 4.5 0 0.1-0.3 0.3-0.8 0.4-0.4 0-0.9 0-0.8-0.2 0.5-1.7 2.7-3.5 6.2-4.9 0.3-0.1 0.7-0.2 1.1-0.2 0.3 0.1 0.3 0.3 0 0.4z"/>
							<path id="&lt;Path&gt;" class="s3" d="m115.9 115c1 1.3-0.7 3.1-3.3 4.6-2.5 1.5-5.8 2.9-8.5 4.5-6.4 3.7-4 6.5-1.2 9.4 1.2 1.4 1.6 3.3-1.5 4.9-2 1-5.1 1.7-7.8 1.8 2.1-0.5 4.1-1.3 5.2-2.2 1.6-1.3 1.6-2.6 0.9-3.7-0.8-1.1-2.3-2-3.4-2.9-1.2-1-2.1-2-1.6-3.3 0.4-1.4 2.7-2.9 5.3-4.2 2.6-1.3 5.6-2.5 8.2-3.7 1.9-0.9 3.5-1.8 4.6-2.8 1.1-0.9 1.5-1.9 0.8-2.7-0.5-0.6-1.7-1.1-3.2-1.4 2.6 0.2 4.7 0.8 5.5 1.7z"/>
						</g>
						<g id="&lt;Group&gt;">
							<g id="&lt;Group&gt;">
								<path id="&lt;Path&gt;" class="s1" d="m128.2 109.8c-1.5 1.6-5.4 3.2-8.1 3.1q-0.6 0-1.1-0.1c-1.5-0.5-1-1.9 0.3-3.3 1.6-1.5 3.7-2.3 6.3-2.2q0.1 0 0.2 0c2.6 0 4 0.9 2.4 2.5z"/>
								<path id="&lt;Path&gt;" class="s3" d="m128.2 109.8c-1.5 1.6-5.4 3.2-8.1 3.1q-0.6 0-1.1-0.1c0.6 0 1.3-0.1 1.9-0.2 0.8-0.1 1.5-0.4 2.1-0.6 1.5-0.6 2.8-1.3 3.6-1.9 0.9-0.7 1.2-1.4 0.8-2-0.3-0.4-1-0.7-1.8-0.8q0.1 0 0.2 0c2.6 0 4 0.9 2.4 2.5z"/>
							</g>
							<g id="&lt;Group&gt;">
								<path id="&lt;Path&gt;" class="s1" d="m116 109.3c-0.6 1.2-3.2 2.7-5.5 2.8q-0.9 0-1.5-0.2c-1.1-0.3-1.4-1.1-0.9-2 0.6-1.3 2.6-2.2 4.8-2.3q0.1 0 0.1 0c2.2-0.1 3.6 0.5 3 1.7z"/>
								<path id="&lt;Path&gt;" class="s3" d="m116 109.3c-0.6 1.2-3.2 2.7-5.5 2.8q-0.9 0-1.5-0.2c0.6 0.1 1.6 0 2.3-0.2 1-0.3 1.7-0.7 2.3-1.1 0.9-0.7 1.6-1.5 1.4-2.1-0.2-0.4-0.9-0.8-2-0.9 2.2-0.1 3.6 0.5 3 1.7z"/>
							</g>
							<g id="&lt;Group&gt;">
								<path id="&lt;Path&gt;" class="s1" d="m105.4 110c-0.1 1-1.7 2.2-3.5 2.4q-1.1 0.1-1.7 0c-0.8-0.3-1.1-0.7-1.1-1.3 0.1-1 1.2-1.9 3.1-2.1q0.6-0.1 1.2-0.1c1.2 0.1 2 0.4 2 1.1z"/>
								<path id="&lt;Path&gt;" class="s3" d="m105.4 110c-0.1 1-1.7 2.2-3.5 2.4q-1.1 0.1-1.7 0c0.5 0 1.2-0.1 1.8-0.3 0.7-0.2 1.1-0.5 1.5-0.8 0.7-0.6 1.1-1.1 1-1.6-0.1-0.3-0.5-0.6-1.1-0.8 1.2 0.1 2 0.4 2 1.1z"/>
							</g>
							<g id="&lt;Group&gt;">
								<path id="&lt;Path&gt;" class="s1" d="m96.1 111.4c0.5 0.7-0.2 1.8-1.8 2.2q-0.5 0.1-1.1 0.1c-1.1 0-2-0.4-2.4-1-0.5-0.7 0-1.4 1.6-1.8q0.6-0.1 1.2-0.2c1.1 0 2.1 0.2 2.5 0.7z"/>
								<path id="&lt;Path&gt;" class="s3" d="m96.1 111.4c0.5 0.7-0.2 1.8-1.8 2.2q-0.5 0.1-1.1 0.1 0.4-0.1 0.7-0.1c0.5-0.2 0.9-0.4 1.1-0.6 0.2-0.2 0.3-0.3 0.4-0.5 0.2-0.5 0.2-0.9-0.1-1.2-0.3-0.3-0.9-0.5-1.7-0.6 1.1 0 2.1 0.2 2.5 0.7z"/>
							</g>
							<g id="&lt;Group&gt;">
								<path id="&lt;Path&gt;" class="s1" d="m88.7 113.8c0.9 0.5 0.8 1.4-0.4 1.8q-0.3 0.1-0.5 0.1c-1.2 0.3-2.6 0.2-3.5-0.3-0.9-0.5-0.6-1.3 0.7-1.7q0.3-0.1 0.6-0.2c1.2-0.2 2.3-0.1 3.1 0.3z"/>
								<path id="&lt;Path&gt;" class="s3" d="m88.7 113.8c0.9 0.5 0.8 1.4-0.4 1.8q-0.3 0.1-0.5 0.1c0.3 0 0.6-0.2 0.7-0.3 0.3-0.2 0.3-0.5 0.2-0.7-0.2-0.2-0.5-0.4-0.8-0.7-0.3-0.1-0.7-0.3-1.1-0.4q-0.5-0.1-1.2-0.1c1.2-0.2 2.3-0.1 3.1 0.3z"/>
							</g>
						</g>
					</g>
					<g id="&lt;Group&gt;">
						<path id="&lt;Path&gt;" class="s1" d="m92 141.2c-3.8-0.1-6.8-0.8-8.3-2.1-0.1-0.2 0.5-0.3 0.7-0.2 1.4 1.2 4.3 1.9 7.9 2 0.4 0 0.1 0.3-0.3 0.3z"/>
						<path id="&lt;Path&gt;" class="s1" d="m83 137.3q0.1 0.4 0.3 0.7c0 0.1-0.1 0.2-0.3 0.2-0.2 0.1-0.3 0-0.4 0q-0.2-0.4-0.3-0.7c-0.1-0.1 0.1-0.2 0.3-0.2 0.2-0.1 0.3 0 0.4 0z"/>
					</g>
					<g id="&lt;Group&gt;">
						<path id="&lt;Path&gt;" class="s1" d="m116.9 118.1c-1.3 1.1-2.9 2.2-5 3.2-0.3 0.1-0.8 0-0.5-0.1 2-1 3.7-2 4.9-3.1 0.2-0.2 0.8-0.1 0.6 0z"/>
						<path id="&lt;Path&gt;" class="s1" d="m117.9 116.8q0 0-0.1 0.1l-0.3 0.4q-0.1 0.1-0.2 0.1-0.1 0-0.2 0-0.1 0-0.2 0 0-0.1 0-0.1 0.2-0.2 0.4-0.5 0 0 0.1 0 0.2-0.1 0.3-0.1 0.1 0 0.2 0.1z"/>
					</g>
				</g>
			</g>
			<g id="&lt;Group&gt; copy 24">
				<g id="&lt;Group&gt;">
					<g id="&lt;Group&gt;">
						<g id="&lt;Group&gt;">
							<path id="&lt;Path&gt;" class="s1" d="m159.2 99.2c1.7 2.7-1.7 5.9-5.1 9q-2.4 2.2-4.9 4.4c-1.2 1.1-2.5 2.3-4.4 3.4-1.9 1-4.5 2-7.4 2.6-1.8 0.3-3.7 0.4-5.3 0.2-1.1-0.1-2-0.3-2.6-0.6-1.9-1-0.3-2.8 1.9-4.3 4.7-3.1 8.8-5.9 5.2-8.5-1.6-1.1-3.8-2-5.3-3-1.4-1.1-1.9-2.5 0-3.9 2.3-1.6 7.4-2.6 11.9-2.9q1.2 0 2.3 0c6.7-0.1 12.3 1.4 13.7 3.6z"/>
							<path id="&lt;Path&gt;" class="s2" d="m136.4 98.2c-1.4 0.6-2.1 1.2-2.2 1.9-0.1 0.7 0.6 1.3 1.5 1.9 0.4 0.2-0.8 0.6-1.3 0.4-1-0.6-1.8-1.4-1.7-2.2 0.2-0.8 1-1.6 2.7-2.2 0.3-0.1 0.7-0.2 1-0.1 0.3 0 0.3 0.2 0 0.3z"/>
							<path id="&lt;Path&gt;" class="s4" d="m159.2 99.2c1.7 2.7-1.7 5.9-5.1 9q-2.4 2.2-4.9 4.4c-1.2 1.1-2.5 2.3-4.4 3.4-1.9 1-4.5 2-7.4 2.6-1.8 0.3-3.7 0.4-5.3 0.2 1.5 0 3.2-0.2 4.6-0.6 2.1-0.7 3.7-1.5 5.1-2.3 7.4-4.5 11.8-8.8 14.3-13.3 1.5-2.5-0.5-3.8-2.4-5.1-1.7-1-4.8-1.6-8.2-1.9 6.7-0.1 12.3 1.4 13.7 3.6z"/>
						</g>
						<g id="&lt;Group&gt;">
							<g id="&lt;Group&gt;">
								<path id="&lt;Path&gt;" class="s1" d="m131.6 93.9c0.5 1.2-0.3 2.8-3 3.2-1 0.2-2 0.1-2.8 0-1.6-0.3-2.8-1.1-3.1-1.9-0.5-1.2 1.5-2.2 4.1-2.6q0.2-0.1 0.4-0.1c2.5-0.3 4 0.2 4.4 1.4z"/>
								<path id="&lt;Path&gt;" class="s4" d="m131.6 93.9c0.5 1.2-0.3 2.8-3 3.2-1 0.2-2 0.1-2.8 0q0.3 0 0.6 0c0.6 0 1.4-0.1 2-0.3 0.5-0.2 0.9-0.4 1.1-0.7 0.7-0.7 0.7-1.4 0.6-2-0.1-0.5-0.3-0.9-0.9-1.2-0.5-0.2-1.2-0.4-2-0.4 2.5-0.3 4 0.2 4.4 1.4z"/>
							</g>
							<g id="&lt;Group&gt;">
								<path id="&lt;Path&gt;" class="s1" d="m142.4 92.8c-0.2 1.1-1.7 2.2-3.9 2.3q-1.1 0.1-1.9-0.1c-1-0.4-1.7-1.1-1.5-1.8 0.2-1 2-1.7 4.1-1.9q0.1 0 0.3 0c1.9-0.1 3.1 0.5 2.9 1.5z"/>
								<path id="&lt;Path&gt;" class="s4" d="m142.4 92.8c-0.2 1.1-1.7 2.2-3.9 2.3q-1.1 0.1-1.9-0.1c0.6 0 1.4 0 2-0.2 0.8-0.3 1.2-0.6 1.5-0.9 0.6-0.6 1-1.1 0.8-1.7-0.1-0.4-0.6-0.7-1.4-0.9 1.9-0.1 3.1 0.5 2.9 1.5z"/>
							</g>
							<g id="&lt;Group&gt;">
								<path id="&lt;Path&gt;" class="s1" d="m150.3 92.8c-0.6 0.8-1.9 1.5-3.6 1.6q-0.7 0-1.2-0.2c-0.8-0.3-1-1-0.6-1.6 0.5-0.7 1.8-1.2 3.2-1.3q0.3 0 0.6-0.1c1.7 0 2.1 0.7 1.6 1.6z"/>
								<path id="&lt;Path&gt;" class="s4" d="m150.3 92.8c-0.6 0.8-1.9 1.5-3.6 1.6q-0.7 0-1.2-0.2c0.4 0 0.9 0.1 1.4 0 0.7-0.1 1.1-0.4 1.4-0.6q0.7-0.5 1-1.1c0.2-0.3 0.3-0.6-0.1-0.9-0.2-0.1-0.6-0.3-1.1-0.3q0.3 0 0.6-0.1c1.7 0 2.1 0.7 1.6 1.6z"/>
							</g>
							<g id="&lt;Group&gt;">
								<path id="&lt;Path&gt;" class="s1" d="m157.1 93.3c-1 0.7-2.6 1.3-3.9 1.2q-0.2 0-0.4-0.1c-0.9-0.2-0.8-1 0.1-1.7 0.9-0.6 2.3-0.9 3.5-0.9q0 0 0 0 0.2 0 0.4 0c1.3 0.1 1.3 0.8 0.3 1.5z"/>
								<path id="&lt;Path&gt;" class="s4" d="m157.1 93.3c-1 0.7-2.6 1.3-3.9 1.2q-0.2 0-0.4-0.1c0.4 0 0.8 0 1.1-0.1q0.8-0.2 1.3-0.5 0.9-0.3 1.5-0.8c0.3-0.2 0.6-0.5 0.5-0.8-0.1-0.2-0.4-0.3-0.8-0.4q0.2 0 0.4 0c1.3 0.1 1.3 0.8 0.3 1.5z"/>
							</g>
							<g id="&lt;Group&gt;">
								<path id="&lt;Path&gt;" class="s1" d="m161.5 94.9c-1.3 0.7-2.9 0.9-3.9 0.7q-0.2 0-0.3-0.1 0 0 0 0c-0.5-0.3 0-1 1.1-1.5 0.8-0.4 1.7-0.6 2.5-0.6q0.6 0 1.1 0.1c1 0.2 0.7 0.9-0.5 1.4z"/>
								<path id="&lt;Path&gt;" class="s4" d="m161.5 94.9c-1.3 0.7-2.9 0.9-3.9 0.7q-0.2 0-0.3-0.1c0.4 0.1 0.8 0.1 1.3 0 0.6 0 1.1-0.2 1.6-0.4 0.7-0.3 1.3-0.6 1.7-1 0.1-0.1 0.2-0.3 0-0.5-0.1-0.1-0.3-0.1-0.6-0.2q-0.2 0-0.4 0 0.6 0 1.1 0.1c1 0.2 0.7 0.9-0.5 1.4z"/>
							</g>
						</g>
					</g>
					<g id="&lt;Group&gt;">
						<path id="&lt;Path&gt;" class="s5" d="m159.6 97c1.9 1 3 2.2 3 3.5 0 0.2-0.6 0.3-0.6 0.1 0-1.3-1-2.5-2.9-3.4-0.2-0.1 0.3-0.3 0.5-0.2z"/>
						<path id="&lt;Path&gt;" class="s5" d="m162.4 101.3q0.1 0.3-0.1 0.6c0 0-0.1 0-0.2 0q-0.1 0.1-0.2 0-0.1 0-0.1 0-0.1 0 0-0.1 0 0-0.1 0 0.2-0.1 0.2-0.3 0 0 0-0.1c0 0 0.1-0.1 0.2-0.1 0.2 0 0.3 0 0.3 0z"/>
					</g>
					<g id="&lt;Group&gt;">
						<path id="&lt;Path&gt;" class="s5" d="m134.9 119.9c-2.5 0.2-4.8 0.1-6.3-0.5-0.3 0 0.2-0.2 0.5-0.2 1.4 0.5 3.6 0.7 5.9 0.5 0.4-0.1 0.3 0.2-0.1 0.2z"/>
						<path id="&lt;Path&gt;" class="s5" d="m139.2 119.1c0 0.1-0.1 0.1-0.2 0.2-0.5 0.1-1 0.2-1.6 0.3q-0.1 0-0.2 0-0.1 0-0.1-0.1 0 0 0.1-0.1c0 0 0.1 0 0.2-0.1q0.4 0 0.7-0.1 0 0 0 0 0 0 0 0 0.1 0 0.1 0 0.1 0 0.2 0 0.2-0.1 0.4-0.1c0.1-0.1 0.3 0 0.4 0z"/>
					</g>
				</g>
			</g>
			<g id="&lt;Group&gt; copy 13">
				<g id="&lt;Group&gt;">
					<g id="&lt;Group&gt;">
						<g id="&lt;Group&gt;">
							<path id="&lt;Path&gt;" class="s1" d="m135.2 83.8c-0.3 1.2-3 2.5-6.1 3.4-3 1-6.5 1.7-9.6 2.7-7.5 2.3-8 4.8-8.4 7.5-0.2 1.2-1.5 2.8-4.9 3.7-2.2 0.6-4.8 0.8-6.8 0.5q-0.6-0.1-1-0.2c-2-0.4-2.9-1.3-3-2.3-0.1-0.9 0.5-1.9 1.1-2.9q1.1-2 2.2-3.9c1.6-2.7 3.5-5.6 9.1-7.9 5.5-2.2 14.1-3.5 20.7-3.1 1.5 0 2.9 0.2 4 0.5 1.8 0.5 2.9 1.2 2.7 2z"/>
							<path id="&lt;Path&gt;" class="s2" d="m114.3 83.7c-3.2 0.7-6 1.7-7.5 2.9-0.1 0.1-0.5 0.2-0.9 0.2-0.3 0-0.6-0.1-0.4-0.2 1.7-1.3 4.6-2.5 8.2-3.3 0.3 0 0.7-0.1 0.9 0 0.1 0.1 0 0.3-0.3 0.4z"/>
							<path id="&lt;Path&gt;" class="s3" d="m135.2 83.8c-0.3 1.2-3 2.5-6.1 3.4-3 1-6.5 1.7-9.6 2.7-7.5 2.3-8 4.8-8.4 7.5-0.2 1.2-1.5 2.8-4.9 3.7-2.2 0.6-4.8 0.8-6.8 0.5 1.8-0.1 3.8-0.5 5.3-1.1 2.2-0.9 3.2-1.9 3.5-2.9 0.4-1 0.1-1.8 0-2.7-0.1-0.9 0.2-1.9 1.4-2.8 1.5-1.1 4.2-2.1 7.1-2.9 2.9-0.7 5.9-1.3 8.8-2 2-0.5 4-1.1 5.5-1.7 1.5-0.7 2.6-1.5 2.8-2.2 0.1-0.6-0.4-1-1.3-1.5 1.8 0.5 2.9 1.2 2.7 2z"/>
						</g>
						<g id="&lt;Group&gt;">
							<g id="&lt;Group&gt;">
								<path id="&lt;Path&gt;" class="s1" d="m148.4 80.9c-2.4 1.2-6.6 2.1-8.5 1.7q-0.5-0.1-0.7-0.2c-0.7-0.6 0.8-1.7 2.9-2.7 2.3-1 4.5-1.5 6.4-1.1q0.1 0 0.2 0c1.8 0.3 2.1 1.2-0.3 2.3z"/>
								<path id="&lt;Path&gt;" class="s3" d="m148.4 80.9c-2.4 1.2-6.6 2.1-8.5 1.7q-0.5-0.1-0.7-0.2c0.4 0.1 1 0.1 1.5 0 0.7 0 1.4-0.1 2.1-0.3 1.5-0.3 3-0.6 4.2-1.1 1.2-0.5 2-1 2.1-1.6 0.1-0.3-0.1-0.6-0.6-0.8q0.1 0 0.2 0c1.8 0.3 2.1 1.2-0.3 2.3z"/>
							</g>
							<g id="&lt;Group&gt;">
								<path id="&lt;Path&gt;" class="s1" d="m139.9 79.2c-1.5 0.9-4.5 1.8-6.3 1.6q-0.7 0-1-0.3c-0.5-0.4 0-1.1 1.1-1.7 1.4-1 3.6-1.5 5.3-1.4q0 0 0.1 0c1.6 0.2 2.2 0.8 0.8 1.8z"/>
								<path id="&lt;Path&gt;" class="s3" d="m139.9 79.2c-1.5 0.9-4.5 1.8-6.3 1.6q-0.7 0-1-0.3c0.5 0.2 1.2 0.2 1.9 0.1 1-0.1 1.8-0.4 2.6-0.7 1.2-0.4 2.3-1 2.6-1.5 0.3-0.4 0-0.7-0.6-1 1.6 0.2 2.2 0.8 0.8 1.8z"/>
							</g>
							<g id="&lt;Group&gt;">
								<path id="&lt;Path&gt;" class="s1" d="m131.6 78.6c-0.8 0.8-2.9 1.6-4.4 1.5q-0.9 0-1.2-0.2c-0.3-0.3-0.2-0.7 0.3-1.2 0.8-0.7 2.3-1.4 3.8-1.3q0.6 0 1 0.1c0.8 0.1 1.1 0.5 0.5 1.1z"/>
								<path id="&lt;Path&gt;" class="s3" d="m131.6 78.6c-0.8 0.8-2.9 1.6-4.4 1.5q-0.9 0-1.2-0.2c0.4 0.1 1 0.1 1.5 0 0.7-0.1 1.3-0.3 1.8-0.5 0.9-0.4 1.6-0.8 1.9-1.2 0.2-0.3 0.2-0.5-0.1-0.7 0.8 0.1 1.1 0.5 0.5 1.1z"/>
							</g>
							<g id="&lt;Group&gt;">
								<path id="&lt;Path&gt;" class="s1" d="m123.9 78.7c-0.2 0.6-1.6 1.4-3 1.5q-0.5 0.1-0.9 0c-0.7-0.1-1.1-0.5-0.9-1 0.2-0.7 1.2-1.2 2.6-1.3q0.5-0.1 0.9 0c0.9 0 1.4 0.3 1.3 0.8z"/>
								<path id="&lt;Path&gt;" class="s3" d="m123.9 78.7c-0.2 0.6-1.6 1.4-3 1.5q-0.5 0.1-0.9 0 0.3 0 0.6 0c0.4-0.1 0.9-0.2 1.2-0.3q0.4-0.2 0.7-0.5c0.5-0.3 0.9-0.6 0.9-0.9 0-0.3-0.2-0.5-0.8-0.6 0.9 0 1.4 0.3 1.3 0.8z"/>
							</g>
							<g id="&lt;Group&gt;">
								<path id="&lt;Path&gt;" class="s1" d="m116.7 79.8c0.3 0.5-0.5 1.2-1.7 1.4q-0.2 0.1-0.4 0.1c-1.1 0-2-0.2-2.2-0.7-0.2-0.5 0.6-1.1 1.8-1.3q0.3 0 0.6-0.1c1 0 1.7 0.2 1.9 0.6z"/>
								<path id="&lt;Path&gt;" class="s3" d="m116.7 79.8c0.3 0.5-0.5 1.2-1.7 1.4q-0.2 0.1-0.4 0.1c0.3-0.1 0.5-0.1 0.8-0.2 0.3-0.2 0.5-0.4 0.6-0.6 0.1-0.2 0-0.4 0-0.6-0.1-0.2-0.2-0.3-0.5-0.5q-0.2-0.1-0.7-0.2c1 0 1.7 0.2 1.9 0.6z"/>
							</g>
						</g>
					</g>
					<g id="&lt;Group&gt;">
						<path id="&lt;Path&gt;" class="s1" d="m97.5 102.2c-2.5-0.5-4-1.5-4-2.7 0-0.1 0.6-0.2 0.6 0 0 1.1 1.4 2 3.9 2.5 0.2 0.1-0.2 0.3-0.5 0.2z"/>
						<path id="&lt;Path&gt;" class="s1" d="m94.3 98.1q-0.2 0.3-0.3 0.6c0 0-0.2 0.1-0.4 0.1q-0.2 0-0.2-0.1 0.2-0.3 0.3-0.6c0.1-0.1 0.3-0.1 0.4-0.1q0.2 0 0.2 0.1z"/>
					</g>
					<g id="&lt;Group&gt;">
						<path id="&lt;Path&gt;" class="s1" d="m133.4 86.5c-1.8 0.7-3.9 1.4-6.1 2-0.3 0.1-0.6 0-0.3-0.1 2.2-0.6 4.2-1.3 6-2 0.2-0.1 0.6 0 0.4 0.1z"/>
						<path id="&lt;Path&gt;" class="s1" d="m135.2 85.5q0 0.1-0.1 0.1l-0.6 0.3q-0.1 0-0.2 0.1-0.1 0-0.2 0-0.1-0.1-0.1-0.1 0 0 0.1-0.1 0.3-0.1 0.6-0.3 0.1 0 0.2 0 0.1-0.1 0.2 0 0.1 0 0.1 0z"/>
					</g>
				</g>
			</g>
			<g id="&lt;Group&gt; copy 26">
				<g id="&lt;Group&gt;">
					<g id="&lt;Group&gt;">
						<g id="&lt;Group&gt;">
							<path id="&lt;Path&gt;" class="s1" d="m184.2 75c-1.8 2.4-7.7 4.5-13.4 6.5q-4.1 1.4-8.2 2.8c-2.1 0.8-4.2 1.5-6.6 2.1-2.4 0.5-5.2 1-7.7 0.9-1.5 0-2.9-0.2-3.8-0.6-0.5-0.2-0.9-0.5-0.9-0.9-0.2-1.1 2.8-2.3 5.8-3.1 6.4-1.8 12.2-3.4 12.6-6.1 0.2-1.1-0.3-2.1-0.1-3.2 0.2-1.1 1.4-2.3 4.1-3.1 3.3-1 7.9-1 11.3-0.6q0.8 0.1 1.6 0.3c4.6 0.9 6.9 2.9 5.3 5z"/>
							<path id="&lt;Path&gt;" class="s2" d="m169.8 70.8c-1.6 0.3-2.8 0.7-3.5 1.2-0.9 0.6-1.1 1.2-1.1 1.8 0 0.2-1.3 0.4-1.3 0.1 0-0.7 0.3-1.4 1.3-2 0.9-0.6 2.4-1.1 4.2-1.4 0.3-0.1 0.6-0.1 0.8 0 0.1 0.1-0.1 0.3-0.4 0.3z"/>
							<path id="&lt;Path&gt;" class="s4" d="m184.2 75c-1.8 2.4-7.7 4.5-13.4 6.5q-4.1 1.4-8.2 2.8c-2.1 0.8-4.2 1.5-6.6 2.1-2.4 0.5-5.2 1-7.7 0.9-1.5 0-2.9-0.2-3.8-0.6 1 0.3 2.4 0.3 3.8 0.2 2-0.2 4-0.6 5.8-1.1 9.8-2.4 17.5-5.3 24.2-8.5 3.9-1.9 3.9-3.2 4-4.5 0-1.1-1.5-2.1-3.4-2.8 4.6 0.9 6.9 2.9 5.3 5z"/>
						</g>
						<g id="&lt;Group&gt;">
							<g id="&lt;Group&gt;">
								<path id="&lt;Path&gt;" class="s1" d="m171.4 66.6c-1.1 1.1-3.4 2.3-5.7 2.2q-1.2 0-1.8-0.4c-0.7-0.5-0.7-1.2 0-1.9 1.1-1.1 3.5-1.7 5.7-1.6q0.1 0 0.3 0c2 0.1 2.5 0.7 1.5 1.7z"/>
								<path id="&lt;Path&gt;" class="s4" d="m171.4 66.6c-1.1 1.1-3.4 2.3-5.7 2.2q-1.2 0-1.8-0.4 0.2 0 0.4 0.1c0.5 0.1 1.1 0.1 1.7 0 0.6 0 1.1-0.2 1.5-0.4 1.2-0.4 2-1 2.6-1.5 0.4-0.4 0.8-0.8 0.7-1.1-0.1-0.3-0.4-0.5-0.9-0.6 2 0.1 2.5 0.7 1.5 1.7z"/>
							</g>
							<g id="&lt;Group&gt;">
								<path id="&lt;Path&gt;" class="s1" d="m179.8 67.3c-1.3 0.8-3.5 1.5-5.2 1.3q-0.8-0.1-1.1-0.4c-0.3-0.4 0-1.1 0.9-1.6 1.3-0.9 3.3-1.2 4.9-1q0.1 0 0.2 0c1.5 0.2 1.6 0.9 0.3 1.7z"/>
								<path id="&lt;Path&gt;" class="s6" d="m179.8 67.3c-1.3 0.8-3.5 1.5-5.2 1.3q-0.8-0.1-1.1-0.4c0.3 0.2 1 0.2 1.6 0.1 0.7-0.1 1.4-0.3 2-0.5 1-0.3 1.9-0.7 2.3-1.2 0.4-0.3 0.4-0.7 0.1-1 1.5 0.2 1.6 0.9 0.3 1.7z"/>
							</g>
							<g id="&lt;Group&gt;">
								<path id="&lt;Path&gt;" class="s1" d="m185.2 68.4c-1.3 0.6-3 1-4.2 0.8q-0.5-0.1-0.6-0.4c-0.2-0.3 0.4-0.9 1.3-1.3 1.2-0.6 2.6-0.8 3.7-0.7q0.3 0.1 0.5 0.1c1.1 0.2 0.7 0.8-0.7 1.5z"/>
								<path id="&lt;Path&gt;" class="s4" d="m185.2 68.4c-1.3 0.6-3 1-4.2 0.8q-0.5-0.1-0.6-0.4c0.2 0.1 0.6 0.2 1 0.2 0.6 0 1.1-0.1 1.6-0.2q1-0.4 1.9-0.7c0.5-0.3 0.9-0.6 0.9-0.8q0.1-0.3-0.4-0.5 0.3 0.1 0.5 0.1c1.1 0.2 0.7 0.8-0.7 1.5z"/>
							</g>
							<g id="&lt;Group&gt;">
								<path id="&lt;Path&gt;" class="s1" d="m189.4 69.8c-1.6 0.5-3.3 0.7-4.1 0.4q-0.1-0.1-0.1-0.1c-0.4-0.3 0.6-1 1.9-1.4 1.4-0.4 2.7-0.4 3.5-0.3q0 0 0 0 0.1 0.1 0.2 0.1c0.8 0.3 0.1 0.8-1.4 1.3z"/>
								<path id="&lt;Path&gt;" class="s4" d="m189.4 69.8c-1.6 0.5-3.3 0.7-4.1 0.4q-0.1-0.1-0.1-0.1c0.2 0 0.6 0.1 0.9 0q0.7 0 1.4-0.1 1-0.2 1.9-0.5c0.5-0.2 1-0.4 1.3-0.6 0.1-0.2 0.1-0.3-0.1-0.5q0.1 0.1 0.2 0.1c0.8 0.3 0.1 0.8-1.4 1.3z"/>
							</g>
							<g id="&lt;Group&gt;">
								<path id="&lt;Path&gt;" class="s1" d="m190.6 71.8c-1.6 0.3-3.1 0.3-3.5 0q-0.1-0.1-0.1-0.1 0 0 0 0c0-0.4 1.2-0.9 2.5-1.1 1-0.2 1.8-0.3 2.4-0.2q0.5 0.1 0.7 0.3c0.5 0.3-0.5 0.8-2 1.1z"/>
								<path id="&lt;Path&gt;" class="s4" d="m190.6 71.8c-1.6 0.3-3.1 0.3-3.5 0q-0.1-0.1-0.1-0.1c0.2 0.1 0.5 0.1 0.9 0.2 0.5 0 1-0.1 1.6-0.1 0.8-0.2 1.6-0.4 2.3-0.6 0.3-0.1 0.5-0.3 0.6-0.4q0-0.2-0.2-0.3-0.2 0-0.3-0.1 0.5 0.1 0.7 0.3c0.5 0.3-0.5 0.8-2 1.1z"/>
							</g>
						</g>
					</g>
					<g id="&lt;Group&gt;">
						<path id="&lt;Path&gt;" class="s5" d="m186.9 73.2c0.3 1.1-0.3 2.2-1.8 3.4-0.2 0.1-0.7 0-0.5-0.1 1.4-1 2.1-2.2 1.8-3.2 0-0.1 0.5-0.2 0.5-0.1z"/>
						<path id="&lt;Path&gt;" class="s5" d="m184.1 77.2q-0.3 0.2-0.7 0.4-0.1 0-0.2 0-0.1 0-0.2 0 0 0 0-0.1 0 0 0.1 0-0.1 0-0.1 0 0.3-0.1 0.5-0.2 0-0.1 0.1-0.1c0-0.1 0.2-0.1 0.3-0.1 0.2 0 0.2 0 0.2 0.1z"/>
					</g>
					<g id="&lt;Group&gt;">
						<path id="&lt;Path&gt;" class="s5" d="m145.2 88c-1.9-0.2-3.1-0.7-3.6-1.3-0.1-0.1 0.5-0.2 0.5-0.1 0.5 0.6 1.7 1.1 3.4 1.2 0.3 0.1 0 0.2-0.3 0.2z"/>
						<path id="&lt;Path&gt;" class="s5" d="m148.8 88c0 0.1-0.1 0.1-0.3 0.1-0.4 0.1-0.9 0.1-1.3 0q-0.1 0-0.1 0-0.1 0 0-0.1 0 0 0.1 0c0.1-0.1 0.2-0.1 0.2-0.1q0.3 0.1 0.6 0.1 0 0 0 0 0 0 0 0 0.1 0 0.1 0 0.1 0 0.2 0 0.2 0 0.3-0.1c0.2 0 0.3 0.1 0.2 0.1z"/>
					</g>
				</g>
			</g>
			<g id="&lt;Group&gt; copy 38">
				<g id="&lt;Group&gt;">
					<g id="&lt;Group&gt;">
						<g id="&lt;Group&gt;">
							<path id="&lt;Path&gt;" class="s1" d="m170 57.8c0.5 0.8-1.1 1.9-3.2 2.7-2.1 0.9-4.8 1.7-7 2.5-5.2 2.1-3.9 3.9-2.3 5.9 0.7 0.9 0.6 2-1.8 2.9-1.7 0.6-4 0.8-6 0.8q-0.5 0-1.1-0.1c-2.1-0.2-3.5-0.8-4.3-1.4-0.8-0.7-1-1.4-1.1-2.2q-0.4-1.4-0.8-2.9c-0.5-2-0.8-4.2 2.8-6.2 3.4-1.9 10.5-3.4 16.8-3.5 1.4 0 2.9 0 4.1 0.2 2 0.2 3.5 0.6 3.9 1.3z"/>
							<path id="&lt;Path&gt;" class="s2" d="m150.6 58.9c-2.4 0.7-4.2 1.6-4.8 2.5-0.1 0.1-0.3 0.2-0.7 0.3-0.3 0-0.6-0.1-0.5-0.2 0.6-1 2.5-2 5.2-2.8 0.3-0.1 0.6-0.1 0.8-0.1 0.2 0.1 0.3 0.2 0 0.3z"/>
							<path id="&lt;Path&gt;" class="s3" d="m170 57.8c0.5 0.8-1.1 1.9-3.2 2.7-2.1 0.9-4.8 1.7-7 2.5-5.2 2.1-3.9 3.9-2.3 5.9 0.7 0.9 0.6 2-1.8 2.9-1.7 0.6-4 0.8-6 0.8 1.6-0.2 3.2-0.6 4.1-1.1 1.4-0.8 1.6-1.6 1.2-2.3-0.4-0.7-1.3-1.3-2-1.9-0.7-0.7-1.2-1.4-0.7-2.1 0.6-0.9 2.4-1.7 4.6-2.5 2.1-0.7 4.4-1.3 6.6-2 1.5-0.4 2.8-1 3.8-1.5 0.9-0.6 1.4-1.2 1.1-1.7-0.4-0.5-1.2-0.8-2.3-1 2 0.2 3.5 0.6 3.9 1.3z"/>
						</g>
						<g id="&lt;Group&gt;">
							<g id="&lt;Group&gt;">
								<path id="&lt;Path&gt;" class="s1" d="m180 54.9c-1.4 0.9-4.6 1.9-6.6 1.7q-0.4 0-0.7-0.1c-1.1-0.4-0.5-1.3 0.7-2.1 1.4-0.9 3.2-1.4 5.1-1.2q0.1 0 0.1 0c2 0.1 2.9 0.7 1.4 1.7z"/>
								<path id="&lt;Path&gt;" class="s3" d="m180 54.9c-1.4 0.9-4.6 1.9-6.6 1.7q-0.4 0-0.7-0.1c0.4 0 0.9 0 1.4-0.1q0.9-0.1 1.7-0.3c1.2-0.3 2.2-0.7 3-1.1 0.7-0.4 1.1-0.8 0.9-1.2-0.2-0.3-0.6-0.5-1.2-0.6q0.1 0 0.1 0c2 0.1 2.9 0.7 1.4 1.7z"/>
							</g>
							<g id="&lt;Group&gt;">
								<path id="&lt;Path&gt;" class="s1" d="m171 54.1c-0.7 0.8-2.8 1.6-4.5 1.6q-0.7 0-1.2-0.2c-0.7-0.2-0.8-0.8-0.3-1.3 0.7-0.8 2.3-1.3 4-1.3q0 0 0.1 0c1.6 0 2.6 0.4 1.9 1.2z"/>
								<path id="&lt;Path&gt;" class="s3" d="m171 54.1c-0.7 0.8-2.8 1.6-4.5 1.6q-0.7 0-1.2-0.2c0.5 0.1 1.2 0 1.8-0.1 0.8-0.1 1.4-0.3 1.9-0.6 0.8-0.4 1.4-0.8 1.4-1.2-0.1-0.3-0.6-0.6-1.3-0.7 1.6 0 2.6 0.4 1.9 1.2z"/>
							</g>
							<g id="&lt;Group&gt;">
								<path id="&lt;Path&gt;" class="s1" d="m163 54.2c-0.2 0.6-1.6 1.3-3 1.4q-0.8 0-1.2-0.1c-0.5-0.2-0.7-0.5-0.6-0.9 0.2-0.6 1.2-1.1 2.6-1.2q0.5 0 0.9 0c0.9 0.1 1.4 0.3 1.3 0.8z"/>
								<path id="&lt;Path&gt;" class="s3" d="m163 54.2c-0.2 0.6-1.6 1.3-3 1.4q-0.8 0-1.2-0.1c0.4 0 0.9-0.1 1.3-0.1 0.6-0.2 1-0.3 1.3-0.5 0.6-0.3 1-0.7 1-1q0-0.3-0.7-0.5c0.9 0.1 1.4 0.3 1.3 0.8z"/>
							</g>
							<g id="&lt;Group&gt;">
								<path id="&lt;Path&gt;" class="s1" d="m155.9 54.7c0.3 0.5-0.4 1.1-1.6 1.3q-0.5 0.1-0.8 0c-0.9 0-1.5-0.3-1.7-0.6-0.3-0.5 0.3-1 1.5-1.2q0.4 0 0.8 0c0.9 0 1.6 0.1 1.8 0.5z"/>
								<path id="&lt;Path&gt;" class="s3" d="m155.9 54.7c0.3 0.5-0.4 1.1-1.6 1.3q-0.5 0.1-0.8 0 0.2 0 0.5 0 0.5-0.1 0.8-0.3c0.2-0.1 0.4-0.2 0.4-0.4 0.2-0.2 0.3-0.5 0.1-0.7-0.1-0.2-0.5-0.4-1.2-0.4 0.9 0 1.6 0.1 1.8 0.5z"/>
							</g>
							<g id="&lt;Group&gt;">
								<path id="&lt;Path&gt;" class="s1" d="m150.1 55.9c0.6 0.4 0.4 1-0.6 1.2q-0.2 0-0.3 0c-1 0.2-2 0-2.5-0.3-0.6-0.4-0.3-0.9 0.7-1.1q0.2 0 0.5 0c0.9-0.1 1.7-0.1 2.2 0.2z"/>
								<path id="&lt;Path&gt;" class="s3" d="m150.1 55.9c0.6 0.4 0.4 1-0.6 1.2q-0.2 0-0.3 0 0.3 0 0.5-0.2c0.3-0.1 0.3-0.2 0.2-0.4 0-0.1-0.2-0.3-0.4-0.4-0.2-0.2-0.5-0.3-0.8-0.4q-0.3 0-0.8 0c0.9-0.1 1.7-0.1 2.2 0.2z"/>
							</g>
						</g>
					</g>
					<g id="&lt;Group&gt;">
						<path id="&lt;Path&gt;" class="s1" d="m148.5 73.1c-2.8-0.2-4.8-0.8-5.7-1.6-0.1-0.1 0.4-0.2 0.5-0.1 0.8 0.8 2.8 1.4 5.4 1.6 0.3 0 0.1 0.2-0.2 0.1z"/>
						<path id="&lt;Path&gt;" class="s1" d="m142.5 70.4q0.1 0.2 0.1 0.4c0.1 0.1-0.1 0.1-0.2 0.2q-0.2 0-0.3-0.1 0-0.2-0.1-0.5c0 0 0.1 0 0.2-0.1q0.3 0 0.3 0.1z"/>
					</g>
					<g id="&lt;Group&gt;">
						<path id="&lt;Path&gt;" class="s1" d="m170.2 59.8q-1.7 0.9-4.2 1.8c-0.2 0-0.6 0-0.3-0.1q2.4-0.8 4.1-1.8c0.1-0.1 0.5 0 0.4 0.1z"/>
						<path id="&lt;Path&gt;" class="s1" d="m171.1 59q0.1 0 0 0l-0.3 0.3q-0.1 0-0.2 0-0.1 0-0.1 0-0.1 0-0.2 0 0 0 0.1-0.1 0.1-0.1 0.3-0.2 0-0.1 0.1-0.1 0.1 0 0.2 0 0.1 0 0.1 0.1z"/>
					</g>
				</g>
			</g>
			<g id="&lt;Group&gt; copy 50">
				<g id="&lt;Group&gt;">
					<g id="&lt;Group&gt;">
						<g id="&lt;Group&gt;">
							<path id="&lt;Path&gt;" class="s1" d="m205.4 49.2c0.8 1.8-2.4 3.8-5.6 5.7q-2.2 1.3-4.5 2.6c-1.2 0.7-2.3 1.4-3.9 2-1.7 0.6-3.8 1.1-6.1 1.4-1.4 0.1-2.8 0.1-4-0.1-0.7-0.1-1.4-0.3-1.8-0.5-1.2-0.7 0.3-1.8 2.2-2.6 4-1.8 7.7-3.5 5.4-5.3-1-0.8-2.5-1.4-3.4-2.2-0.9-0.7-1.1-1.7 0.6-2.5 2-1 6.1-1.4 9.6-1.4q0.9 0 1.7 0c5.1 0.2 9.1 1.4 9.8 2.9z"/>
							<path id="&lt;Path&gt;" class="s2" d="m188.2 47.7c-1.1 0.3-1.8 0.7-2 1.1-0.2 0.5 0.2 1 0.8 1.3 0.3 0.2-0.7 0.4-1 0.2-0.7-0.4-1.2-0.9-0.9-1.4 0.3-0.5 1-1 2.4-1.4 0.3 0 0.6-0.1 0.8 0 0.2 0 0.2 0.2-0.1 0.2z"/>
							<path id="&lt;Path&gt;" class="s4" d="m205.4 49.2c0.8 1.8-2.4 3.8-5.6 5.7q-2.2 1.3-4.5 2.6c-1.2 0.7-2.3 1.4-3.9 2-1.7 0.6-3.8 1.1-6.1 1.4-1.4 0.1-2.8 0.1-4-0.1 1.2 0.1 2.5 0 3.6-0.2 1.7-0.3 3-0.8 4.2-1.3 6.4-2.5 10.5-5.2 13.3-8 1.6-1.6 0.3-2.5-0.9-3.4-1.1-0.8-3.4-1.2-5.9-1.6 5.1 0.2 9.1 1.4 9.8 2.9z"/>
						</g>
						<g id="&lt;Group&gt;">
							<g id="&lt;Group&gt;">
								<path id="&lt;Path&gt;" class="s1" d="m185.4 44.7c0.2 0.8-0.8 1.8-2.9 2-0.7 0.1-1.5 0-2.1-0.1-1.1-0.3-1.9-0.8-2-1.4-0.1-0.8 1.5-1.4 3.6-1.6q0.2 0 0.3 0c1.9-0.1 3 0.3 3.1 1.1z"/>
								<path id="&lt;Path&gt;" class="s4" d="m185.4 44.7c0.2 0.8-0.8 1.8-2.9 2-0.7 0.1-1.5 0-2.1-0.1q0.2 0 0.5 0c0.5 0 1 0 1.5-0.1 0.5-0.1 0.8-0.3 1-0.4 0.6-0.5 0.8-0.9 0.8-1.3 0-0.3 0-0.6-0.5-0.9-0.3-0.1-0.8-0.2-1.4-0.3 1.9-0.1 3 0.3 3.1 1.1z"/>
							</g>
							<g id="&lt;Group&gt;">
								<path id="&lt;Path&gt;" class="s1" d="m193.8 44.4c-0.3 0.7-1.7 1.3-3.4 1.4q-0.8 0-1.4-0.2c-0.8-0.3-1.1-0.8-0.9-1.2 0.4-0.7 1.9-1.1 3.5-1.1q0.1 0 0.2 0c1.5 0 2.3 0.4 2 1.1z"/>
								<path id="&lt;Path&gt;" class="s4" d="m193.8 44.4c-0.3 0.7-1.7 1.3-3.4 1.4q-0.8 0-1.4-0.2c0.4 0.1 1 0 1.5-0.1 0.7-0.1 1-0.3 1.4-0.5 0.5-0.3 0.9-0.7 0.9-1-0.1-0.3-0.4-0.6-1-0.7 1.5 0 2.3 0.4 2 1.1z"/>
							</g>
							<g id="&lt;Group&gt;">
								<path id="&lt;Path&gt;" class="s1" d="m199.8 44.7c-0.6 0.5-1.8 0.9-3 0.9q-0.6-0.1-0.9-0.2c-0.5-0.2-0.6-0.7-0.2-1.1 0.5-0.4 1.6-0.7 2.7-0.7q0.3 0 0.5 0c1.3 0 1.5 0.5 0.9 1.1z"/>
								<path id="&lt;Path&gt;" class="s4" d="m199.8 44.7c-0.6 0.5-1.8 0.9-3 0.9q-0.6-0.1-0.9-0.2 0.5 0.1 1.1 0c0.5 0 0.8-0.1 1.1-0.3q0.7-0.3 1-0.6c0.2-0.2 0.3-0.5 0.1-0.7-0.1-0.1-0.4-0.2-0.8-0.2q0.3 0 0.5 0c1.3 0 1.5 0.5 0.9 1.1z"/>
							</g>
							<g id="&lt;Group&gt;">
								<path id="&lt;Path&gt;" class="s1" d="m204.9 45.3c-0.9 0.4-2.3 0.7-3.2 0.6q-0.2 0-0.3-0.1c-0.6-0.2-0.4-0.7 0.4-1.1 0.8-0.4 1.9-0.5 2.8-0.5q0 0 0 0 0.2 0 0.4 0.1c0.9 0.1 0.8 0.5-0.1 1z"/>
								<path id="&lt;Path&gt;" class="s4" d="m204.9 45.3c-0.9 0.4-2.3 0.7-3.2 0.6q-0.2 0-0.3-0.1c0.3 0 0.6 0 0.9 0q0.6-0.1 1.1-0.3 0.7-0.2 1.2-0.4c0.3-0.2 0.6-0.4 0.6-0.6 0-0.1-0.2-0.2-0.6-0.3q0.2 0 0.4 0.1c0.9 0.1 0.8 0.5-0.1 1z"/>
							</g>
							<g id="&lt;Group&gt;">
								<path id="&lt;Path&gt;" class="s1" d="m207.9 46.5c-1 0.3-2.4 0.5-3.1 0.3q-0.1 0-0.2-0.1 0 0 0 0c-0.3-0.2 0.2-0.6 1.2-0.9 0.7-0.3 1.4-0.4 2-0.4q0.5 0.1 0.8 0.1c0.7 0.2 0.4 0.7-0.7 1z"/>
								<path id="&lt;Path&gt;" class="s4" d="m207.9 46.5c-1 0.3-2.4 0.5-3.1 0.3q-0.1 0-0.2-0.1c0.3 0.1 0.7 0.1 1 0.1q0.7-0.1 1.3-0.2c0.6-0.2 1.2-0.4 1.5-0.6 0.1-0.1 0.3-0.3 0.1-0.4q-0.1-0.1-0.4-0.1-0.2 0-0.3-0.1 0.5 0.1 0.8 0.1c0.7 0.2 0.4 0.7-0.7 1z"/>
							</g>
						</g>
					</g>
					<g id="&lt;Group&gt;">
						<path id="&lt;Path&gt;" class="s1" d="m206 47.8c1.4 0.7 1.9 1.5 1.7 2.4 0 0.1-0.5 0.1-0.5 0 0.3-0.8-0.3-1.6-1.5-2.3-0.2-0.1 0.2-0.2 0.3-0.1z"/>
						<path id="&lt;Path&gt;" class="s1" d="m207.4 50.7q0 0.2-0.2 0.4 0 0-0.1 0-0.1 0-0.2 0-0.1 0-0.1 0 0-0.1 0-0.1 0 0 0 0 0.1-0.1 0.1-0.2 0.1 0 0.1 0c0-0.1 0.1-0.1 0.2-0.1 0.1 0 0.2 0 0.2 0z"/>
					</g>
					<g id="&lt;Group&gt;">
						<path id="&lt;Path&gt;" class="s1" d="m183.2 61.6c-1.8 0.1-3.5-0.1-4.6-0.5-0.2-0.1 0.3-0.2 0.4-0.1 1 0.3 2.6 0.5 4.4 0.5 0.3 0 0.1 0.1-0.2 0.1z"/>
						<path id="&lt;Path&gt;" class="s1" d="m186.6 61.3c0 0-0.1 0-0.2 0.1q-0.6 0.1-1.2 0.1-0.1 0-0.2 0 0 0 0-0.1 0 0 0 0 0.1 0 0.2-0.1 0.3 0 0.6 0 0 0 0 0 0 0 0 0 0 0 0.1 0 0 0 0.1 0 0.1 0 0.3-0.1c0.1 0 0.2 0 0.3 0.1z"/>
					</g>
				</g>
			</g>
		</g>
		<path id="Shape 24" fill-rule="evenodd" class="s7" d="m56 94.7c-6-10.4-4.9-19.5-4.9-19.5 0 0 1.1-24.2 25.7-24.2 24.8 0 25.7 24.2 25.7 24.2 0 0 1.2 8.2-5.8 20.8-7 12.7-17.2 22.6-17.2 22.6 0 0-1 1.5-2.7 1.5-1.6 0-2.8-1.5-2.8-1.5 0 0-10.2-10.5-18-23.9zm34.9-17.8c0-7.8-6.3-14.2-14.2-14.2-7.8 0-14.2 6.4-14.2 14.2 0 7.9 6.4 14.2 14.2 14.2 7.9 0 14.2-6.3 14.2-14.2z"/>
	</g>
</svg>