<svg version="1.2" xmlns="http://www.w3.org/2000/svg" viewBox="0 0 240 240" width="240" height="240">
	<title>Plantation</title>
	<defs>
		<clipPath clipPathUnits="userSpaceOnUse" id="cp1">
			<path d="m53 129.59c0-2.77 2.24-5 5-5h16.86c2.76 0 5 2.23 5 5v43.14c0 2.76-2.24 5-5 5h-16.86c-2.76 0-5-2.24-5-5zm18.77 35c0-2.95-2.39-5.34-5.34-5.34-2.95 0-5.34 2.39-5.34 5.34 0 2.95 2.39 5.34 5.34 5.34 2.95 0 5.34-2.39 5.34-5.34zm19.32-30.78c4.34-0.05 6.71 1.73 6.71 1.73 0 0 8.95 6.4 15.09 11.92 5.55 4.99 8.75 4.93 8.75 4.93l23.84-0.05c0 0 4-0.02 4.02 3.86 0.02 4.46-4.04 4.13-4.04 4.13l-25.07-0.03c0 0-2.45-0.32-2.57 1.45-0.11 1.7 2.51 1.53 2.51 1.53l26.55 0.08 32.64-10c0 0 5.2-2.23 6.88 1.86 2.18 5.3-2.28 6.69-2.28 6.69 0 0-50.73 19.1-57.47 22.17-6.74 3.08-9.82 0.29-9.82 0.29 0 0-14.46-8.58-21.66-12.7-7.21-4.13-12.13-3.47-12.13-3.47v-34.37c0 0 4.22 0.03 8.05-0.02z"/>
		</clipPath>
	</defs>
	<style>
		tspan { white-space:pre } 
		.s0 { fill: #275ecb } 
		.s1 { fill: #ffdcb6 } 
		.s2 { fill: #00105b } 
		.s3 { fill: #511e01 } 
		.s4 { fill: #abd04c } 
	</style>
	<g id="Plantation">
		<path id="Layer 32 copy 9" class="s0" d="m120 240c-66.4 0-120-53.6-120-120 0-66.4 53.6-120 120-120 66.4 0 120 53.6 120 120 0 66.4-53.6 120-120 120z"/>
		<g id="Folder 7">
			<g clip-path="url(#cp1)">
				<path id="Shape 15" fill-rule="evenodd" class="s1" d="m53 129.6c0-2.8 2.2-5 5-5h16.9c2.7 0 5 2.2 5 5v43.1c0 2.8-2.3 5-5 5h-16.9c-2.8 0-5-2.2-5-5zm18.8 35c0-2.9-2.4-5.3-5.4-5.3-2.9 0-5.3 2.4-5.3 5.3 0 3 2.4 5.4 5.3 5.4 3 0 5.4-2.4 5.4-5.4zm19.3-30.7c4.3-0.1 6.7 1.7 6.7 1.7 0 0 8.9 6.4 15.1 11.9 5.5 5 8.7 4.9 8.7 4.9h23.9c0 0 4 0 4 3.8 0 4.5-4 4.2-4 4.2l-25.1-0.1c0 0-2.5-0.3-2.6 1.5-0.1 1.7 2.5 1.5 2.5 1.5l26.6 0.1 32.6-10c0 0 5.2-2.2 6.9 1.9 2.2 5.3-2.3 6.7-2.3 6.7 0 0-50.7 19.1-57.5 22.1-6.7 3.1-9.8 0.3-9.8 0.3 0 0-14.4-8.6-21.6-12.7-7.2-4.1-12.2-3.5-12.2-3.5v-34.3c0 0 4.3 0 8.1 0z"/>
				<path id="Shape 30" class="s2" d="m48 122h33v59h-33z"/>
			</g>
			<path id="Shape 16" class="s3" d="m126.8 133.7c11.7 0 12.8 12 12.8 12 0 0 4.5-3.1 10-0.4 3.6 1.8 5.4 6.8 5.4 6.8 0 0 3-0.4 5 0.2 2.8 0.8 4.6 2.7 4.6 2.7l-12.2 3.7c0 0 1-4.1-1.4-6.8-1.9-2.1-5-2.2-5-2.2 0 0-10.9-0.3-22.4-0.3-3.4 0-3.9-0.3-6.6-2.7-0.9-0.8-2.5-1.9-2.5-1.9 0 0 1.2-11.1 12.3-11.1z"/>
			<path id="Shape 17" fill-rule="evenodd" class="s4" d="m116.8 102.1c0 0 1.7 1.1 3.2 2.6 1.4 1.4 2.6 3.1 2.6 3.1 0 0 0-5.1 1.4-10.6 1.4-5.5 4.2-11.3 4.2-11.3 0 0-5.8-13.4 1.1-22.5 10.4-13.6 27.4-8.4 27.4-8.4 0 0 3.6 13.1-4 23.4-6.8 9.1-21.4 8.6-21.4 8.6 0 0-3.1 6.2-4.4 12-2 9.3-2 18.4-2 18.4 0 0 2.7-2.7 5.6-4.7 3-2 6.3-3.4 6.3-3.4 0 0 3.5-10.1 12.4-13.2 11.1-3.8 18.5 2.8 18.5 2.8 0 0-1.7 10.8-11.3 14.4-9.5 3.6-19.1-1.1-19.1-1.1 0 0-2.9 0.9-5.5 2.9-3.7 2.9-7 6.2-7 6.2 0 0-0.4 3.7-0.2 6.9 0.2 3.4 1.3 6.9 1.3 6.9l-3.4 0.4c0 0-0.5-5.1-0.8-11.2-0.3-5.2 0-11.6 0-11.6 0 0-1.2-2.6-2.9-4.9-1.2-1.6-2.8-2.9-2.8-2.9 0 0-11.5 3.5-19.5-2.9-9.6-7.9-8.6-19-8.6-19 0 0 11.1-4.4 21.3 3.7 7 5.5 7.6 15.4 7.6 15.4zm-2.9 0c0 0-5-5.3-10.7-9.6-5.9-4.5-12.4-8.1-12.4-8.1 0 0 6 4.5 11.9 9 5.6 4.3 11.2 8.7 11.2 8.7zm16.8-18.5c0 0 6-6.5 11.8-13 5.8-6.5 11.6-13 11.6-13 0 0-7.3 6.1-12.8 12.1-6.2 6.9-10.6 13.9-10.6 13.9zm21.7 21.1c5.8-2.3 12.4-4.7 12.4-4.7 0 0-7.2 1.5-13.5 4-6.2 2.4-11.7 5.9-11.7 5.9 0 0 6-2.6 12.8-5.2z"/>
		</g>
	</g>
</svg>