<svg version="1.2" xmlns="http://www.w3.org/2000/svg" viewBox="0 0 240 240" width="240" height="240">
	<title>Wildlife Management</title>
	<style>
		tspan { white-space:pre } 
		.s0 { fill: #ec6d00 } 
		.s1 { fill: #788ab0 } 
	</style>
	<g id="Wildlife Management">
		<path id="Layer 32 copy 2" class="s0" d="m120 240c-66.4 0-120-53.6-120-120 0-66.4 53.6-120 120-120 66.4 0 120 53.6 120 120 0 66.4-53.6 120-120 120z"/>
		<g id="Folder 14">
			<path id="Shape 22" fill-rule="evenodd" class="s1" d="m98.1 95.2c5.6 9.4 16.8 26.6 16.8 26.6 0 0 1.9 3.6 5 2.1 13.5-6.4 20.8-14.4 21.5-31.3 0.2-5.9-0.8-9.4-4.4-9-1.7 0.1-3.5 2.1-3 7.8 1.7 19.3-14.4 24.4-14.4 24.4 0 0-13.7-16.2-17.2-31.4-3.4-15.3 12.7-25.4 22.1-25.4 12.2 0 17.5 6.7 17.5 6.7 0 0 13.7-2.3 25.4 6.5 13.2 9.9 13.6 24.5 13.6 24.5 0 0 0 34.6 0 45.6 0 7.6-7.3 19.1-18.2 22.9-10.8 3.8-20.3-2.3-23.7-4.7-4.4-3.1-1.7-6.2-1.7-6.2 0 0 5.9-5.8 8.1-8 2.3-2.3 3.5-5.5 7.2-2.7 3.7 2.7 5.8-0.6 5.8-0.6 0 0 2.1-3.3-0.3-11.7-2-7.2-14.7-7.5-14.7-7.5 0 0-2.9 3.6-5.7 10.8-4.4 11.4-7.4 19.9-7.4 31.8 0 3.9-0.2 7.3-4.5 7.3-2.1 0-2.5 0-4.8 0-3.5 0-2.3 0-7.1 0-6 0-5.4-5-5.4-5v-16.8h-14.2c0 0 0 9.2 0 15.8 0 1.9 0.9 6-5.6 6-2.4 0-1.2 0-1.2 0 0 0-4 0-9.6 0-6.2 0-5.4-4.7-5.4-4.7 0 0 0.3-15.4-2.3-22.6-0.7-1.9-3.5-5.5-3.5-5.5 0 0-5-6.8-7.1-15.5-2-8.5-2.4-16.8-0.3-24.3 8.6-32.2 40.2-35.3 40.2-35.3-7.3 9.4-3.4 26.1-1.5 29.4zm61 2.4c0-2-1.6-3.6-3.6-3.6-2 0-3.7 1.6-3.7 3.6 0 2 1.7 3.7 3.7 3.7 2 0 3.6-1.7 3.6-3.7z"/>
		</g>
	</g>
</svg>