<svg version="1.2" xmlns="http://www.w3.org/2000/svg" viewBox="0 0 240 240" width="240" height="240">
	<title>Working Plan</title>
	<style>
		tspan { white-space:pre } 
		.s0 { fill: #9e0e48 } 
		.s1 { fill: #ffffff } 
		.s2 { fill: #93bf00 } 
		.s3 { fill: none;stroke: #ffffff;stroke-linecap: round;stroke-linejoin: round;stroke-width: 2 } 
	</style>
	<g id="Working Plan">
		<path id="Layer 32 copy 4" class="s0" d="m120 240c-66.4 0-120-53.6-120-120 0-66.4 53.6-120 120-120 66.4 0 120 53.6 120 120 0 66.4-53.6 120-120 120z"/>
		<path id="Shape 25" class="s1" d="m85 84h96v85h-96z"/>
		<g id="Folder 2">
			<path id="Shape 8" fill-rule="evenodd" class="s2" d="m186 79.2v95.5h-113.2c0 0-10.1 1-15.9-7.1-3.5-4.7-2.9-12.5-2.9-12.5v-75.5c0 0 2.5-13 15.4-13.6 13.4-0.5 15.7 13.2 15.7 13.2zm-126.6 67.5c0 0 3.4-4.3 10.4-4.3 6.5 0.1 10.7 4.3 10.7 4.3v-67.1c0 0-1.3-8.6-10.9-8.4-9 0.2-10.2 8.4-10.2 8.4zm39.1 3.8h66.4v-5.4h-66.4zm7.4-19.3l19.2-16.9 14.7 14.6 17.7-17.4 7.3 7 0.1-17.8-18-0.1 7.1 7.2-14.2 14.4-14.4-14.6-22.6 19.9z"/>
			<path id="Shape 25 copy" class="s3" d="m85 84h96v85h-96z"/>
		</g>
	</g>
</svg>