<svg version="1.2" xmlns="http://www.w3.org/2000/svg" viewBox="0 0 240 240" width="240" height="240">
	<title>Encroachment</title>
	<defs>
		<clipPath clipPathUnits="userSpaceOnUse" id="cp1">
			<path d="m117.85 77.33c40.78 18.3 70.71 1.83 70.71 1.83l0.33 82.88c0 0-27.91 19.25-73.45-1.02-43.98-19.57-69.01-0.59-69.01-0.59l1.12-84.47c0 0 26.04-18.49 70.3 1.37z"/>
		</clipPath>
	</defs>
	<style>
		tspan { white-space:pre } 
		.s0 { fill: #e48a00 } 
		.s1 { fill: #ffffff } 
		.s2 { fill: #bed9ff } 
		.s3 { fill: #52ca4c } 
		.s4 { fill: #fe8276 } 
		.s5 { fill: #e51400 } 
	</style>
	<g id="Encroachment">
		<path id="Layer 32 copy 5" class="s0" d="m120 240c-66.4 0-120-53.6-120-120 0-66.4 53.6-120 120-120 66.4 0 120 53.6 120 120 0 66.4-53.6 120-120 120z"/>
		<g id="Folder 16">
			<path id="Layer 36" class="s1" d="m125.1 70.8c35.9 17.5 74.9-6.6 74.9-6.6l-0.2 105.8c0 0-34.6 21.3-83.3 0.5-45.6-19.4-77.5 4.3-77.5 4.3v-103.6c0 0 33.1-26.1 86.1-0.4z"/>
			<g clip-path="url(#cp1)">
				<path id="Shape 27" class="s2" d="m117.8 77.3c40.8 18.3 70.8 1.9 70.8 1.9l0.3 82.8c0 0-27.9 19.3-73.5-1-43.9-19.5-69-0.6-69-0.6l1.1-84.4c0 0 26.1-18.5 70.3 1.3z"/>
				<path id="Layer 37" class="s3" d="m43.4 95.9c0 0 23.2 0.2 31.5 14.7 8.2 14.2 10.4 15.9 22.2 21.7 1.2 0.6 10.6 0.8 19.4 21.1 1.4 3.3 6.5 12.3 6.5 12.3 0 0-32.5-15.5-54.3-9.7-21.9 5.8-23.8 7.3-23.8 7.3zm103-14.6c19.2 6.5 44.8-5.3 44.8-5.3l0.6 88.1c0 0-35.9 17.1-49.6 2-8-8.8-10.3-20.7-19.2-30.1-9.3-9.9-19.5-10.2-27.7-15.9-8.2-5.8-10-14.2-15.9-20.2-6-6.1-14.3-7.2-20.2-14-6-6.9-7-17.3-7-17.3 0 0 20.8-12 94.2 12.7z"/>
			</g>
			<path id="Shape 32" class="s4" d="m143 104.9l32 10.1v9l-31.3 2.8z"/>
			<path id="Shape 24 copy" fill-rule="evenodd" class="s5" d="m138 93.7c-6-10.4-4.9-19.5-4.9-19.5 0 0 1.1-24.2 25.7-24.2 24.8 0 25.7 24.2 25.7 24.2 0 0 1.2 8.2-5.8 20.8-7 12.7-17.2 22.6-17.2 22.6 0 0-1 1.5-2.7 1.5-1.6 0-2.8-1.5-2.8-1.5 0 0-10.2-10.5-18-23.9zm34.9-17.8c0-7.8-6.3-14.2-14.2-14.2-7.8 0-14.2 6.4-14.2 14.2 0 7.9 6.4 14.2 14.2 14.2 7.9 0 14.2-6.3 14.2-14.2z"/>
		</g>
	</g>
</svg>