<svg version="1.2" xmlns="http://www.w3.org/2000/svg" viewBox="0 0 240 240" width="240" height="240">
	<title>JFM</title>
	<style>
		tspan { white-space:pre } 
		.s0 { fill: #670000 } 
		.s1 { fill: #ffffff } 
		.s2 { fill: #6aaa00 } 
	</style>
	<g id="JFM">
		<path id="Layer 32 copy 10" class="s0" d="m120 240c-66.4 0-120-53.6-120-120 0-66.4 53.6-120 120-120 66.4 0 120 53.6 120 120 0 66.4-53.6 120-120 120z"/>
		<g id="Folder 7">
			<path id="Shape 18" class="s1" d="m114.9 130.8c-4 0-7.3-3.2-7.3-7.3 0-4 3.3-7.2 7.3-7.2 4 0 7.2 3.2 7.2 7.2 0 4.1-3.2 7.3-7.2 7.3zm16.4-9.2c2.3 8.6 1.1 22.2 1.1 22.2 0 0-1.5-4-4.2-6.3-2.8-2.3-6.9-3.5-6.9-3.5 0 0 5.4-4.5 6-13 0.4-5.1-4.7-13.6-4.7-13.6 0 0 6.2 5 8.7 14.2zm-43 19.6c0 0 8.5-6 16.4-7 14.1-1.6 22.2 1.7 25.5 8.4 11.5 23.1-16.5 48.4-16.5 48.4 0 0 7-9.7 10-20.5 2-7.4-0.1-15.8-0.1-15.8 0 0-3.6 9.1-10.7 13.5-7.3 4.6-18.2 4.5-18.2 4.5 0 0 24.5-8.3 21.2-24.4-2.6-13.1-27.6-7.1-27.6-7.1z"/>
			<g id="Folder 11">
				<g id="Folder 8">
					<path id="Shape 19 copy 6" class="s2" d="m138.9 115.7l5.6 1.1 6.1 5-4.2-4.5 15.9 3.4-12.3-3.3 5.2-2.9-7.2 2.4-8.6-2.2c0 0 4.8-5.5 16.1-2.5 6.9 1.8 9.9 9.3 9.9 9.3 0 0-5.5 5.4-13.2 4-11.1-2-13.3-9.8-13.3-9.8z"/>
					<path id="Shape 19 copy 7" class="s2" d="m86.8 125.5c-7.7 1.4-13.2-4-13.2-4 0 0 3-7.5 9.9-9.3 11.3-3 16.1 2.5 16.1 2.5l-8.6 2.2-7.2-2.4 5.2 2.9-12.3 3.3 15.9-3.4-4.2 4.5 6.1-5 5.6-1.1c0 0-2.2 7.8-13.3 9.8z"/>
				</g>
				<g id="Folder 9">
					<path id="Shape 19" class="s2" d="m141 62.9c5.2-5.9 12.9-5.1 12.9-5.1 0 0 2.3 7.7-2 13.5-7 9.3-14.2 8.1-14.2 8.1l5.4-7.2 7.1-2.5-5.9 1 7.6-10.4-10.3 12.6 0.5-6-1.6 7.7-3.8 4.3c0 0-3.2-7.5 4.3-16z"/>
					<path id="Shape 19 copy 4" class="s2" d="m102.5 78.9l-3.7-4.3-1.6-7.7 0.4 6-10.3-12.6 7.6 10.4-5.9-1 7.1 2.5 5.4 7.2c0 0-7.2 1.2-14.2-8.1-4.3-5.8-2-13.5-2-13.5 0 0 7.7-0.8 12.9 5.1 7.5 8.5 4.3 16 4.3 16z"/>
				</g>
				<g id="Folder 10">
					<path id="Shape 19 copy 3" class="s2" d="m106.1 102.1l-8.4-4.6-7-11 4.3 9.1-23.5-13.5 17.9 11.6-9.7 1.9 12.5-0.2 12.6 8c0 0-10.5 6.2-26.8-4.3-10-6.4-11-19.8-11-19.8 0 0 11.5-5.7 23 0.4 16.6 8.8 16.1 22.4 16.1 22.4z"/>
					<path id="Shape 19 copy 2" class="s2" d="m149.2 79.7c11.5-6.1 23-0.4 23-0.4 0 0-1 13.4-11 19.8-16.4 10.5-26.8 4.3-26.8 4.3l12.5-8 12.6 0.2-9.7-1.9 17.8-11.6-23.4 13.5 4.3-9.1-7.1 11-8.3 4.6c0 0-0.6-13.6 16.1-22.4z"/>
				</g>
				<path id="Shape 19 copy" class="s2" d="m106.5 72.7c0.9-14.9 13.3-22.7 13.3-22.7 0 0 12.5 8.9 12.8 22.6 0.5 22.2-11.8 28.7-11.8 28.7l-0.2-17 7.6-12.2-7.6 8.4-0.8-24.4-0.8 31-6.3-9.7 6.6 13.5-0.5 10.9c0 0-13.6-7.5-12.3-29.1z"/>
			</g>
		</g>
	</g>
</svg>